<svg width="20" height="20" viewBox="0 0 20 20" fill="none" xmlns="http://www.w3.org/2000/svg">
<mask id="mask0_3528_42356" style="mask-type:alpha" maskUnits="userSpaceOnUse" x="0" y="0" width="20" height="20">
<rect width="20" height="20" fill="#D9D9D9"/>
</mask>
<g mask="url(#mask0_3528_42356)">
<path d="M7.6888 11.5368L10.0013 9.22433L12.3138 11.5368L13.0798 10.7708L10.0013 7.69225L6.92276 10.7708L7.6888 11.5368ZM10.0028 17.5833C8.96332 17.5833 7.98269 17.3859 7.06089 16.9912C6.13908 16.5965 5.33227 16.0534 4.64047 15.3618C3.94866 14.6703 3.40526 13.8638 3.01026 12.9425C2.6154 12.0211 2.41797 11.0407 2.41797 10.0014C2.41797 8.94808 2.61533 7.96399 3.01005 7.04913C3.40477 6.13426 3.9479 5.33093 4.63943 4.63913C5.33096 3.94732 6.13741 3.40392 7.0588 3.00892C7.98019 2.61406 8.96054 2.41663 9.99984 2.41663C11.0532 2.41663 12.0373 2.61399 12.9521 3.00871C13.867 3.40343 14.6703 3.94656 15.3621 4.63808C16.0539 5.32961 16.5973 6.1326 16.9923 7.04704C17.3872 7.96149 17.5846 8.94531 17.5846 9.9985C17.5846 11.0379 17.3873 12.0186 16.9926 12.9404C16.5978 13.8622 16.0547 14.669 15.3632 15.3608C14.6716 16.0526 13.8687 16.596 12.9542 16.991C12.0398 17.3859 11.056 17.5833 10.0028 17.5833ZM10.0013 16.5C11.8069 16.5 13.3416 15.868 14.6055 14.6041C15.8694 13.3402 16.5013 11.8055 16.5013 9.99996C16.5013 8.1944 15.8694 6.65968 14.6055 5.39579C13.3416 4.1319 11.8069 3.49996 10.0013 3.49996C8.19575 3.49996 6.66102 4.1319 5.39714 5.39579C4.13325 6.65968 3.5013 8.1944 3.5013 9.99996C3.5013 11.8055 4.13325 13.3402 5.39714 14.6041C6.66102 15.868 8.19575 16.5 10.0013 16.5Z" fill="#171719"/>
</g>
</svg>
