<svg width="20" height="20" viewBox="0 0 20 20" fill="none" xmlns="http://www.w3.org/2000/svg">
<mask id="mask0_3528_53346" style="mask-type:alpha" maskUnits="userSpaceOnUse" x="0" y="0" width="20" height="20">
<rect width="20" height="20" fill="#D9D9D9"/>
</mask>
<g mask="url(#mask0_3528_53346)">
<path d="M10.7769 10.0003L8.46443 12.3128L9.23047 13.0789L12.309 10.0003L9.23047 6.92178L8.46443 7.68783L10.7769 10.0003ZM10.0028 17.5837C8.96332 17.5837 7.98269 17.3863 7.06089 16.9916C6.13908 16.5969 5.33227 16.0537 4.64047 15.3622C3.94866 14.6707 3.40526 13.8642 3.01026 12.9428C2.6154 12.0214 2.41797 11.0411 2.41797 10.0018C2.41797 8.94845 2.61533 7.96435 3.01005 7.04949C3.40477 6.13463 3.9479 5.3313 4.63943 4.63949C5.33096 3.94769 6.13741 3.40428 7.0588 3.00928C7.98019 2.61442 8.96054 2.41699 9.99984 2.41699C11.0532 2.41699 12.0373 2.61435 12.9521 3.00908C13.867 3.4038 14.6703 3.94692 15.3621 4.63845C16.0539 5.32998 16.5973 6.13296 16.9923 7.04741C17.3872 7.96185 17.5846 8.94567 17.5846 9.99887C17.5846 11.0383 17.3873 12.0189 16.9926 12.9407C16.5978 13.8625 16.0547 14.6694 15.3632 15.3612C14.6716 16.053 13.8687 16.5964 12.9542 16.9914C12.0398 17.3862 11.056 17.5837 10.0028 17.5837Z" fill="#1C1B1F"/>
</g>
</svg>
