<svg width="20" height="8" viewBox="0 0 20 8" fill="none" xmlns="http://www.w3.org/2000/svg">
<g clip-path="url(#clip0_4357_25730)">
<path d="M6.2622 2.83866V2.81911C6.2622 1.3151 5.2162 0.380859 3.53213 0.380859H0V7.62718H1.78605V5.39561H3.01671L4.49131 7.6258H6.5902L4.85925 5.06325C5.76469 4.66105 6.2622 3.87764 6.2622 2.83866ZM4.45685 2.91826C4.45685 3.44892 4.07374 3.90417 3.43292 3.90417H1.78605V1.90302H3.40397C3.88492 1.90302 4.45685 2.1893 4.45685 2.89871V2.91826Z" fill="#1E9EFF"/>
<path d="M9.30947 0.380859H7.52344V7.62718H9.30947V0.380859Z" fill="#1E9EFF"/>
<path d="M13.9001 0.380859H10.6133V7.62718H13.9001C16.0968 7.62718 17.2117 6.10364 17.2117 4.00472V3.98518C17.2117 1.89604 16.0968 0.380859 13.9001 0.380859ZM15.3582 4.02289C15.3582 5.18476 14.8551 6.04918 13.6961 6.04918H12.3993V1.95748H13.6961C14.8551 1.95748 15.3582 2.82889 15.3582 4.00331V4.02289Z" fill="#1E9EFF"/>
<path d="M19.9774 0.380859H18.1914V7.62718H19.9774V0.380859Z" fill="#1E9EFF"/>
</g>
<defs>
<clipPath id="clip0_4357_25730">
<rect width="20" height="7.54098" fill="white" transform="translate(0 0.230469)"/>
</clipPath>
</defs>
</svg>
