<svg width="12" height="18" viewBox="0 0 12 18" fill="none" xmlns="http://www.w3.org/2000/svg">
<g clip-path="url(#clip0_4357_25737)">
<path d="M8.97208 3.58984C8.97208 3.58984 8.06143 7.12452 7.89353 7.77291C7.29933 10.066 6.0553 11.3477 4.32207 11.3589C3.16804 11.3661 2.73062 10.4729 3.09498 8.80742C3.09498 8.80742 4.09853 4.64033 4.31288 3.75146C4.33272 3.66871 4.26982 3.59033 4.18514 3.59033H1.44111C1.44111 3.59033 0.772881 6.34888 0.337881 8.01291C-0.46728 11.0942 0.43901 13.5034 3.12643 13.6887C4.57417 13.7884 5.8332 13.0795 6.78933 12.1539L6.83675 12.1587C6.28466 14.026 5.35224 15.0615 3.51788 15.4123C2.81675 15.5463 1.8132 15.4292 1.08401 15.0489C1.01917 15.015 0.940301 15.0479 0.922398 15.119L0.25901 17.7557C0.966914 17.9715 2.26853 18.1103 3.66595 17.8897C6.12014 17.5021 9.07224 15.6527 10.0709 11.3753L11.943 3.75678C11.9639 3.67259 11.9 3.5913 11.8129 3.59081H8.97304L8.97208 3.58984Z" fill="#060000"/>
<path d="M5.12817 3.03435C5.90333 3.03435 6.20381 2.44403 6.40123 1.51694C6.59284 0.615 6.54881 0 5.77317 0C4.998 0 4.6922 0.615 4.5001 1.51742C4.30316 2.44403 4.353 3.03484 5.12817 3.03484V3.03435Z" fill="#0080FF"/>
<path d="M8.09691 3.03435C8.87208 3.03435 9.17256 2.44403 9.36998 1.51694C9.56159 0.615 9.51708 0 8.74191 0C7.96675 0 7.66095 0.615 7.46885 1.51742C7.27191 2.44403 7.32175 3.03484 8.09691 3.03484V3.03435Z" fill="#0080FF"/>
</g>
<defs>
<clipPath id="clip0_4357_25737">
<rect width="11.8911" height="18" fill="white" transform="translate(0.0546875)"/>
</clipPath>
</defs>
</svg>
