<svg width="24" height="10" viewBox="0 0 24 10" fill="none" xmlns="http://www.w3.org/2000/svg">
<g clip-path="url(#clip0_4357_25743)">
<path d="M6.7818 0.736328H5.61027V4.97437H6.7818V3.09806H7.986V2.25325H6.7818V0.736328ZM2.65578 7.83084V7.72816H6.7818V5.46912H1.44691V6.26725H5.5916V6.9487H1.46558V7.51346C1.46558 8.83901 2.18436 9.25442 3.27188 9.25442H6.83781V8.45628H3.27655C2.7818 8.45628 2.66044 8.26492 2.66044 7.82618L2.65578 7.83084ZM4.43874 2.82734C4.43874 1.70716 3.44457 0.797005 2.21704 0.797005C0.989498 0.797005 0 1.70716 0 2.82734C0 3.94753 0.994166 4.85768 2.21704 4.85768C3.43991 4.85768 4.43874 3.94753 4.43874 2.82734ZM1.09685 2.82734C1.09685 2.15056 1.60093 1.60447 2.21704 1.60447C2.83314 1.60447 3.34189 2.15056 3.34189 2.82734C3.34189 3.50412 2.83781 4.05021 2.21704 4.05021C1.59627 4.05021 1.09685 3.50412 1.09685 2.82734ZM22.7725 4.83434V6.86002H23.9347V0.736328H22.7725V4.00354C22.2077 4.57297 20.9942 4.78767 20.168 4.78767C19.4072 4.78767 18.7911 4.50296 18.7911 3.67215V1.98254H21.5636V1.16107H17.6103V3.56013C17.6103 5.24508 18.6464 5.61381 20.098 5.61381C20.9382 5.61381 22.0443 5.40377 22.7725 4.83434ZM20.6114 8.43295C20.098 8.43295 19.818 8.1669 19.818 7.65815V6.44928H18.6278V7.38744C18.6278 8.70832 19.3886 9.25442 20.8261 9.25442H23.9953V8.42828H20.6114V8.43295ZM15.2672 0.736328H14.0957V5.44111C13.4609 5.9592 12.5741 6.24858 11.4586 6.22058C10.6978 6.20191 10.077 5.89852 10.077 4.93703V4.44695H12.7935V1.24508H8.88215V2.07122H11.6219V3.63014H8.88215V4.62431C8.88215 6.44461 9.87164 7.03738 11.3699 7.03738C12.4247 7.03738 13.5543 6.71533 14.091 6.26258V9.25908H15.2625V4.12489H16.4667V3.24275H15.2625V0.736328H15.2672Z" fill="#3D62AD"/>
</g>
<defs>
<clipPath id="clip0_4357_25743">
<rect width="24" height="8.52742" fill="white" transform="translate(0 0.736328)"/>
</clipPath>
</defs>
</svg>
