<svg width="18" height="16" viewBox="0 0 18 16" fill="none" xmlns="http://www.w3.org/2000/svg">
<g clip-path="url(#clip0_4357_25726)">
<path d="M17.3477 4.17654C16.4093 3.22422 14.857 3.39166 13.9395 4.36143C12.75 5.61375 11.8221 6.07771 10.7198 6.03236C9.17791 5.96608 8.41744 4.77654 7.62558 3.27306C6.80233 1.69631 5.53954 0.824219 3.96628 0.824219C1.48605 0.824219 0 2.83003 0 5.06608C0 8.5091 2.42093 10.5672 4.09535 11.4358C5.48721 12.1614 7.03605 12.4614 8.41395 12.4963C8.33372 13.3196 8.08954 14.4079 7.82093 15.1754H10.657C10.3779 14.4079 10.1302 13.2324 10.0535 12.4056C14.2047 11.8649 16.1756 9.9812 17.257 8.18468C17.7419 7.39631 18 6.58003 17.9965 5.84399C17.9965 5.19864 17.7872 4.61608 17.3407 4.17306L17.3477 4.17654ZM3.98372 6.32887C3.17791 6.3812 2.49419 5.77073 2.44186 4.97189C2.39302 4.17306 2.99651 3.48236 3.80233 3.43003C4.59767 3.37771 5.28488 3.98817 5.33721 4.78701C5.38954 5.58585 4.78256 6.27654 3.98721 6.32538L3.98372 6.32887Z" fill="#91E561"/>
</g>
<defs>
<clipPath id="clip0_4357_25726">
<rect width="18" height="14.3512" fill="white" transform="translate(0 0.824219)"/>
</clipPath>
</defs>
</svg>
