<svg width="20" height="20" viewBox="0 0 20 20" fill="none" xmlns="http://www.w3.org/2000/svg">
<mask id="mask0_4382_36346" style="mask-type:alpha" maskUnits="userSpaceOnUse" x="0" y="0" width="20" height="20">
<rect width="20" height="20" fill="#D9D9D9"/>
</mask>
<g mask="url(#mask0_4382_36346)">
<path d="M9.98396 16.1379C9.31201 15.6422 8.58979 15.2592 7.81729 14.9889C7.04493 14.7186 6.24472 14.5835 5.41667 14.5835C4.90819 14.5835 4.40875 14.6398 3.91833 14.7525C3.42792 14.8652 2.95514 15.0311 2.5 15.2502C2.20306 15.3868 1.92049 15.3665 1.65229 15.1891C1.3841 15.0119 1.25 14.7609 1.25 14.436V5.40412C1.25 5.22454 1.29757 5.05864 1.39271 4.90641C1.48771 4.75419 1.61965 4.64336 1.78854 4.57391C2.35257 4.29933 2.94042 4.09343 3.55208 3.9562C4.16375 3.81884 4.78528 3.75016 5.41667 3.75016C6.2275 3.75016 7.01701 3.86502 7.78521 4.09475C8.5534 4.32447 9.29167 4.64766 10 5.06433V14.6347C10.7031 14.1903 11.4448 13.8623 12.2252 13.6508C13.0056 13.4393 13.7917 13.3335 14.5833 13.3335C15.0619 13.3335 15.4981 13.3631 15.8919 13.4225C16.2855 13.4818 16.7414 13.592 17.2596 13.7533C17.3183 13.7694 17.3731 13.7708 17.424 13.7575C17.4747 13.744 17.5 13.6999 17.5 13.6252V4.26621C17.6442 4.30898 17.7849 4.35655 17.9223 4.40891C18.0595 4.46127 18.1933 4.52697 18.3237 4.606C18.4658 4.67544 18.5724 4.7769 18.6433 4.91037C18.7144 5.04398 18.75 5.18718 18.75 5.33995V14.42C18.75 14.7448 18.6119 14.9945 18.3356 15.1691C18.0595 15.3438 17.7649 15.3655 17.4519 15.2341C17.0022 15.0204 16.5361 14.8585 16.0538 14.7485C15.5714 14.6385 15.0812 14.5835 14.5833 14.5835C13.75 14.5835 12.9418 14.7146 12.1587 14.9768C11.3756 15.2392 10.6506 15.6262 9.98396 16.1379ZM11.6667 12.5002V5.00016L15.8333 0.833496V8.75016L11.6667 12.5002Z" fill="#37383C" fill-opacity="0.28"/>
</g>
</svg>
