<svg width="20" height="20" viewBox="0 0 20 20" fill="none" xmlns="http://www.w3.org/2000/svg">
<mask id="mask0_4364_22269" style="mask-type:alpha" maskUnits="userSpaceOnUse" x="0" y="0" width="20" height="20">
<rect width="20" height="20" fill="#D9D9D9"/>
</mask>
<g mask="url(#mask0_4364_22269)">
<path d="M4.75776 17.5833C4.38804 17.5833 4.07227 17.4524 3.81047 17.1908C3.5488 16.9289 3.41797 16.6132 3.41797 16.2435V6.75638C3.41797 6.38665 3.5488 6.07089 3.81047 5.80909C4.07227 5.54742 4.38804 5.41659 4.75776 5.41659H6.41797C6.41797 4.42214 6.76707 3.57631 7.46526 2.87909C8.16332 2.18186 9.01026 1.83325 10.0061 1.83325C11.0018 1.83325 11.8471 2.18186 12.5421 2.87909C13.2371 3.57631 13.5846 4.42214 13.5846 5.41659H15.2448C15.6146 5.41659 15.9303 5.54742 16.1921 5.80909C16.4538 6.07089 16.5846 6.38665 16.5846 6.75638V16.2435C16.5846 16.6132 16.4538 16.9289 16.1921 17.1908C15.9303 17.4524 15.6146 17.5833 15.2448 17.5833H4.75776ZM4.75776 16.4999H15.2448C15.309 16.4999 15.3678 16.4732 15.4211 16.4197C15.4746 16.3664 15.5013 16.3076 15.5013 16.2435V6.75638C15.5013 6.69221 15.4746 6.63346 15.4211 6.58013C15.3678 6.52665 15.309 6.49992 15.2448 6.49992H4.75776C4.69359 6.49992 4.63484 6.52665 4.58151 6.58013C4.52804 6.63346 4.5013 6.69221 4.5013 6.75638V16.2435C4.5013 16.3076 4.52804 16.3664 4.58151 16.4197C4.63484 16.4732 4.69359 16.4999 4.75776 16.4999ZM10.0061 11.5833C11.0018 11.5833 11.8471 11.2346 12.5421 10.5374C13.2371 9.8402 13.5846 8.99436 13.5846 7.99992H12.5013C12.5013 8.69436 12.2582 9.28464 11.7721 9.77075C11.286 10.2569 10.6957 10.4999 10.0013 10.4999C9.30686 10.4999 8.71658 10.2569 8.23047 9.77075C7.74436 9.28464 7.5013 8.69436 7.5013 7.99992H6.41797C6.41797 8.99881 6.76707 9.84575 7.46526 10.5408C8.16332 11.2358 9.01026 11.5833 10.0061 11.5833ZM7.5013 5.41659H12.5013C12.5013 4.72214 12.2582 4.13186 11.7721 3.64575C11.286 3.15964 10.6957 2.91659 10.0013 2.91659C9.30686 2.91659 8.71658 3.15964 8.23047 3.64575C7.74436 4.13186 7.5013 4.72214 7.5013 5.41659Z" fill="#171719"/>
</g>
</svg>
