<svg width="20" height="20" viewBox="0 0 20 20" fill="none" xmlns="http://www.w3.org/2000/svg">
<path d="M10.2518 1.68451C10.1433 1.68059 10.0326 1.68917 9.92139 1.71137L3.58919 2.97764C2.71655 3.15242 2.08203 3.92619 2.08203 4.81602V15.1839C2.08203 16.0734 2.71662 16.8477 3.58919 17.0222L9.92139 18.2885C10.7315 18.4504 11.4806 17.8712 11.6133 17.0833H15.6237C16.8819 17.0833 17.9154 16.0498 17.9154 14.7916V5.62494C17.9154 4.3667 16.8819 3.33328 15.6237 3.33328H11.6654V3.14122C11.6654 2.34744 11.0112 1.71197 10.2518 1.68451ZM10.1663 2.93695C10.3077 2.90873 10.4154 2.99672 10.4154 3.14122V16.8587C10.4154 17.0032 10.3076 17.0912 10.1663 17.0629V17.0621L3.83496 15.7958H3.83415C3.53795 15.7367 3.33203 15.4857 3.33203 15.1839V4.81602C3.33203 4.51419 3.53844 4.26262 3.83496 4.20323L10.1663 2.93695ZM11.6654 4.58328H15.6237C16.2063 4.58328 16.6654 5.04235 16.6654 5.62494V14.7916C16.6654 15.3742 16.2063 15.8333 15.6237 15.8333H11.6654V4.58328ZM13.1237 6.24994C13.0409 6.24877 12.9587 6.26407 12.8818 6.29496C12.8049 6.32584 12.735 6.37169 12.676 6.42984C12.617 6.488 12.5702 6.55729 12.5382 6.6337C12.5063 6.71011 12.4898 6.79211 12.4898 6.87494C12.4898 6.95777 12.5063 7.03977 12.5382 7.11618C12.5702 7.1926 12.617 7.26189 12.676 7.32004C12.735 7.3782 12.8049 7.42405 12.8818 7.45493C12.9587 7.48581 13.0409 7.50111 13.1237 7.49994H14.7904C14.8732 7.50111 14.9554 7.48581 15.0323 7.45493C15.1091 7.42405 15.1791 7.3782 15.2381 7.32004C15.297 7.26189 15.3439 7.1926 15.3758 7.11618C15.4078 7.03977 15.4243 6.95777 15.4243 6.87494C15.4243 6.79211 15.4078 6.71011 15.3758 6.6337C15.3439 6.55729 15.297 6.488 15.2381 6.42984C15.1791 6.37169 15.1091 6.32584 15.0323 6.29496C14.9554 6.26407 14.8732 6.24877 14.7904 6.24994H13.1237ZM5.41455 7.14919C5.2942 7.14598 5.17124 7.17763 5.06217 7.24685C4.77134 7.43227 4.68593 7.81823 4.87093 8.10948L6.11605 10.0659L4.87093 12.0222C4.68593 12.3135 4.77134 12.6995 5.06217 12.8849C5.16634 12.9507 5.28246 12.9825 5.39746 12.9825C5.60371 12.9825 5.80645 12.8807 5.92562 12.6936L6.85661 11.2304L7.7876 12.6928C7.90718 12.8799 8.1095 12.9825 8.31575 12.9825C8.43076 12.9825 8.54606 12.9515 8.65023 12.8849C8.94106 12.6995 9.02729 12.3127 8.84229 12.0214L7.59798 10.0659L8.84229 8.11029C9.02729 7.81904 8.94106 7.43227 8.65023 7.24685C8.35981 7.06185 7.97343 7.14724 7.7876 7.43891L6.85661 8.90131L5.92562 7.43809C5.80973 7.2558 5.61513 7.15454 5.41455 7.14919ZM13.1237 9.58328C13.0409 9.5821 12.9587 9.59741 12.8818 9.62829C12.8049 9.65917 12.735 9.70502 12.676 9.76318C12.617 9.82133 12.5702 9.89062 12.5382 9.96703C12.5063 10.0434 12.4898 10.1254 12.4898 10.2083C12.4898 10.2911 12.5063 10.3731 12.5382 10.4495C12.5702 10.5259 12.617 10.5952 12.676 10.6534C12.735 10.7115 12.8049 10.7574 12.8818 10.7883C12.9587 10.8191 13.0409 10.8344 13.1237 10.8333H14.7904C14.8732 10.8344 14.9554 10.8191 15.0323 10.7883C15.1091 10.7574 15.1791 10.7115 15.2381 10.6534C15.297 10.5952 15.3439 10.5259 15.3758 10.4495C15.4078 10.3731 15.4243 10.2911 15.4243 10.2083C15.4243 10.1254 15.4078 10.0434 15.3758 9.96703C15.3439 9.89062 15.297 9.82133 15.2381 9.76318C15.1791 9.70502 15.1091 9.65917 15.0323 9.62829C14.9554 9.59741 14.8732 9.5821 14.7904 9.58328H13.1237ZM13.1237 12.9166C13.0409 12.9154 12.9587 12.9307 12.8818 12.9616C12.8049 12.9925 12.735 13.0384 12.676 13.0965C12.617 13.1547 12.5702 13.224 12.5382 13.3004C12.5063 13.3768 12.4898 13.4588 12.4898 13.5416C12.4898 13.6244 12.5063 13.7064 12.5382 13.7829C12.5702 13.8593 12.617 13.9286 12.676 13.9867C12.735 14.0449 12.8049 14.0907 12.8818 14.1216C12.9587 14.1525 13.0409 14.1678 13.1237 14.1666H14.7904C14.8732 14.1678 14.9554 14.1525 15.0323 14.1216C15.1091 14.0907 15.1791 14.0449 15.2381 13.9867C15.297 13.9286 15.3439 13.8593 15.3758 13.7829C15.4078 13.7064 15.4243 13.6244 15.4243 13.5416C15.4243 13.4588 15.4078 13.3768 15.3758 13.3004C15.3439 13.224 15.297 13.1547 15.2381 13.0965C15.1791 13.0384 15.1091 12.9925 15.0323 12.9616C14.9554 12.9307 14.8732 12.9154 14.7904 12.9166H13.1237Z" fill="#171719"/>
</svg>
