<svg width="30" height="30" viewBox="0 0 30 30" fill="none" xmlns="http://www.w3.org/2000/svg">
<g clip-path="url(#clip0_3528_73585)">
<path d="M4.73438 14.2109H25.2607V25.2636C25.2607 26.132 24.5502 26.8425 23.6817 26.8425H6.31332C5.4449 26.8425 4.73438 26.132 4.73438 25.2636V14.2109Z" fill="#FFD759"/>
<path d="M9.86595 9.47461H20.1291C20.9423 9.47461 22.2291 9.87724 23.0581 11.0536L25.2607 14.2115H4.73438L6.93701 11.0536C7.61595 9.90882 9.06069 9.47461 9.86595 9.47461Z" fill="#FFB347"/>
<path d="M15.0041 6.10665C15.0041 4.48259 13.77 3.1582 12.2364 3.1582C10.7029 3.1582 9.46875 4.47292 9.46875 6.10665C9.46875 6.18398 9.4869 6.26132 9.4869 6.32899H9.46875C9.46875 9.58677 14.9951 12.6319 14.9951 12.6319C14.9951 12.6319 20.5214 9.57711 20.5214 6.32899H20.5032C20.5032 6.25165 20.5214 6.18398 20.5214 6.10665C20.5214 4.48259 19.2873 3.1582 17.7537 3.1582C16.2201 3.1582 14.986 4.47292 14.986 6.10665H15.0041Z" fill="#EE1762"/>
</g>
<defs>
<clipPath id="clip0_3528_73585">
<rect width="20.5263" height="23.6842" fill="white" transform="translate(4.73438 3.1582)"/>
</clipPath>
</defs>
</svg>
