<svg width="40" height="40" viewBox="0 0 40 40" fill="none" xmlns="http://www.w3.org/2000/svg">
<g clip-path="url(#clip0_3780_42555)">
<path d="M26.4513 0C28.8013 0.28 31.2913 2.76 31.2913 5.19V12.8L36.0913 8.04C37.6113 6.34 40.3213 8.52 39.2113 10.38C38.9513 10.82 37.2613 12.32 37.2313 12.47C37.2213 12.54 37.7713 13.13 37.7813 13.71C37.8013 14.95 35.6413 16.31 34.9313 17.26C34.4213 17.49 34.2013 17.14 34.5313 16.71C35.0913 15.98 36.5913 14.93 36.9813 14.24C37.1613 13.92 37.1413 13.63 37.0013 13.3C36.9713 13.22 36.8213 12.92 36.7213 12.97L31.2913 18.39V34.04H36.8713C37.2413 34.04 37.1613 34.83 37.1313 35.08C36.8813 37.6 34.6613 39.7 32.1713 39.96H10.1813C7.04129 39.66 4.64129 37.08 4.52129 33.92V4.34C4.26129 2.59 2.90129 1.12 1.18129 0.72C0.691288 0.61 -0.398712 0.76 0.151289 0L26.4513 0ZM26.0613 18.03H8.15129C7.91129 18.03 7.91129 17.41 8.15129 17.41H26.7213L30.5713 13.53L30.5913 5.04C30.5213 3.01 28.2113 0.63 26.1813 0.63H2.73129L3.43129 1.14C4.52129 2.08 5.11129 3.37 5.22129 4.81V34.39C5.68129 40.32 14.7213 41.19 15.6713 35.16C15.7113 34.92 15.5813 34.04 16.0313 34.04H30.5913V19.13L24.1513 25.53L22.1613 26.39H27.4313C27.9313 26.39 27.8713 27.21 27.2813 27.1H8.46129C7.73129 27.11 7.82129 26.33 8.54129 26.39H19.9213C20.1213 26.35 21.0613 22.91 21.5313 22.57H8.15129C7.91129 22.57 7.91129 21.95 8.15129 21.95H22.2013L26.0613 18.05V18.03ZM37.2813 8.06C36.6913 8.16 36.1113 9.04 35.6613 9.41C35.9513 9.63 37.2913 11.17 37.4913 11.17C37.9613 10.79 38.8813 10.07 38.8613 9.41C38.8413 8.75 37.9313 7.95 37.2813 8.06ZM35.1713 9.92L22.0113 23.06L23.8413 24.89L36.9513 11.78L36.9913 11.66C36.9913 11.59 36.9513 11.55 36.9113 11.5C36.8113 11.35 35.5313 10.08 35.3913 9.98C35.3113 9.93 35.2813 9.89 35.1713 9.91V9.92ZM23.2513 25.29C23.2813 25.17 23.2213 25.16 23.1713 25.09C23.0513 24.91 21.9813 23.85 21.8013 23.72C21.7313 23.67 21.7213 23.61 21.6013 23.64L20.7413 26.14L23.2413 25.28L23.2513 25.29ZM36.5213 34.73H16.4213C16.2313 34.88 16.3313 35.15 16.2813 35.37C16.0013 36.69 15.3913 37.74 14.3913 38.63L13.4113 39.33H32.0213C32.2713 39.33 32.9413 39.13 33.2113 39.04C35.0613 38.4 36.3413 36.67 36.5113 34.73H36.5213Z" fill="#272727"/>
<path d="M36.5219 34.7305C36.3519 36.6705 35.0719 38.4005 33.2219 39.0405C32.9519 39.1305 32.2819 39.3305 32.0319 39.3305H13.4219L14.4019 38.6305C15.4019 37.7405 16.0119 36.6905 16.2919 35.3705C16.3419 35.1405 16.2319 34.8805 16.4319 34.7305H36.5319H36.5219Z" fill="#FFA938"/>
<path d="M35.1678 9.92036C35.2778 9.89036 35.3078 9.93036 35.3878 9.99036C35.5378 10.0904 36.8178 11.3704 36.9078 11.5104C36.9378 11.5604 36.9878 11.6004 36.9878 11.6704L36.9478 11.7904L23.8378 24.9004L22.0078 23.0704L35.1678 9.93036V9.92036Z" fill="#FFA938"/>
<path d="M37.2762 8.05991C37.9262 7.94991 38.8363 8.75991 38.8563 9.40991C38.8763 10.0599 37.9563 10.7899 37.4863 11.1699C37.2863 11.1699 35.9363 9.62991 35.6562 9.40991C36.1062 9.03991 36.6862 8.15991 37.2762 8.05991Z" fill="#FFA938"/>
<path d="M23.25 25.2896L20.75 26.1496L21.61 23.6496C21.73 23.6196 21.74 23.6796 21.81 23.7296C21.99 23.8496 23.05 24.9196 23.18 25.0996C23.23 25.1696 23.29 25.1796 23.26 25.2996L23.25 25.2896Z" fill="#FFA938"/>
<path d="M27.6834 12.9704C27.9434 13.2304 27.6534 13.6704 27.2734 13.5804H8.46344C7.79344 13.6304 7.79344 12.8204 8.46344 12.8704H27.2834C27.4034 12.8704 27.6034 12.8804 27.6934 12.9704H27.6834Z" fill="#272727"/>
<path d="M8.14841 9.04984C7.85841 8.96984 7.88841 8.49984 8.25841 8.37984L27.2684 8.33984C27.9984 8.42984 27.7284 9.03984 27.5784 9.03984H8.14841V9.04984Z" fill="#272727"/>
<path d="M27.5079 30.9104C27.8979 30.9704 27.8879 31.5404 27.2779 31.6104L8.26786 31.5704C7.80786 31.4304 7.96786 30.9004 8.15786 30.9004H27.5179L27.5079 30.9104Z" fill="#272727"/>
</g>
<defs>
<clipPath id="clip0_3780_42555">
<rect width="39.47" height="39.96" fill="white"/>
</clipPath>
</defs>
</svg>
