<svg width="28" height="28" viewBox="0 0 28 28" fill="none" xmlns="http://www.w3.org/2000/svg">
<g clip-path="url(#clip0_3528_70574)">
<rect width="28" height="28" rx="14" fill="#A1A1A1"/>
<g clip-path="url(#clip1_3528_70574)">
<path d="M28 0H0V28H28V0Z" fill="black"/>
<path d="M20.2828 19.9794L15.3633 12.8324L14.8069 12.0241L11.2877 6.91146L10.9962 6.48792H6.67188L7.72662 8.02066L12.4056 14.8193L12.9619 15.6268L16.7217 21.0893L17.0132 21.5125H21.3376L20.2828 19.9797V19.9794ZM17.5272 20.5338L13.6213 14.8588L13.065 14.0509L8.53256 7.46586H10.4822L14.1475 12.7913L14.7039 13.5992L19.4769 20.5338H17.5272Z" fill="white"/>
<path d="M13.0662 14.0509L13.6226 14.8588L12.9631 15.6264L7.90376 21.5121H6.65625L12.4068 14.8188L13.0662 14.0509Z" fill="white"/>
<path d="M20.8178 6.48792L15.3642 12.8324L14.7048 13.5996L14.1484 12.7917L14.8078 12.0241L18.5022 7.72445L19.5702 6.48792H20.8178Z" fill="white"/>
</g>
</g>
<defs>
<clipPath id="clip0_3528_70574">
<rect width="28" height="28" rx="14" fill="white"/>
</clipPath>
<clipPath id="clip1_3528_70574">
<rect width="28" height="28" fill="white"/>
</clipPath>
</defs>
</svg>
