<svg width="35" height="40" viewBox="0 0 35 40" fill="none" xmlns="http://www.w3.org/2000/svg">
<g clip-path="url(#clip0_4462_136094)">
<path d="M24.4206 3.20312H4.83407C3.64217 3.20312 2.22908 4.75621 2.2168 5.94529L2.25366 34.1677L4.61289 36.4852C4.78492 36.5216 6.32088 34.7623 6.65265 34.5439C6.97213 34.3255 7.18102 34.3255 7.48821 34.5439C7.83226 34.7865 9.30679 36.461 9.46653 36.4852C10.0318 36.2183 11.3097 34.4589 11.8135 34.3983C11.9118 34.3861 11.9978 34.3983 12.0961 34.4104C12.5876 34.5196 13.8164 36.2183 14.3816 36.4852C14.5536 36.461 16.0159 34.7865 16.3599 34.5439C16.6671 34.3376 16.876 34.3255 17.1955 34.5439C17.5395 34.7865 19.0141 36.461 19.1738 36.4852C19.739 36.2183 21.0169 34.4589 21.5207 34.3983C21.7542 34.374 21.8648 34.4225 22.0491 34.5439C22.3809 34.7623 23.9168 36.5216 24.0889 36.4852L26.485 34.0585V20.8937V5.94529C26.5587 5.15661 26.829 4.3922 27.2959 3.737C27.3574 3.65206 27.7997 3.28806 27.7137 3.20312H24.4083H24.4206ZM5.07983 11.6116C5.38702 11.551 7.54965 11.551 7.85684 11.6116C8.45894 11.7451 8.44665 12.6915 7.7954 12.7886C7.35305 12.8614 5.59591 12.8492 5.16584 12.7764C4.46544 12.6551 4.51459 11.733 5.09211 11.6116H5.07983ZM5.07983 18.8189C5.38702 18.7582 7.54965 18.7582 7.85684 18.8189C8.45894 18.9524 8.44665 19.8988 7.7954 19.9958C7.41448 20.0565 5.42388 20.0565 5.07983 19.9958C4.5023 19.8624 4.5023 18.9524 5.07983 18.831V18.8189ZM5.07983 15.2153C5.84166 15.0454 7.11958 15.2881 7.93057 15.2153C8.45894 15.4943 8.40979 16.2951 7.7954 16.3922C7.41448 16.4529 5.42388 16.4529 5.07983 16.3922C4.5023 16.2587 4.5023 15.3487 5.07983 15.2274V15.2153ZM7.7954 30.7825C7.41448 30.8432 5.42388 30.8432 5.07983 30.7825C4.5023 30.649 4.5023 29.739 5.07983 29.6177C5.38702 29.557 7.54965 29.557 7.85684 29.6177C8.45894 29.7512 8.44665 30.6976 7.7954 30.7946V30.7825ZM7.7954 27.191C7.41448 27.2517 5.42388 27.2517 5.07983 27.191C4.51459 27.0697 4.5023 26.2567 5.0061 26.0262H7.93057C8.48351 26.281 8.3975 27.1061 7.7954 27.2031V27.191ZM7.7954 23.5874C7.32847 23.6602 5.79251 23.648 5.28872 23.5874C5.16584 23.5752 4.9078 23.5024 4.82178 23.4175C4.5023 23.102 4.66204 22.4711 5.14126 22.3983C5.53447 22.3376 7.5005 22.3255 7.86913 22.3983C8.44665 22.5075 8.45894 23.4903 7.7954 23.5874ZM7.64795 8.00798C6.95984 7.94731 6.86154 7.0373 7.51279 6.8189H21.0907C21.8525 6.87957 21.8648 7.92304 21.0907 8.00798H7.64795ZM16.2247 30.7946C14.3079 31.013 11.9609 30.6369 10.0072 30.7946C9.36822 30.6976 9.33136 29.7997 9.94575 29.6177H16.2985C16.9743 29.7148 16.9989 30.7097 16.2247 30.8068V30.7946ZM16.2247 27.191C14.3079 27.4094 11.9609 27.0333 10.0072 27.191C9.36822 27.0939 9.33136 26.196 9.94575 26.014H16.2985C16.9743 26.1111 16.9989 27.1061 16.2247 27.2031V27.191ZM16.2247 23.5995C14.3079 23.8179 11.9609 23.4417 10.0072 23.5995C9.36822 23.5024 9.33136 22.6045 9.94575 22.4225H16.2985C16.9743 22.5196 16.9989 23.5146 16.2247 23.6116V23.5995ZM16.2247 19.9958C14.3079 20.2142 11.9609 19.8381 10.0072 19.9958C9.36822 19.8988 9.33136 19.0009 9.94575 18.8189H16.2985C16.9743 18.916 16.9989 19.9109 16.2247 20.008V19.9958ZM20.6975 23.7451C21.1521 24.3154 21.8156 24.1334 22.4546 24.3396C24.7155 25.0919 24.5435 28.283 22.2949 28.9139C22.1351 29.4721 22.5898 30.7582 21.6928 30.7946C20.7098 30.831 21.1644 29.4842 21.0169 28.9139C20.0831 28.647 19.2229 27.7006 19.2229 26.7057C19.2229 26.1718 19.5916 25.8199 20.1199 26.0504C20.636 26.2688 20.2305 27.2274 21.0784 27.6521C22.258 28.2466 23.4376 26.8755 22.6143 25.832C22.1597 25.2496 21.5945 25.4559 20.9678 25.286C18.6331 24.643 18.7314 21.3184 21.0292 20.6632C21.189 20.1414 20.7712 18.9524 21.4962 18.7946C22.6021 18.552 22.1843 20.0565 22.3071 20.6632C23.0321 20.9059 23.6957 21.464 23.9414 22.192C24.1011 22.6652 24.2855 23.4782 23.5974 23.5752C22.7126 23.7087 23.0075 22.7623 22.6512 22.2648C21.7296 20.9787 19.6776 22.4104 20.7098 23.733L20.6975 23.7451ZM23.5113 16.4043H10.0686C9.38051 16.3437 9.28221 15.4337 9.93346 15.2153H23.5113C24.2732 15.2759 24.2855 16.3194 23.5113 16.4043ZM23.5113 12.8007H10.0686C9.38051 12.74 9.28221 11.83 9.93346 11.6116H23.5113C24.2732 11.6723 24.2855 12.7158 23.5113 12.8007Z" fill="white"/>
<path d="M27.7257 6.09201L27.7012 17.6067H33.7959V5.78867C33.3904 2.37917 27.9838 2.26997 27.7135 6.07987L27.7257 6.09201Z" fill="#B4D5FB"/>
<path d="M31.0311 2H24.4203H4.91977C2.80629 2.23054 1.15974 3.83215 1 5.93124V34.4934C1.01229 34.639 1.11059 34.724 1.1966 34.8332C1.58981 35.3549 3.66643 37.4055 4.1948 37.7937C4.52656 38.0364 4.72317 38.0607 5.06722 37.8301C5.41128 37.5875 6.8858 35.913 7.04554 35.8888C7.61077 36.1557 8.88869 37.9151 9.39248 37.9757C9.62595 38 9.73654 37.9515 9.92085 37.8301C10.2649 37.5875 11.7394 35.913 11.8992 35.8888C12.4644 36.1557 13.7423 37.9151 14.2461 37.9757C14.4796 38 14.5902 37.9515 14.7745 37.8301C15.1063 37.6117 16.6422 35.8524 16.8142 35.8888C17.318 36.2042 18.596 37.8665 19.0383 37.9636C19.1366 37.9879 19.2226 37.9879 19.3209 37.9757C19.837 37.9151 21.1026 36.1557 21.6679 35.8888C21.8399 35.913 23.3021 37.5996 23.6462 37.8301C23.9902 38.0728 24.1991 38.0364 24.5186 37.7937C24.9733 37.454 27.1973 35.27 27.5168 34.8332C27.566 34.7604 27.6274 34.6876 27.652 34.5905L27.6765 20.8675V18.817H32.5302C33.1814 18.8413 33.8327 18.8413 34.4225 18.7806C34.7051 18.7442 34.8894 18.6229 34.9754 18.3559V5.79778C34.7542 3.75935 33.0708 2.16987 31.0065 2H31.0311ZM27.3079 3.73509C26.841 4.37816 26.5829 5.1547 26.4969 5.94338V20.8918V34.0566L24.1008 36.4833C23.9288 36.5197 22.3928 34.7604 22.0611 34.542C21.8768 34.4206 21.7662 34.36 21.5327 34.3964C21.0166 34.457 19.751 36.2164 19.1858 36.4833C19.0137 36.459 17.5515 34.7846 17.2074 34.542C16.888 34.3236 16.6791 34.3357 16.3719 34.542C16.0278 34.7846 14.5533 36.459 14.3936 36.4833C13.8283 36.2164 12.5996 34.5056 12.1081 34.4085C12.0098 34.3842 11.9237 34.3842 11.8254 34.3964C11.3094 34.457 10.0437 36.2164 9.4785 36.4833C9.30647 36.459 7.84424 34.7846 7.50018 34.542C7.19299 34.3236 6.9841 34.3236 6.66462 34.542C6.33285 34.7604 4.79689 36.5197 4.62486 36.4833L2.26563 34.1658L2.22877 5.94338C2.22877 4.7543 3.65414 3.20121 4.84604 3.20121H27.738C27.8363 3.28615 27.3939 3.63802 27.3202 3.73509H27.3079ZM33.7958 17.5915H27.7011L27.7257 6.07685C27.996 2.2548 33.3903 2.37614 33.8081 5.78564V17.5915H33.7958Z" fill="#1B68E4"/>
<path d="M22.6382 22.2754C22.9946 22.7729 22.6874 23.7193 23.5844 23.5858C24.2848 23.4888 24.1005 22.6637 23.9284 22.2026C23.6827 21.4746 23.0191 20.9165 22.2942 20.6738C22.159 20.0671 22.5891 18.5747 21.4832 18.8052C20.7582 18.963 21.176 20.152 21.0163 20.6738C18.7185 21.329 18.6202 24.6536 20.9548 25.2966C21.5815 25.4665 22.1467 25.2602 22.6014 25.8426C23.4246 26.8861 22.245 28.2572 21.0654 27.6627C20.2298 27.238 20.6353 26.2794 20.107 26.061C19.5786 25.8305 19.21 26.1824 19.21 26.7163C19.21 27.7112 20.0701 28.6576 21.004 28.9245C21.1637 29.4948 20.6968 30.8538 21.6798 30.8052C22.5768 30.7688 22.1221 29.4827 22.2819 28.9245C24.5305 28.2936 24.6903 25.1025 22.4416 24.3502C21.8027 24.144 21.1514 24.326 20.6845 23.7557C19.64 22.4331 21.7044 21.0014 22.6259 22.2875L22.6382 22.2754Z" fill="#1B68E4"/>
<path d="M21.0899 6.80469H7.51201C6.86076 7.03522 6.94677 7.94523 7.64717 8.0059H21.0899C21.864 7.9331 21.8517 6.87749 21.0899 6.80469Z" fill="#1B68E4"/>
<path d="M23.5112 11.5938H9.9456C9.29435 11.8243 9.38037 12.7343 10.0808 12.795H23.5235C24.2976 12.7222 24.2853 11.6666 23.5235 11.5938H23.5112Z" fill="#1B68E4"/>
<path d="M23.5112 15.1875H9.9456C9.29435 15.418 9.38037 16.328 10.0808 16.3887H23.5235C24.2976 16.3159 24.2853 15.2603 23.5235 15.1875H23.5112Z" fill="#1B68E4"/>
<path d="M16.2986 18.8012H9.94587C9.33148 18.9953 9.36835 19.8932 10.0073 19.9903C11.9733 19.8325 14.308 20.2208 16.2249 19.9903C16.999 19.9053 16.9621 18.8983 16.2986 18.7891V18.8012Z" fill="#1B68E4"/>
<path d="M16.2986 22.3949H9.94587C9.33148 22.5891 9.36835 23.487 10.0073 23.584C11.9733 23.4263 14.308 23.8146 16.2249 23.584C16.999 23.4991 16.9621 22.492 16.2986 22.3828V22.3949Z" fill="#1B68E4"/>
<path d="M16.2986 25.9965H9.94587C9.33148 26.1906 9.36835 27.0885 10.0073 27.1856C11.9733 27.0279 14.308 27.4161 16.2249 27.1856C16.999 27.1007 16.9621 26.0936 16.2986 25.9844V25.9965Z" fill="#1B68E4"/>
<path d="M16.2986 29.5903H9.94587C9.33148 29.7844 9.36835 30.6823 10.0073 30.7793C11.9733 30.6216 14.308 31.0099 16.2249 30.7793C16.999 30.6944 16.9621 29.6873 16.2986 29.5781V29.5903Z" fill="#1B68E4"/>
<path d="M7.93033 26.0121H5.00586C4.51435 26.2427 4.52664 27.0556 5.07959 27.1769C5.42364 27.2497 7.41425 27.2497 7.79516 27.1769C8.39726 27.0799 8.48327 26.2427 7.93033 26V26.0121Z" fill="#1B68E4"/>
<path d="M5.07962 16.3774C5.42368 16.4502 7.41428 16.4502 7.7952 16.3774C8.40959 16.2803 8.47102 15.4674 7.93037 15.2004C7.10709 15.2854 5.84146 15.0306 5.07962 15.2004C4.5021 15.3339 4.5021 16.2439 5.07962 16.3652V16.3774Z" fill="#1B68E4"/>
<path d="M5.07962 19.9803C5.42368 20.0531 7.41428 20.0531 7.7952 19.9803C8.44645 19.8832 8.45874 18.9368 7.85664 18.8033C7.56174 18.7426 5.38682 18.7426 5.07962 18.8033C4.5021 18.9368 4.5021 19.8468 5.07962 19.9681V19.9803Z" fill="#1B68E4"/>
<path d="M7.85664 29.6002C7.56174 29.5395 5.38682 29.5395 5.07962 29.6002C4.5021 29.7337 4.5021 30.6437 5.07962 30.765C5.42368 30.8378 7.41428 30.8378 7.7952 30.765C8.44645 30.6679 8.45874 29.7215 7.85664 29.5881V29.6002Z" fill="#1B68E4"/>
<path d="M5.15341 12.7728C5.58348 12.8456 7.35291 12.8577 7.78298 12.7849C8.43422 12.6879 8.44651 11.7415 7.84442 11.608C7.54951 11.5473 5.37459 11.5473 5.0674 11.608C4.48988 11.7293 4.44073 12.6515 5.14113 12.7728H5.15341Z" fill="#1B68E4"/>
<path d="M7.86892 22.3939C7.50029 22.3211 5.53426 22.3332 5.14105 22.3939C4.64955 22.4667 4.50209 23.0976 4.82157 23.4131C4.90759 23.498 5.16563 23.5709 5.2885 23.583C5.78001 23.6315 7.31597 23.6558 7.79519 23.583C8.45872 23.4738 8.44644 22.5031 7.86892 22.3939Z" fill="#1B68E4"/>
</g>
<defs>
<clipPath id="clip0_4462_136094">
<rect width="34" height="36" fill="white" transform="translate(1 2)"/>
</clipPath>
</defs>
</svg>
