<svg width="35" height="40" viewBox="0 0 35 40" fill="none" xmlns="http://www.w3.org/2000/svg">
<g clip-path="url(#clip0_4462_136078)">
<path d="M19.5002 0C19.9251 0.195265 20.2316 0.539849 20.5544 0.865638C23.0613 3.40303 25.5651 5.94252 28.0821 8.46947C28.4938 8.88193 28.6746 9.33824 28.6726 9.92508C28.6603 13.6612 28.6695 17.3973 28.6593 21.1345C28.6593 21.4321 28.7492 21.5532 29.0209 21.6566C32.9314 23.1425 35.381 27.2034 34.952 31.4647C34.4402 36.5416 30.1538 40.2945 25.1748 39.9812C22.6486 39.8225 20.5176 38.7553 18.8198 36.8288C18.5992 36.5782 18.3836 36.4957 18.068 36.4957C12.617 36.504 7.16611 36.4832 1.71619 36.5166C0.517927 36.5249 -0.00203708 35.7574 5.99613e-06 34.7446C0.0224799 25.02 0.013286 15.2943 0.013286 5.56974C0.013286 4.38562 0.536315 3.84682 1.68453 3.84682C2.28315 3.84682 2.88177 3.83742 3.48039 3.85204C3.71228 3.85726 3.79298 3.78939 3.78583 3.54609C3.76949 2.9864 3.80933 2.42462 3.7746 1.86702C3.71943 0.99303 4.01364 0.351894 4.82576 0.0010442H19.5012L19.5002 0ZM18.8801 24.1073H18.3275C14.5702 24.1073 10.812 24.1073 7.05476 24.1063C6.89029 24.1063 6.72174 24.1073 6.56136 24.075C6.33253 24.029 6.21199 23.8557 6.21506 23.6249C6.21812 23.4119 6.33253 23.2469 6.54297 23.1999C6.70233 23.1644 6.87088 23.1592 7.03535 23.1592C11.2002 23.1571 15.366 23.1571 19.5308 23.1592C19.7402 23.1592 19.916 23.1258 20.0947 22.989C22.2655 21.3308 24.6937 20.7168 27.3671 21.1888C27.7123 21.2494 27.7552 21.1721 27.7542 20.8484C27.743 17.3201 27.7409 13.7907 27.7573 10.2624C27.7593 9.88644 27.6408 9.82275 27.3099 9.82484C25.1064 9.83841 22.9029 9.83215 20.6995 9.83215C19.5799 9.83215 19.0476 9.28081 19.0466 8.12593C19.0466 7.95677 19.0282 7.78448 19.0507 7.61845C19.1028 7.22897 18.9863 7.10053 18.5706 7.10262C14.6479 7.12141 10.7241 7.1141 6.80142 7.11306C6.42754 7.11306 6.21506 6.94181 6.21199 6.65361C6.2079 6.36751 6.42651 6.18581 6.79018 6.17537C6.89234 6.17224 6.99347 6.17537 7.09562 6.17537C10.955 6.17537 14.8144 6.17224 18.6738 6.18164C18.9669 6.18164 19.0579 6.11481 19.0538 5.80051C19.0364 4.3167 19.0323 2.83186 19.0558 1.34806C19.0619 0.987809 18.9537 0.930378 18.6319 0.931422C14.3394 0.942909 10.0469 0.938732 5.75434 0.938732C5.57557 0.938732 5.39782 0.936643 5.21905 0.938732C4.91463 0.942909 4.74812 1.10894 4.71033 1.40966C4.69398 1.5381 4.69909 1.66967 4.69909 1.79915C4.69909 11.4872 4.69909 21.1742 4.69909 30.8622C4.69909 30.9531 4.695 31.045 4.70113 31.1358C4.72565 31.5556 4.88501 31.7174 5.30384 31.7185C8.94665 31.7206 12.5895 31.7185 16.2323 31.7258C16.4805 31.7258 16.5347 31.6527 16.5009 31.4136C16.3743 30.5145 16.4437 29.6176 16.6184 28.7352C16.6838 28.4053 16.6184 28.352 16.312 28.353C13.2044 28.3635 10.0959 28.3593 6.98836 28.3593C6.87395 28.3593 6.75749 28.3677 6.64512 28.351C6.38667 28.3134 6.21403 28.1567 6.21812 27.8863C6.22221 27.6023 6.38667 27.4321 6.67883 27.4227C6.78099 27.4195 6.88212 27.4206 6.98428 27.4206C10.194 27.4206 13.4036 27.4206 16.6133 27.4185C16.7655 27.4185 16.9392 27.4832 17.0209 27.2483C17.4173 26.1101 18.0353 25.1025 18.8801 24.1084V24.1073ZM25.7091 39.0665C30.3306 39.0707 34.0898 35.2322 34.0929 30.5041C34.0959 25.8303 30.3224 21.9636 25.7622 21.9657C21.1009 21.9678 17.3764 25.7749 17.3652 30.5479C17.3539 35.2082 21.1295 39.0623 25.7101 39.0665H25.7091ZM17.8545 35.5611C17.3805 34.731 16.9964 33.9384 16.7951 33.078C16.7114 32.7188 16.5571 32.6499 16.2251 32.651C12.6211 32.6635 9.01714 32.6593 5.41315 32.6572C5.2354 32.6572 5.05356 32.6604 4.88195 32.6217C4.17402 32.462 3.77357 31.8762 3.77357 31.0168C3.77357 22.5149 3.77357 14.0141 3.77357 5.51231C3.77357 5.40789 3.76336 5.30242 3.77562 5.20009C3.81239 4.90354 3.71535 4.78346 3.40071 4.79703C2.82865 4.82209 2.25454 4.8033 1.68146 4.80434C1.03789 4.80434 0.931651 4.91503 0.931651 5.58018C0.931651 15.3183 0.931651 25.0565 0.931651 34.7947C0.931651 35.4452 1.04504 35.559 1.69168 35.559C6.92605 35.559 12.1604 35.559 17.3948 35.559H17.8545V35.5611ZM27.1883 8.89341C24.7499 6.43016 22.3922 4.0473 20.0028 1.63417C19.9813 1.72814 19.966 1.7626 19.966 1.79602C19.965 3.9575 19.9619 6.11899 19.966 8.28047C19.966 8.70964 20.1509 8.88715 20.584 8.89133C21.246 8.89863 21.909 8.89341 22.5709 8.89341C24.0706 8.89341 25.5702 8.89341 27.1863 8.89341H27.1883Z" fill="#1F6FED"/>
<path d="M18.8802 24.1066C18.0354 25.1007 17.4173 26.1073 17.021 27.2465C16.9392 27.4815 16.7656 27.4168 16.6134 27.4168C13.4037 27.4199 10.194 27.4188 6.98434 27.4188C6.88218 27.4188 6.78003 27.4167 6.6789 27.4209C6.38674 27.4314 6.22227 27.6005 6.21818 27.8845C6.2141 28.155 6.38674 28.3106 6.64519 28.3492C6.75756 28.3659 6.87401 28.3576 6.98843 28.3576C10.0959 28.3576 13.2045 28.3617 16.312 28.3513C16.6175 28.3513 16.6839 28.4035 16.6185 28.7335C16.4438 29.6158 16.3733 30.5128 16.501 31.4118C16.5347 31.651 16.4806 31.7251 16.2323 31.7241C12.5895 31.7157 8.94672 31.7199 5.30391 31.7167C4.8861 31.7167 4.72674 31.5539 4.7012 31.1341C4.69609 31.0432 4.69915 30.9514 4.69915 30.8605C4.69915 21.1725 4.69915 11.4855 4.69915 1.79741C4.69915 1.66689 4.69405 1.53637 4.71039 1.40793C4.74819 1.1072 4.91572 0.941174 5.21912 0.936997C5.39789 0.934908 5.57564 0.936997 5.7544 0.936997C10.0469 0.936997 14.3394 0.941174 18.6319 0.929688C18.9537 0.929688 19.062 0.987118 19.0559 1.34632C19.0324 2.83012 19.0365 4.31497 19.0538 5.79877C19.0579 6.11307 18.966 6.1799 18.6738 6.1799C14.8144 6.16946 10.9551 6.17364 7.09569 6.17364C6.99353 6.17364 6.89138 6.17155 6.79025 6.17364C6.42658 6.18408 6.20797 6.36473 6.21205 6.65188C6.21614 6.93903 6.4276 7.11133 6.80148 7.11133C10.7242 7.11237 14.6479 7.11968 18.5706 7.10088C18.9854 7.09879 19.1029 7.22723 19.0508 7.61671C19.0283 7.78274 19.0467 7.95503 19.0467 8.12419C19.0467 9.27907 19.5799 9.83041 20.6995 9.83041C22.903 9.83041 25.1065 9.83772 27.3099 9.8231C27.6409 9.82101 27.7594 9.88471 27.7574 10.2606C27.741 13.789 27.7441 17.3183 27.7543 20.8467C27.7543 21.1704 27.7124 21.2476 27.3671 21.1871C24.6938 20.7151 22.2666 21.3291 20.0948 22.9873C19.916 23.1241 19.7393 23.1575 19.5309 23.1575C15.3661 23.1543 11.2002 23.1543 7.03542 23.1575C6.87095 23.1575 6.70239 23.1627 6.54303 23.1982C6.33158 23.2452 6.21716 23.4102 6.21512 23.6232C6.21205 23.854 6.33158 24.0273 6.56142 24.0732C6.7218 24.1056 6.89036 24.1046 7.05482 24.1046C10.812 24.1056 14.5703 24.1056 18.3275 24.1056H18.8802V24.1066ZM16.2528 10.4204C13.1197 10.4204 9.98664 10.4204 6.85358 10.4204C6.44497 10.4204 6.22533 10.5822 6.21103 10.8736C6.19673 11.1785 6.43066 11.3591 6.85256 11.3685C6.89036 11.3685 6.92918 11.3685 6.96697 11.3685C13.1309 11.3685 19.2949 11.3685 25.4599 11.3675C25.5988 11.3675 25.7419 11.3664 25.8777 11.3372C26.1055 11.2892 26.2261 11.1283 26.2271 10.8913C26.2281 10.6522 26.1025 10.4945 25.8777 10.4444C25.7429 10.4141 25.5999 10.4193 25.4599 10.4193C22.3902 10.4183 19.3215 10.4193 16.2517 10.4193L16.2528 10.4204ZM16.2538 14.6786C13.1585 14.6786 10.0643 14.6786 6.96902 14.6786C6.8546 14.6786 6.73917 14.6734 6.62578 14.6849C6.37039 14.7099 6.23351 14.877 6.21716 15.1213C6.20184 15.3542 6.33055 15.5223 6.55018 15.585C6.6697 15.6194 6.80148 15.6163 6.92815 15.6163C13.1309 15.6173 19.3327 15.6173 25.5355 15.6163C25.6499 15.6163 25.7684 15.6226 25.8767 15.5923C26.1127 15.5275 26.2485 15.3615 26.2261 15.1046C26.2046 14.8509 26.0565 14.7047 25.8062 14.6838C25.6928 14.6744 25.5774 14.6786 25.463 14.6786C22.3932 14.6786 19.3245 14.6786 16.2548 14.6786H16.2538ZM16.2538 19.8516C19.3235 19.8516 22.3922 19.8516 25.462 19.8516C25.5764 19.8516 25.6918 19.8578 25.8052 19.8463C26.0534 19.8223 26.2056 19.6782 26.225 19.4234C26.2465 19.1457 26.0933 18.9838 25.8399 18.9254C25.7429 18.9024 25.6377 18.9128 25.5355 18.9128C19.3327 18.9128 13.1309 18.9128 6.92815 18.9128C6.81374 18.9128 6.69524 18.9034 6.58594 18.9306C6.34894 18.989 6.20286 19.154 6.21716 19.4067C6.23146 19.6532 6.37448 19.815 6.62578 19.8442C6.73917 19.8578 6.8546 19.8505 6.96902 19.8505C10.0643 19.8505 13.1585 19.8505 16.2538 19.8505V19.8516Z" fill="white"/>
<path d="M25.7092 39.0695C21.1287 39.0654 17.353 35.2112 17.3643 30.551C17.3765 25.778 21.1011 21.9708 25.7613 21.9688C30.3225 21.9667 34.0961 25.8344 34.092 30.5071C34.0889 35.2342 30.3297 39.0737 25.7082 39.0695H25.7092ZM24.5457 34.0135C24.7613 34.0198 24.8818 33.858 25.0156 33.7212C26.8881 31.8082 28.7596 29.8942 30.632 27.9802C30.6954 27.9154 30.7618 27.8538 30.8169 27.7828C30.9845 27.5677 30.9835 27.3401 30.7965 27.1501C30.6085 26.96 30.3828 26.9694 30.1734 27.1313C30.0825 27.2012 30.0069 27.2921 29.9262 27.3746C28.2161 29.1225 26.502 30.8674 24.8011 32.6237C24.5917 32.8399 24.4793 32.8472 24.2678 32.6258C23.3168 31.6296 22.3484 30.6502 21.382 29.6697C21.1215 29.4045 20.8375 29.3763 20.6506 29.5924C20.4299 29.8482 20.4943 30.0895 20.7139 30.3129C21.858 31.4803 23.0001 32.6488 24.1422 33.8183C24.2546 33.9331 24.3761 34.0177 24.5467 34.0115L24.5457 34.0135Z" fill="white"/>
<path d="M17.8545 35.5599H17.3948C12.1604 35.5599 6.92604 35.5599 1.69167 35.5599C1.04503 35.5599 0.931641 35.4461 0.931641 34.7956C0.931641 25.0574 0.931641 15.3192 0.931641 5.58105C0.931641 4.9159 1.03788 4.80626 1.68145 4.80521C2.25453 4.80521 2.82864 4.82296 3.4007 4.7979C3.71534 4.78433 3.81238 4.90441 3.77561 5.20096C3.76335 5.30329 3.77356 5.40876 3.77356 5.51318C3.77356 14.015 3.77356 22.5158 3.77356 31.0177C3.77356 31.877 4.17401 32.4628 4.88194 32.6226C5.05355 32.6612 5.23539 32.6581 5.41314 32.6581C9.01713 32.6602 12.6211 32.6643 16.2251 32.6518C16.5561 32.6508 16.7114 32.7197 16.7951 33.0789C16.9954 33.9404 17.3795 34.7329 17.8545 35.562V35.5599Z" fill="#BDDAFE"/>
<path d="M27.1884 8.89206C25.5723 8.89206 24.0727 8.89206 22.5731 8.89206C21.9111 8.89206 21.2482 8.89728 20.5862 8.88997C20.1521 8.88475 19.9682 8.70828 19.9682 8.27912C19.9641 6.11763 19.9661 3.95615 19.9682 1.79466C19.9682 1.7602 19.9825 1.72679 20.005 1.63281C22.3933 4.04595 24.7521 6.4288 27.1905 8.89206H27.1884Z" fill="#BDDAFE"/>
<path d="M16.2523 10.4221C19.322 10.4221 22.3907 10.4221 25.4604 10.4221C25.6004 10.4221 25.7434 10.4179 25.8782 10.4471C26.103 10.4973 26.2297 10.6539 26.2276 10.8941C26.2266 11.1311 26.106 11.2919 25.8782 11.3399C25.7424 11.3681 25.6004 11.3702 25.4604 11.3702C19.2965 11.3713 13.1325 11.3713 6.9675 11.3713C6.9297 11.3713 6.89088 11.3713 6.85308 11.3713C6.43119 11.3619 6.19726 11.1812 6.21156 10.8763C6.22484 10.585 6.44447 10.4231 6.85411 10.4231C9.98717 10.421 13.1202 10.4231 16.2533 10.4231L16.2523 10.4221Z" fill="#1F6FED"/>
<path d="M16.2539 14.681C19.3236 14.681 22.3923 14.681 25.462 14.681C25.5765 14.681 25.6919 14.6758 25.8053 14.6862C26.0556 14.7081 26.2037 14.8543 26.2251 15.107C26.2476 15.3639 26.1117 15.5299 25.8758 15.5947C25.7675 15.6249 25.649 15.6187 25.5346 15.6187C19.3318 15.6187 13.13 15.6187 6.92722 15.6187C6.80055 15.6187 6.66877 15.6218 6.54925 15.5874C6.32962 15.5247 6.19988 15.3555 6.21623 15.1237C6.23257 14.8794 6.36946 14.7123 6.62484 14.6873C6.73823 14.6758 6.85367 14.681 6.96808 14.681C10.0633 14.681 13.1576 14.681 16.2529 14.681H16.2539Z" fill="#1F6FED"/>
<path d="M16.2534 19.8541C13.1581 19.8541 10.0639 19.8541 6.96863 19.8541C6.85422 19.8541 6.73878 19.8604 6.62539 19.8479C6.37409 19.8186 6.23006 19.6568 6.21678 19.4103C6.20248 19.1587 6.34958 18.9927 6.58555 18.9342C6.69486 18.907 6.81336 18.9164 6.92777 18.9164C13.1306 18.9164 19.3323 18.9164 25.5351 18.9164C25.6373 18.9164 25.7425 18.906 25.8395 18.929C26.0939 18.9874 26.2461 19.1493 26.2247 19.427C26.2052 19.6818 26.053 19.8259 25.8048 19.8499C25.6914 19.8614 25.576 19.8552 25.4616 19.8552C22.3918 19.8552 19.3231 19.8552 16.2534 19.8552V19.8541Z" fill="#1F6FED"/>
<path d="M24.5452 34.011C24.3756 34.0183 24.253 33.9327 24.1406 33.8178C22.9986 32.6483 21.8554 31.4799 20.7123 30.3124C20.4927 30.089 20.4273 29.8478 20.649 29.592C20.836 29.3758 21.1199 29.404 21.3804 29.6692C22.3468 30.6508 23.3152 31.6292 24.2663 32.6253C24.4777 32.8467 24.5901 32.8394 24.7995 32.6233C26.5004 30.8659 28.2145 29.1221 29.9246 27.3741C30.0053 27.2916 30.0809 27.2007 30.1718 27.1308C30.3802 26.9689 30.607 26.9585 30.7949 27.1496C30.9819 27.3396 30.9829 27.5673 30.8154 27.7824C30.7602 27.8534 30.6938 27.915 30.6305 27.9797C28.759 29.8937 26.8865 31.8077 25.0141 33.7207C24.8802 33.8575 24.7597 34.0193 24.5441 34.0131L24.5452 34.011Z" fill="#1F6FED"/>
</g>
<defs>
<clipPath id="clip0_4462_136078">
<rect width="35" height="40" fill="white"/>
</clipPath>
</defs>
</svg>
