<svg width="35" height="40" viewBox="0 0 35 40" fill="none" xmlns="http://www.w3.org/2000/svg">
<g clip-path="url(#clip0_4462_136057)">
<path d="M20.2563 0C20.6803 0.181709 21.0067 0.486646 21.33 0.806203C23.9582 3.40234 26.5885 5.99535 29.2304 8.57896C29.6512 8.99042 29.8444 9.44365 29.8433 10.0337C29.8307 14.0574 29.8391 18.08 29.8307 22.1038C29.8307 22.392 29.8937 22.5591 30.1729 22.7105C33.6996 24.6205 35.4671 28.4594 34.893 32.0789C34.2443 36.1726 31.2802 39.2011 27.3232 39.8569C24.1618 40.3812 21.4318 39.4716 19.1405 37.2545C18.9443 37.0655 18.7553 36.9903 18.4877 36.9914C12.9258 36.9976 7.36506 36.9966 1.80322 36.9966C0.532154 36.9966 0.0115512 36.4828 0.0115512 35.2265C0.0115512 25.3672 0.019948 15.5111 5.57302e-06 5.65386C-0.00209363 4.61791 0.588832 3.81693 1.78748 3.89943C2.39939 3.94121 3.01761 3.8963 3.63163 3.91196C3.86884 3.91823 3.95175 3.85766 3.94336 3.61016C3.92551 3.05041 3.9696 2.48858 3.93076 1.93092C3.86779 1.03491 4.15748 0.364462 5.0213 0L20.2563 0ZM28.8924 22.1006C28.8924 21.9544 28.8924 21.8395 28.8924 21.7236C28.8924 17.9338 28.8871 14.1451 28.9018 10.3553C28.9029 10.0044 28.8105 9.9282 28.4694 9.93029C26.1004 9.94596 23.7315 9.94074 21.3636 9.9376C20.6194 9.9376 20.0568 9.5533 19.9004 8.88494C19.8364 8.6082 19.7189 8.57792 19.4817 8.57896C17.9377 8.58732 16.3927 8.58523 14.8487 8.5821C14.4299 8.5821 14.2137 8.41396 14.2106 8.11007C14.2074 7.80304 14.4152 7.64535 14.8414 7.64535C16.2415 7.64327 17.6417 7.64535 19.0419 7.64535C19.8574 7.64535 19.8427 7.64535 19.8543 6.81722C19.8585 6.51333 19.7556 6.44963 19.4722 6.45276C17.9807 6.46529 16.4882 6.45902 14.9967 6.45798C14.854 6.45798 14.707 6.45798 14.5685 6.42874C14.3355 6.37861 14.2095 6.21674 14.2127 5.97969C14.2158 5.74263 14.3449 5.5839 14.579 5.54004C14.7322 5.51184 14.8907 5.5108 15.0471 5.50975C16.5123 5.50766 17.9786 5.49826 19.4439 5.51602C19.7787 5.52019 19.8574 5.41472 19.8532 5.09621C19.8354 3.85975 19.8333 2.62225 19.8532 1.38475C19.8585 1.04013 19.7839 0.928387 19.4113 0.930475C14.8435 0.945096 10.2767 0.939874 5.70879 0.939874C5.00765 0.939874 4.88065 1.06415 4.88065 1.75025C4.88065 5.77396 4.88065 9.79767 4.88065 13.8214C4.88065 19.681 4.88065 25.5416 4.88065 31.4012C4.88065 31.9808 5.0171 32.1447 5.5335 32.1458C9.10635 32.1489 12.6792 32.1458 16.252 32.151C16.485 32.151 16.5648 32.1124 16.5323 31.8461C16.3948 30.712 16.462 29.5862 16.759 28.4792C16.8377 28.1868 16.9248 27.8976 17.0161 27.5811C16.2909 27.5811 15.6118 27.5811 14.9316 27.5811C14.432 27.5811 14.2169 27.4422 14.2095 27.1206C14.2022 26.7937 14.4215 26.6433 14.9106 26.6423C15.6569 26.6413 16.4021 26.6433 17.1484 26.6402C17.2848 26.6402 17.4297 26.6799 17.5231 26.5086C17.7068 26.1692 17.9104 25.8413 18.1329 25.4633C17.9608 25.4633 17.8348 25.4633 17.7089 25.4633C16.7537 25.4633 15.7986 25.4654 14.8424 25.4622C14.4268 25.4601 14.2095 25.291 14.2085 24.986C14.2085 24.679 14.4142 24.5255 14.8445 24.5244C16.0621 24.5224 17.2785 24.5161 18.4961 24.5297C18.791 24.5328 18.9988 24.4503 19.2172 24.2414C21.3415 22.2113 23.8711 21.331 26.81 21.6328C27.5143 21.7048 28.1891 21.8959 28.8913 22.1017L28.8924 22.1006ZM18.1088 36.041C17.5451 35.1972 17.1222 34.3796 16.8755 33.4856C16.7905 33.1786 16.653 33.0898 16.336 33.0919C12.803 33.1045 9.27008 33.1003 5.73713 33.0992C4.45871 33.0992 3.93496 32.5719 3.93496 31.2895C3.93496 25.7432 3.93496 20.1958 3.93496 14.6495C3.93496 11.5511 3.93601 8.45156 3.93496 5.35311C3.93496 4.77456 4.00004 4.84975 3.4448 4.84557C2.89481 4.8414 2.34586 4.84453 1.79587 4.84557C1.08529 4.84557 0.956192 4.97402 0.956192 5.69042C0.956192 15.534 0.956192 25.3776 0.956192 35.2202C0.956192 35.9283 1.06745 36.04 1.76543 36.04C7.05228 36.04 12.3381 36.04 17.6249 36.04H18.1098L18.1088 36.041ZM23.615 31.3156C21.7677 29.84 21.7761 27.5519 22.938 26.1358C24.1629 24.6445 26.3712 24.3824 27.9047 25.5489C28.6552 26.1201 29.1285 26.8741 29.2723 27.7973C29.4938 29.2196 28.9847 30.3851 27.8438 31.3177C30.0333 31.9641 31.6507 33.2444 32.7801 35.1784C33.9263 33.2966 34.322 31.303 33.8885 29.1883C32.7108 23.4415 26.2904 20.7044 21.2765 23.7882C17.5598 26.0742 16.2898 31.137 18.4887 34.8714C18.6525 35.1502 18.7196 35.1315 18.876 34.8672C19.3473 34.0767 19.955 33.4 20.674 32.8204C21.5389 32.1228 22.515 31.6414 23.615 31.3156ZM25.6953 31.9808C22.9432 32.0957 20.8514 33.3123 19.468 35.7163C19.3316 35.9533 19.3421 36.11 19.5383 36.3178C21.4444 38.3281 23.7661 39.2606 26.5423 39.0121C28.6531 38.8231 30.4028 37.902 31.8638 36.3909C32.1031 36.1434 32.1283 35.945 31.9541 35.6505C30.5508 33.2789 28.4631 32.08 25.6953 31.9818V31.9808ZM20.8251 1.58525C20.8052 1.74817 20.7947 1.79412 20.7947 1.84006C20.7947 4.04041 20.7916 6.23972 20.7968 8.44007C20.7968 8.85361 20.9647 8.9946 21.4213 8.99564C23.6066 8.99773 25.7908 8.99773 27.9761 8.99355C28.0548 8.99355 28.1619 9.04681 28.081 9.05308C25.6848 6.58643 23.2886 4.11978 20.8262 1.58525H20.8251ZM28.3686 28.4134C28.3739 26.9389 27.2214 25.7755 25.752 25.7734C24.2542 25.7703 23.0828 26.9274 23.0818 28.4082C23.0807 29.8629 24.2594 31.0326 25.7257 31.0326C27.2015 31.0326 28.3634 29.8817 28.3697 28.4134H28.3686Z" fill="#1F6FED"/>
<path d="M28.8925 22.1009C28.1903 21.8941 27.5144 21.704 26.8112 21.632C23.8723 21.3302 21.3427 22.2105 19.2183 24.2407C19 24.4495 18.7922 24.532 18.4973 24.5289C17.2808 24.5153 16.0632 24.5216 14.8457 24.5237C14.4164 24.5237 14.2096 24.6782 14.2096 24.9853C14.2096 25.2902 14.4269 25.4594 14.8436 25.4615C15.7987 25.4656 16.7539 25.4625 17.7101 25.4625C17.836 25.4625 17.962 25.4625 18.1341 25.4625C17.9116 25.8405 17.708 26.1684 17.5243 26.5078C17.4309 26.6802 17.286 26.6394 17.1496 26.6394C16.4033 26.6426 15.6581 26.6394 14.9118 26.6415C14.4227 26.6415 14.2033 26.7929 14.2107 27.1198C14.218 27.4415 14.4332 27.5793 14.9328 27.5804C15.613 27.5804 16.2931 27.5804 17.0173 27.5804C16.9271 27.8968 16.8389 28.1871 16.7602 28.4785C16.4642 29.5854 16.397 30.7122 16.5335 31.8453C16.566 32.1116 16.4852 32.1502 16.2532 32.1502C12.6804 32.145 9.10753 32.1481 5.53469 32.145C5.01723 32.145 4.88184 31.981 4.88184 31.4004C4.88184 25.5408 4.88184 19.6802 4.88184 13.8206C4.88184 9.79689 4.88184 5.77318 4.88184 1.74947C4.88184 1.06337 5.00884 0.939093 5.70997 0.939093C10.2778 0.939093 14.8447 0.944315 19.4125 0.929695C19.7851 0.92865 19.8607 1.04039 19.8544 1.38397C19.8345 2.62042 19.8355 3.85793 19.8544 5.09543C19.8586 5.41394 19.7799 5.51941 19.4451 5.51524C17.9798 5.49748 16.5135 5.50688 15.0483 5.50897C14.8919 5.50897 14.7323 5.51002 14.5802 5.53926C14.3461 5.58312 14.2159 5.74081 14.2138 5.97891C14.2107 6.21597 14.3366 6.37783 14.5697 6.42796C14.7082 6.45824 14.8551 6.4572 14.9979 6.4572C16.4894 6.45929 17.9819 6.46555 19.4734 6.45198C19.7568 6.44989 19.8596 6.51359 19.8554 6.81644C19.8439 7.64457 19.8586 7.64457 19.0431 7.64457C17.6429 7.64457 16.2427 7.64353 14.8426 7.64457C14.4164 7.64457 14.2086 7.80226 14.2117 8.10929C14.2149 8.41318 14.4311 8.58027 14.8499 8.58131C16.3939 8.58445 17.9389 8.58654 19.4828 8.57818C19.72 8.57714 19.8376 8.60742 19.9016 8.88416C20.057 9.55252 20.6206 9.93578 21.3648 9.93682C23.7337 9.93996 26.1027 9.94518 28.4706 9.92951C28.8127 9.92742 28.9051 10.0047 28.903 10.3545C28.8883 14.1443 28.8936 17.9331 28.8936 21.7228C28.8936 21.8388 28.8936 21.9547 28.8936 22.0998L28.8925 22.1009ZM20.3844 11.8448C18.5917 11.8448 16.798 11.8448 15.0052 11.8448C14.8751 11.8448 14.7418 11.8427 14.6137 11.8625C14.3608 11.9012 14.2149 12.0568 14.2128 12.3137C14.2096 12.5716 14.3597 12.7251 14.6064 12.7752C14.7197 12.7982 14.8405 12.793 14.958 12.793C18.5833 12.793 22.2087 12.793 25.834 12.793C25.9515 12.793 26.0712 12.7982 26.1856 12.7773C26.4343 12.7314 26.5939 12.5716 26.5907 12.322C26.5876 12.0588 26.4343 11.8845 26.1552 11.8583C26.025 11.8458 25.8938 11.8458 25.7637 11.8458C23.9709 11.8458 22.1772 11.8458 20.3844 11.8458V11.8448ZM20.3897 18.1889C18.5833 18.1889 16.778 18.1889 14.9717 18.1889C14.8541 18.1889 14.7355 18.1847 14.619 18.1983C14.3797 18.2265 14.239 18.3706 14.2149 18.6046C14.1897 18.8604 14.3209 19.0285 14.5655 19.0975C14.6641 19.1257 14.7722 19.1257 14.8761 19.1257C18.5539 19.1267 22.2307 19.1277 25.9085 19.1257C26.0376 19.1257 26.173 19.1173 26.2927 19.0755C26.4994 19.0045 26.6117 18.8353 26.5907 18.6213C26.5687 18.3978 26.4448 18.2286 26.1992 18.2004C26.0701 18.1858 25.9379 18.1889 25.8077 18.1889C24.0014 18.1889 22.1961 18.1889 20.3897 18.1889ZM20.4138 13.9783C19.1312 13.9783 17.8486 13.9783 16.566 13.9783C15.9509 13.9783 15.3359 13.9783 14.7208 13.9783C14.428 13.9783 14.2359 14.114 14.2159 14.4075C14.1949 14.726 14.3954 14.8774 14.6935 14.9129C14.7838 14.9234 14.8761 14.9171 14.9685 14.9171C18.5938 14.9171 22.2191 14.9171 25.8445 14.9161C25.9872 14.9161 26.1342 14.9108 26.2706 14.8753C26.4501 14.8294 26.5519 14.6884 26.5865 14.5109C26.6212 14.3271 26.5435 14.1819 26.4018 14.067C26.2675 13.9574 26.1058 13.9793 25.9505 13.9793C24.1053 13.9793 22.2601 13.9793 20.4138 13.9793V13.9783ZM20.4254 20.3109C19.3779 20.3109 18.3314 20.3109 17.2839 20.3109C16.4337 20.3109 15.5825 20.3109 14.7323 20.3109C14.4217 20.3109 14.2201 20.453 14.2159 20.7684C14.2107 21.0858 14.4206 21.2268 14.7208 21.2466C14.8247 21.254 14.9297 21.2487 15.0346 21.2487C18.2538 21.2487 21.4739 21.2487 24.6931 21.2487C25.1381 21.2487 25.5831 21.2466 26.0282 21.2487C26.2391 21.2498 26.4165 21.1861 26.5267 20.9991C26.7303 20.6545 26.4721 20.312 25.9998 20.3109C24.141 20.3078 22.2832 20.3099 20.4243 20.3099L20.4254 20.3109ZM7.66013 6.27967C7.49429 6.29116 7.3358 6.35799 7.25498 6.52299C7.15422 6.72872 7.17941 6.93236 7.3463 7.09945C7.94562 7.69992 8.54599 8.29935 9.15161 8.89356C9.37203 9.10973 9.62393 9.12644 9.8475 8.90505C10.8793 7.8879 11.9068 6.86552 12.9302 5.84002C13.1349 5.63533 13.1485 5.38992 12.9407 5.17897C12.7339 4.96907 12.4977 4.98473 12.2752 5.1727C12.206 5.23119 12.144 5.29907 12.079 5.36381C11.2928 6.146 10.5004 6.924 9.72365 7.71559C9.55676 7.88476 9.46335 7.90147 9.29331 7.71976C8.90076 7.301 8.48197 6.90625 8.07682 6.49897C7.96346 6.38514 7.84066 6.29429 7.66013 6.27862V6.27967ZM7.19411 13.1188C7.18781 13.241 7.27388 13.3653 7.38933 13.4791C7.95507 14.0389 8.51451 14.6028 9.08234 15.1604C9.41086 15.4831 9.61029 15.48 9.94721 15.1458C10.9107 14.1924 11.8711 13.2347 12.8305 12.2771C13.1317 11.9763 13.1611 11.7215 12.9344 11.5022C12.714 11.2882 12.4547 11.3257 12.1535 11.6255C11.3484 12.4244 10.5381 13.218 9.74674 14.0305C9.54941 14.2331 9.4413 14.2153 9.25972 14.0211C8.85877 13.594 8.43369 13.1877 8.01595 12.7763C7.8669 12.6301 7.69372 12.558 7.48275 12.6468C7.29382 12.7272 7.20145 12.8682 7.19411 13.1188ZM9.51792 21.7228C9.70475 21.7208 9.82651 21.6027 9.94721 21.4816C10.4269 21.0033 10.9076 20.5261 11.3883 20.0478C11.8869 19.5517 12.3896 19.0599 12.8819 18.5565C13.1789 18.2537 13.1212 17.8516 12.7769 17.7367C12.5177 17.6511 12.3319 17.7733 12.1545 17.9519C11.3463 18.7654 10.5255 19.5653 9.7226 20.384C9.55256 20.5574 9.4581 20.5605 9.29226 20.384C8.89026 19.958 8.46413 19.5538 8.04953 19.1403C7.82177 18.9126 7.56357 18.85 7.32951 19.0912C7.09964 19.3283 7.16367 19.5872 7.39038 19.8118C7.96347 20.3809 8.5355 20.9511 9.10753 21.5213C9.22089 21.6341 9.34579 21.7249 9.51687 21.7218L9.51792 21.7228ZM9.49588 28.0524C9.59035 28.0586 9.67851 28.0378 9.75513 27.9814C9.80761 27.9427 9.85904 27.902 9.90418 27.856C10.8929 26.8734 11.8806 25.8896 12.8704 24.9069C13.0939 24.6855 13.1737 24.4485 12.9512 24.1874C12.7643 23.9691 12.4631 23.9994 12.1965 24.249C12.1304 24.3117 12.0674 24.3775 12.0023 24.4422C11.2456 25.1962 10.4815 25.9439 9.73519 26.7084C9.55151 26.8963 9.44865 26.888 9.27547 26.7031C8.88292 26.2865 8.46517 25.8928 8.06213 25.4844C7.83751 25.2578 7.59506 25.1931 7.3358 25.4072C7.11854 25.5868 7.14897 25.9022 7.40298 26.158C7.96346 26.7219 8.5292 27.2796 9.09284 27.8404C9.20514 27.9521 9.3248 28.0524 9.49588 28.0513V28.0524Z" fill="white"/>
<path d="M18.1087 36.0396H17.6238C12.337 36.0396 7.05116 36.0396 1.76432 36.0396C1.06634 36.0396 0.955078 35.9268 0.955078 35.2198C0.955078 25.3762 0.955078 15.5326 0.955078 5.68998C0.955078 4.97359 1.08418 4.84514 1.79476 4.84514C2.34475 4.84514 2.89369 4.84201 3.44368 4.84514C3.99997 4.84932 3.93385 4.77309 3.93385 5.35267C3.93595 8.45113 3.93385 11.5506 3.93385 14.6491C3.93385 20.1954 3.93385 25.7427 3.93385 31.289C3.93385 32.5704 4.4576 33.0978 5.73601 33.0988C9.26897 33.0988 12.8019 33.104 16.3349 33.0915C16.6529 33.0905 16.7904 33.1782 16.8744 33.4852C17.121 34.3781 17.544 35.1968 18.1077 36.0406L18.1087 36.0396Z" fill="#BDDAFE"/>
<path d="M23.6149 31.3185C22.516 31.6443 21.5388 32.1257 20.6739 32.8233C19.955 33.4029 19.3472 34.0796 18.876 34.8702C18.7185 35.1344 18.6524 35.1532 18.4887 34.8744C16.2898 31.1399 17.5598 26.0782 21.2764 23.7912C26.2904 20.7073 32.7108 23.4444 33.8884 29.1913C34.3219 31.3049 33.9262 33.2995 32.78 35.1814C31.6507 33.2473 30.0332 31.967 27.8438 31.3206C28.9847 30.388 29.4937 29.2226 29.2723 27.8002C29.1285 26.8771 28.6551 26.1231 27.9046 25.5518C26.3712 24.3854 24.1628 24.6475 22.9379 26.1387C21.775 27.5548 21.7676 29.8429 23.6149 31.3185Z" fill="white"/>
<path d="M25.6955 31.9776C28.4633 32.0758 30.552 33.2746 31.9543 35.6462C32.1285 35.9407 32.1033 36.1392 31.864 36.3867C30.404 37.8978 28.6533 38.8188 26.5425 39.0079C23.7663 39.2564 21.4446 38.3238 19.5385 36.3136C19.3412 36.1057 19.3307 35.9491 19.4682 35.712C20.8516 33.3091 22.9434 32.0925 25.6955 31.9766V31.9776Z" fill="#BDDAFE"/>
<path d="M20.8254 1.58594C23.2878 4.12047 25.684 6.58711 28.0802 9.05376C28.1611 9.04854 28.054 8.99424 27.9753 8.99424C25.79 8.99737 23.6058 8.99841 21.4205 8.99632C20.9639 8.99632 20.7971 8.8543 20.796 8.44075C20.7908 6.2404 20.7939 4.0411 20.7939 1.84075C20.7939 1.7948 20.8044 1.74885 20.8243 1.58594H20.8254Z" fill="#BDDAFE"/>
<path d="M28.3689 28.4134C28.3637 29.8807 27.2018 31.0326 25.725 31.0326C24.2587 31.0326 23.08 29.8629 23.0811 28.4082C23.0821 26.9274 24.2545 25.7703 25.7512 25.7734C27.2207 25.7766 28.3731 26.9399 28.3679 28.4134H28.3689Z" fill="#BDDAFE"/>
<path d="M20.3846 11.8448C22.1773 11.8448 23.9711 11.8448 25.7638 11.8448C25.895 11.8448 26.0262 11.8448 26.1553 11.8573C26.4355 11.8834 26.5877 12.0578 26.5909 12.321C26.594 12.5706 26.4334 12.7304 26.1857 12.7763C26.0713 12.7972 25.9517 12.792 25.8341 12.792C22.2088 12.792 18.5835 12.792 14.9582 12.792C14.8406 12.792 14.7199 12.7982 14.6065 12.7742C14.3599 12.7241 14.2098 12.5706 14.2129 12.3126C14.2161 12.0568 14.3609 11.9012 14.6139 11.8615C14.7419 11.8417 14.8742 11.8448 15.0054 11.8438C16.7981 11.8438 18.5919 11.8438 20.3846 11.8438V11.8448Z" fill="#1F6FED"/>
<path d="M20.3898 18.1881C22.1961 18.1881 24.0015 18.1881 25.8078 18.1881C25.939 18.1881 26.0702 18.185 26.1993 18.1996C26.4449 18.2278 26.5688 18.397 26.5908 18.6204C26.6118 18.8345 26.4985 19.0037 26.2927 19.0747C26.1731 19.1165 26.0366 19.1238 25.9086 19.1248C22.2308 19.1269 18.554 19.1269 14.8762 19.1248C14.7723 19.1248 14.6642 19.1248 14.5655 19.0967C14.321 19.0277 14.1898 18.8585 14.215 18.6037C14.2381 18.3698 14.3798 18.2257 14.6191 18.1975C14.7356 18.1839 14.8542 18.1881 14.9717 18.1881C16.7781 18.1881 18.5834 18.1881 20.3898 18.1881Z" fill="#1F6FED"/>
<path d="M20.4133 13.9784C22.2585 13.9784 24.1037 13.9784 25.9499 13.9784C26.1053 13.9784 26.2669 13.9564 26.4012 14.0661C26.5429 14.1809 26.6206 14.3261 26.586 14.5099C26.5524 14.6874 26.4495 14.8284 26.27 14.8744C26.1336 14.9088 25.9867 14.9151 25.8439 14.9151C22.2186 14.9172 18.5933 14.9172 14.9679 14.9161C14.8766 14.9161 14.7843 14.9224 14.6929 14.912C14.3938 14.8765 14.1944 14.725 14.2154 14.4065C14.2353 14.1131 14.4274 13.9773 14.7202 13.9773C15.3353 13.9773 15.9504 13.9773 16.5654 13.9773C17.848 13.9773 19.1307 13.9773 20.4133 13.9773V13.9784Z" fill="#1F6FED"/>
<path d="M20.4253 20.3132C22.2841 20.3132 24.1419 20.3111 26.0008 20.3142C26.4731 20.3142 26.7313 20.6578 26.5277 21.0024C26.4164 21.1894 26.2401 21.2531 26.0291 21.252C25.5841 21.2489 25.139 21.252 24.694 21.252C21.4749 21.252 18.2547 21.252 15.0356 21.252C14.9306 21.252 14.8257 21.2562 14.7218 21.2499C14.4216 21.2301 14.2116 21.0891 14.2169 20.7716C14.2221 20.4552 14.4226 20.3142 14.7333 20.3142C15.5835 20.3142 16.4347 20.3142 17.2849 20.3142C18.3324 20.3142 19.3788 20.3142 20.4263 20.3142L20.4253 20.3132Z" fill="#1F6FED"/>
<path d="M7.65994 6.28326C7.84153 6.29893 7.96328 6.38978 8.07664 6.50361C8.48178 6.91089 8.90057 7.30564 9.29312 7.7244C9.46316 7.90507 9.55657 7.8894 9.72346 7.72022C10.5012 6.92864 11.2926 6.15063 12.0788 5.36845C12.1438 5.3037 12.2058 5.23582 12.275 5.17734C12.4976 4.98937 12.7337 4.9737 12.9405 5.18361C13.1473 5.39456 13.1336 5.63893 12.93 5.84465C11.9066 6.87121 10.8801 7.89253 9.84731 8.90969C9.62375 9.13004 9.37184 9.11437 9.15143 8.8982C8.54581 8.30399 7.94544 7.70456 7.34611 7.10408C7.17923 6.937 7.15404 6.73336 7.2548 6.52763C7.33562 6.36263 7.49306 6.29579 7.65994 6.28431V6.28326Z" fill="#1F6FED"/>
<path d="M7.19368 13.1196C7.19998 12.87 7.29235 12.7279 7.48232 12.6475C7.69434 12.5577 7.86648 12.6308 8.01552 12.777C8.43431 13.1885 8.85835 13.5947 9.2593 14.0218C9.44193 14.2161 9.54899 14.2338 9.74631 14.0312C10.5377 13.2188 11.348 12.4251 12.153 11.6262C12.4553 11.3265 12.7135 11.2889 12.934 11.503C13.1607 11.7223 13.1313 11.9771 12.83 12.2778C11.8707 13.2355 10.9103 14.1931 9.94679 15.1466C9.60987 15.4797 9.41044 15.4839 9.08192 15.1612C8.51408 14.6046 7.95464 14.0396 7.38891 13.4798C7.27345 13.365 7.18739 13.2417 7.19368 13.1196Z" fill="#1F6FED"/>
<path d="M9.51632 21.7244C9.34523 21.7275 9.22033 21.6367 9.10697 21.5239C8.53494 20.9537 7.96291 20.3835 7.38983 19.8144C7.16311 19.5898 7.09804 19.3308 7.32895 19.0938C7.56196 18.8526 7.82121 18.9163 8.04898 19.1429C8.46357 19.5575 8.88866 19.9616 9.2917 20.3866C9.45859 20.5631 9.552 20.56 9.72204 20.3866C10.525 19.5689 11.3458 18.768 12.154 17.9545C12.3324 17.7759 12.5171 17.6526 12.7764 17.7393C13.1206 17.8542 13.1784 18.2552 12.8813 18.5591C12.3891 19.0614 11.8863 19.5533 11.3878 20.0504C10.9081 20.5287 10.4263 21.0049 9.94665 21.4842C9.8249 21.6053 9.7042 21.7223 9.51632 21.7244Z" fill="#1F6FED"/>
<path d="M9.49597 28.0504C9.32489 28.0504 9.20523 27.9512 9.09292 27.8384C8.52929 27.2776 7.96355 26.7199 7.40307 26.156C7.14906 25.9001 7.11757 25.5848 7.33589 25.4051C7.59409 25.1911 7.8376 25.2558 8.06221 25.4824C8.46526 25.8897 8.883 26.2834 9.27555 26.7011C9.44874 26.8849 9.5516 26.8933 9.73528 26.7063C10.4815 25.9419 11.2457 25.1942 12.0024 24.4402C12.0675 24.3755 12.1305 24.3097 12.1966 24.247C12.4632 23.9974 12.7655 23.9671 12.9513 24.1854C13.1738 24.4465 13.094 24.6835 12.8704 24.9049C11.8807 25.8866 10.893 26.8713 9.90427 27.854C9.85808 27.9 9.80665 27.9407 9.75522 27.9793C9.6786 28.0357 9.59043 28.0566 9.49597 28.0504Z" fill="#1F6FED"/>
</g>
<defs>
<clipPath id="clip0_4462_136057">
<rect width="35" height="40" fill="white"/>
</clipPath>
</defs>
</svg>
