<svg width="40" height="40" viewBox="0 0 40 40" fill="none" xmlns="http://www.w3.org/2000/svg">
<path d="M37.8798 9.84679C37.7621 9.78795 37.7151 9.76441 37.668 9.75265C35.6203 8.95241 33.5727 8.14041 31.525 7.35194C31.3603 7.2931 31.1014 7.35194 30.9484 7.43432C25.3114 10.9059 19.6862 14.4011 14.0611 17.8844C13.9551 17.9551 13.861 18.0257 13.708 18.1198C15.6851 18.9083 17.615 19.6732 19.5215 20.4499C19.8275 20.5794 20.0511 20.5558 20.3335 20.3911C25.2173 17.449 30.1128 14.507 35.0084 11.5767C35.9381 11.0118 36.8678 10.4587 37.8681 9.85856L37.8798 9.84679Z" fill="white"/>
<path d="M9.69922 17.9219V20.8875C10.3112 21.1346 10.9349 21.3817 11.6292 21.6642C11.6292 20.6992 11.6292 19.8048 11.6292 18.8986C11.6292 18.8045 11.5704 18.675 11.5115 18.6397C10.9231 18.3926 10.3347 18.1572 9.71099 17.9219H9.69922Z" fill="#B4D5FB"/>
<path d="M10.499 16.8031C11.0168 17.015 11.464 17.1679 11.8994 17.368C12.1348 17.4739 12.2996 17.4621 12.5231 17.3209C17.9247 13.967 23.3381 10.6131 28.7397 7.27091C29.0574 7.07085 29.3634 6.87079 29.7282 6.6472C29.2222 6.44714 28.775 6.28238 28.3396 6.08232C28.0924 5.96464 27.9041 6.01171 27.6805 6.15293C23.1616 8.95376 18.6426 11.7546 14.1354 14.5554C12.9468 15.285 11.77 16.0264 10.499 16.8149V16.8031Z" fill="#B4D5FB"/>
<path d="M19.0423 21.6274C17.5948 21.0507 16.1473 20.4741 14.7116 19.8974C14.135 19.6621 13.5466 19.4267 12.9228 19.1796C12.9228 20.2976 12.9228 21.3685 12.9228 22.4394C12.9228 23.1219 12.5227 23.3926 11.899 23.1454C10.9105 22.7571 9.93373 22.357 8.94521 21.9686C8.56863 21.8274 8.40387 21.5803 8.40387 21.1684C8.41564 20.0269 8.40387 18.8854 8.40387 17.7439C8.40387 17.4614 8.32149 17.332 8.05083 17.2261C5.92079 16.3905 3.79075 15.5314 1.66071 14.6724C1.5548 14.6253 1.43712 14.6018 1.2959 14.5547V15.0019C1.2959 18.9678 1.2959 22.9336 1.2959 26.8877C1.2959 27.2055 1.37828 27.3702 1.69602 27.5114C7.01523 29.8062 12.3344 32.1128 17.6419 34.4194C18.2068 34.6665 18.7716 34.9018 19.3365 35.1372C19.3365 35.0548 19.36 35.0078 19.36 34.9725C19.36 30.6653 19.36 26.3464 19.36 22.0392C19.36 21.7686 19.2188 21.698 19.0305 21.6274H19.0423ZM1.95492 23.322C3.02582 23.7456 4.02611 24.1457 5.02641 24.5576C5.09702 24.5812 5.16763 24.6871 5.16763 24.7577C5.17939 25.0754 5.16763 25.3932 5.16763 25.7698C4.09672 25.3461 3.08466 24.9342 2.0726 24.5223C2.01376 24.4988 1.95492 24.3811 1.94315 24.3105C1.93138 24.0045 1.94315 23.6986 1.94315 23.322H1.95492ZM5.17939 27.7703C4.12026 27.3467 3.1082 26.9466 2.1079 26.5347C2.03729 26.4994 1.96668 26.3817 1.96668 26.2993C1.95492 25.9933 1.96668 25.6874 1.96668 25.3226C3.02582 25.7462 4.03788 26.1463 5.04994 26.5582C5.12055 26.5818 5.17939 26.723 5.17939 26.8171C5.19116 27.1113 5.17939 27.4055 5.17939 27.7703Z" fill="white"/>
<path d="M8.63826 16.0846C8.88539 16.1905 9.07368 16.167 9.29728 16.0257C13.828 13.2132 18.347 10.4123 22.8777 7.59974C24.0663 6.87011 25.2431 6.12872 26.5023 5.35202C24.843 4.70477 23.2543 4.08106 21.6774 3.45735C21.4303 3.3632 21.242 3.3632 21.0066 3.49265C14.946 6.7289 8.86186 9.95337 2.78948 13.1779C2.61296 13.272 2.4482 13.3661 2.22461 13.4956C2.36583 13.5662 2.45997 13.6015 2.55412 13.6486C4.57824 14.4606 6.61414 15.2726 8.63826 16.0846Z" fill="white"/>
<path d="M30.3886 22.6175C26.4933 22.5822 23.2571 25.7596 23.2335 29.6195C23.21 33.5854 26.3403 36.7628 30.2827 36.7981C34.2015 36.8217 37.3906 33.6796 37.4142 29.749C37.4495 25.8655 34.2721 22.6528 30.3768 22.6175H30.3886ZM29.1176 33.8208C27.6937 32.6793 26.3168 31.5731 24.9164 30.4551C25.187 30.1256 25.4342 29.8078 25.7166 29.4548C26.7993 30.3139 27.8584 31.1612 28.9646 32.0438C30.6828 30.1138 32.4009 28.1838 34.1426 26.2185C34.4604 26.501 34.7781 26.7716 35.1076 27.0658C33.107 29.3136 31.1182 31.5495 29.1176 33.809V33.8208Z" fill="white"/>
<path d="M38.7136 10.8672C38.5606 10.9496 38.4664 10.9966 38.384 11.0555C32.5706 14.5389 26.7571 18.034 20.9436 21.5174C20.7083 21.6586 20.6494 21.8116 20.6494 22.0705C20.6494 26.2364 20.6494 30.4023 20.6494 34.5683V34.9802C21.4261 34.4859 22.1322 34.0387 22.8736 33.5797C21.9204 31.6145 21.6615 29.5903 22.2499 27.4956C22.8383 25.3891 24.0857 23.7533 25.9216 22.5883C29.0284 20.6112 33.9945 20.7878 37.0189 24.6124C37.4661 24.33 37.9133 24.024 38.3723 23.7651C38.6194 23.6239 38.7136 23.4591 38.7136 23.1649C38.7018 20.8113 38.7136 18.4577 38.7136 16.1158V10.8907V10.8672Z" fill="white"/>
<path d="M39.1645 8.9408C33.3628 6.65778 27.561 4.38652 21.7593 2.09173C21.3945 1.95051 21.1239 1.97405 20.7944 2.15057C13.9806 5.77517 7.16681 9.388 0.341277 13.0008C0.0823772 13.142 0 13.3068 0 13.601C0.0117682 18.2494 0.0235363 22.8979 0 27.5463C0 28.0523 0.141218 28.2877 0.600177 28.4877C6.94322 31.2179 13.2863 33.9717 19.6175 36.7254C19.9588 36.8784 20.2059 36.8314 20.5001 36.6431C21.5122 35.9841 22.536 35.3486 23.5481 34.7013C26.5608 38.6201 31.6446 38.9143 34.9515 36.7019C38.1524 34.5601 39.9176 30.0882 37.717 25.7222C38.3878 25.2986 39.0232 24.8749 39.6705 24.4866C39.9176 24.3336 40 24.157 40 23.8746C40 19.3086 40 14.7425 40 10.1647C40 9.56844 39.7176 9.16048 39.1527 8.9408H39.1645ZM28.3377 6.08114C28.7732 6.2812 29.2321 6.44595 29.7264 6.64601C29.3616 6.88138 29.0438 7.08143 28.7379 7.26972C23.3363 10.6237 17.9229 13.9658 12.5213 17.3197C12.2977 17.461 12.133 17.4727 11.8976 17.3668C11.4622 17.1668 11.015 17.0138 10.4972 16.8019C11.7564 16.0135 12.945 15.2838 14.1336 14.5425C18.6525 11.7416 23.1715 8.95257 27.6787 6.13998C27.9023 5.99876 28.0906 5.96346 28.3377 6.06937V6.08114ZM11.6269 21.6622C10.9326 21.3798 10.3207 21.1326 9.69697 20.8855V17.9199C10.3089 18.167 10.9091 18.3906 11.4975 18.6378C11.5681 18.6613 11.6152 18.8025 11.6152 18.8967C11.6152 19.7911 11.6152 20.6854 11.6152 21.6622H11.6269ZM2.78906 13.1773C8.86143 9.95287 14.9456 6.72839 21.0179 3.49214C21.2533 3.36269 21.4416 3.36269 21.6887 3.45684C23.2657 4.09232 24.8544 4.70426 26.5137 5.35151C25.2545 6.12821 24.0659 6.86961 22.8891 7.59923C18.3583 10.4001 13.8276 13.2126 9.30862 16.0252C9.08502 16.1665 8.89673 16.19 8.6496 16.0841C6.62548 15.2603 4.58959 14.4601 2.56546 13.6481C2.47132 13.6128 2.37717 13.5657 2.23595 13.4951C2.45955 13.3774 2.6243 13.2715 2.80082 13.1773H2.78906ZM19.3586 34.9838C19.3586 34.9838 19.3586 35.0661 19.3351 35.1485C18.7585 34.9014 18.1936 34.666 17.6405 34.4307C12.3213 32.1241 7.01383 29.8175 1.69462 27.5227C1.37688 27.3815 1.2945 27.2285 1.2945 26.899C1.2945 22.9332 1.2945 18.9673 1.2945 15.0132V14.566C1.43572 14.6131 1.5534 14.6484 1.65931 14.6837C3.78935 15.531 5.91939 16.3901 8.04943 17.2374C8.32009 17.3433 8.40247 17.4727 8.40247 17.7552C8.3907 18.8967 8.40247 20.0382 8.40247 21.1797C8.40247 21.5798 8.56723 21.8269 8.94381 21.9799C9.93233 22.3683 10.9091 22.7684 11.8976 23.1568C12.5331 23.4039 12.9214 23.1332 12.9214 22.4507C12.9214 21.3798 12.9214 20.3089 12.9214 19.1909C13.5452 19.438 14.1336 19.6734 14.7102 19.9087C16.1577 20.4854 17.5934 21.062 19.0409 21.6387C19.241 21.721 19.3704 21.7799 19.3704 22.0505C19.3704 26.3577 19.3704 30.6766 19.3704 34.9838H19.3586ZM20.3472 20.3795C20.0647 20.5442 19.8411 20.5678 19.5352 20.4383C17.6287 19.6616 15.6987 18.8967 13.7217 18.1082C13.8629 18.0141 13.9688 17.9435 14.0747 17.8728C19.6999 14.3895 25.3251 10.8943 30.962 7.42271C31.115 7.32857 31.3739 7.28149 31.5387 7.34033C33.5981 8.1288 35.634 8.9408 37.6817 9.74104C37.7287 9.76458 37.7758 9.77634 37.8935 9.83519C36.8932 10.4354 35.9635 11.0002 35.0338 11.5533C30.1383 14.4954 25.2427 17.4257 20.3589 20.3677L20.3472 20.3795ZM30.2913 36.7961C26.3489 36.7725 23.2186 33.5833 23.2421 29.6175C23.2657 25.7575 26.5019 22.5801 30.3972 22.6154C34.2807 22.6507 37.4581 25.8634 37.4345 29.7469C37.3992 33.6775 34.2218 36.8314 30.303 36.7961H30.2913ZM38.376 23.7569C37.917 24.0276 37.4698 24.3218 37.0227 24.6042C33.9982 20.7796 29.0321 20.6031 25.9253 22.5801C24.0777 23.7569 22.8302 25.3809 22.2536 27.4874C21.6652 29.5822 21.9241 31.6063 22.8773 33.5716C22.1477 34.0305 21.4298 34.4777 20.6531 34.972V34.5601C20.6531 30.3942 20.6531 26.2282 20.6531 22.0623C20.6531 21.8152 20.712 21.6504 20.9473 21.5092C26.7608 18.0258 32.5743 14.5425 38.3878 11.0473C38.4819 10.9885 38.5643 10.9414 38.7173 10.859V16.0841C38.7173 18.4377 38.7173 20.7913 38.7173 23.1332C38.7173 23.4274 38.6231 23.5922 38.376 23.7334V23.7569Z" fill="#1B68E4"/>
<path d="M2.08546 24.5207C3.09752 24.9325 4.10958 25.3444 5.18048 25.7681C5.18048 25.3915 5.18048 25.0738 5.18048 24.756C5.18048 24.6854 5.10987 24.5795 5.03926 24.556C4.03897 24.1441 3.03868 23.744 1.96777 23.3203C1.96777 23.6969 1.96777 24.0029 1.96777 24.3088C1.96777 24.3794 2.02661 24.4971 2.09722 24.5207H2.08546Z" fill="#B4D5FB"/>
<path d="M5.03248 26.556C4.02042 26.1441 3.00835 25.744 1.94922 25.3203C1.94922 25.6851 1.94922 25.9911 1.94922 26.2971C1.94922 26.3794 2.01983 26.5089 2.09044 26.5324C3.09073 26.9443 4.10279 27.3444 5.16193 27.7681C5.16193 27.4033 5.16193 27.1091 5.16193 26.8149C5.16193 26.7207 5.10309 26.5913 5.03248 26.556Z" fill="#B4D5FB"/>
<path d="M28.9633 32.04C27.8571 31.1574 26.7862 30.3101 25.7153 29.451C25.4328 29.8159 25.1739 30.1218 24.915 30.4513C26.3155 31.5693 27.7041 32.6755 29.1163 33.817C31.1286 31.5575 33.1175 29.3216 35.1063 27.0739C34.765 26.7797 34.459 26.509 34.1413 26.2266C32.3996 28.1801 30.6814 30.1101 28.9633 32.0518V32.04Z" fill="#1B68E4"/>
</svg>
