<svg width="40" height="40" viewBox="0 0 40 40" fill="none" xmlns="http://www.w3.org/2000/svg">
<g clip-path="url(#clip0_4462_136043)">
<path d="M5.42243 0H22.143C22.5878 0.155569 22.9219 0.45731 23.2507 0.777845C25.1702 2.64989 27.1015 4.51045 29.0136 6.38877C29.2552 6.62577 29.3711 6.60385 29.5957 6.37937C30.598 5.37496 31.595 4.36324 32.642 3.40477C34.2786 1.9065 36.8546 1.9159 38.5167 3.37971C40.4575 5.08888 40.5001 7.91 38.5965 9.79458C36.7195 11.6531 34.8319 13.5011 32.9389 15.3439C32.7314 15.5454 32.6569 15.7459 32.6569 16.0267C32.6644 22.002 32.6442 27.9773 32.6772 33.9516C32.6835 35.1878 31.8727 35.8498 30.7874 35.7798C30.0745 35.7339 29.3552 35.7798 28.6391 35.7662C28.4124 35.7621 28.3454 35.832 28.3486 36.0534C28.3603 36.8343 28.3571 37.6153 28.3518 38.3963C28.3454 39.3568 27.708 39.9969 26.7376 39.9969C18.3667 40 9.99468 40 1.62375 39.9969C0.643754 39.9969 0 39.3683 0 38.4088C0 27.5534 0 16.697 0.00106406 5.84062C0.00106406 4.85605 0.639498 4.23586 1.64397 4.22959C2.38668 4.22542 3.13045 4.21185 3.8721 4.23586C4.20515 4.2463 4.33284 4.18261 4.31581 3.81927C4.28176 3.06544 4.30091 2.30952 4.3073 1.55465C4.31262 0.910444 4.60949 0.43956 5.19791 0.144084C5.27559 0.104409 5.38412 0.103365 5.42137 0.00104409L5.42243 0ZM13.8625 21.716C11.8334 21.716 9.84465 21.716 7.85593 21.716C7.72398 21.716 7.58566 21.7285 7.4601 21.6972C7.21536 21.6356 7.07384 21.4716 7.09193 21.2117C7.10896 20.9736 7.25261 20.8295 7.4867 20.7888C7.60268 20.7679 7.72505 20.7784 7.84422 20.7784C10.0873 20.7784 12.3292 20.7752 14.5722 20.7825C14.801 20.7825 14.967 20.7241 15.1309 20.5612C16.2215 19.4774 17.3239 18.4041 18.4199 17.3256C18.488 17.2577 18.6008 17.2107 18.5859 17.0458H18.1624C14.7521 17.0458 11.3418 17.0458 7.93147 17.0458C7.79847 17.0458 7.66546 17.0499 7.53352 17.0385C7.27389 17.0176 7.11534 16.8756 7.09406 16.6198C7.07065 16.342 7.22707 16.176 7.49308 16.1217C7.62077 16.0956 7.75697 16.1071 7.88998 16.1071C11.6855 16.1071 15.4799 16.1061 19.2754 16.1092C19.5063 16.1092 19.6989 16.0873 19.8808 15.9046C20.9683 14.8177 22.0717 13.7454 23.1666 12.6658C23.2337 12.6 23.356 12.5551 23.305 12.387H22.8421C17.8793 12.387 12.9166 12.387 7.95382 12.387C7.80804 12.387 7.66014 12.3944 7.51649 12.3745C7.24409 12.3369 7.08342 12.1793 7.09087 11.9005C7.09832 11.6426 7.25261 11.4933 7.51011 11.462C7.65376 11.4442 7.80166 11.4484 7.94744 11.4484C13.2815 11.4484 18.6167 11.439 23.9508 11.4609C24.5542 11.463 24.7585 11.0684 25.1607 10.6967C24.4914 10.6967 23.9349 10.7019 23.3784 10.6956C22.4473 10.6862 21.8014 10.0744 21.7642 9.1629C21.7504 8.82462 21.7355 8.4832 21.7674 8.14805C21.8004 7.80246 21.6865 7.71789 21.3333 7.71893C16.861 7.73146 12.3899 7.72729 7.91764 7.72729C7.78463 7.72729 7.6495 7.73981 7.52075 7.71893C7.25473 7.67613 7.08236 7.52578 7.09087 7.24492C7.09938 6.96928 7.26218 6.81789 7.5399 6.79387C7.65801 6.78343 7.77825 6.7897 7.89849 6.7897C12.3835 6.7897 16.8685 6.78552 21.3535 6.797C21.6876 6.797 21.7706 6.70721 21.7685 6.38563C21.7525 4.69317 21.7514 3.00071 21.7685 1.30824C21.7717 0.985618 21.6631 0.930281 21.3652 0.931325C16.2694 0.939678 11.1737 0.936546 6.07895 0.93759C5.43945 0.93759 5.26176 1.11613 5.26176 1.75511C5.26176 12.5102 5.26176 23.2643 5.26176 34.0195C5.26176 34.6532 5.44265 34.8318 6.08853 34.8318C14.3552 34.8318 22.6229 34.8318 30.8895 34.8318C31.5205 34.8318 31.7046 34.6564 31.7057 34.0529C31.7057 28.3626 31.7057 22.6734 31.7036 16.9831C31.7036 16.8766 31.7568 16.7524 31.711 16.7127C30.3224 18.0742 28.9413 19.4273 27.5633 20.7773C28.1028 20.7773 28.6816 20.7752 29.2615 20.7773C29.684 20.7794 29.9032 20.9465 29.8798 21.2607C29.8521 21.6324 29.5935 21.717 29.2658 21.716C28.4433 21.7118 27.6208 21.7212 26.7983 21.7107C26.5705 21.7076 26.4035 21.7619 26.2386 21.9258C25.1575 23.0012 24.0647 24.0641 22.9794 25.1353C22.9049 25.2084 22.7751 25.2596 22.8027 25.4413H23.2326C25.183 25.4413 27.1334 25.4413 29.0849 25.4413C29.2307 25.4413 29.3786 25.4381 29.5212 25.4632C29.7436 25.5018 29.8659 25.649 29.8819 25.8693C29.8989 26.1053 29.7957 26.2807 29.5574 26.3413C29.419 26.3768 29.269 26.3778 29.1243 26.3778C26.7759 26.3799 24.4265 26.382 22.0781 26.3747C21.8217 26.3747 21.6333 26.4394 21.4503 26.6242C20.7757 27.307 20.0766 27.9648 19.4031 28.6476C19.1615 28.892 18.8913 29.0413 18.5603 29.1248C17.5473 29.3806 16.5376 29.6489 15.5267 29.9141C15.4022 29.9465 15.2788 29.9841 15.1543 30.0196C15.1607 30.0446 15.1671 30.0697 15.1745 30.0948H15.6086C20.0936 30.0948 24.5786 30.0948 29.0636 30.0948C29.2094 30.0948 29.3584 30.0864 29.4999 30.1146C29.751 30.1647 29.8957 30.3255 29.884 30.5844C29.8723 30.8413 29.7276 30.9937 29.4658 31.0229C29.335 31.0376 29.2009 31.0323 29.0679 31.0323C22.0089 31.0323 14.9489 31.0323 7.88998 31.0323C7.7442 31.0323 7.59523 31.0397 7.45371 31.0125C7.23558 30.9697 7.11002 30.8246 7.093 30.6043C7.07597 30.385 7.17387 30.218 7.38561 30.147C7.50692 30.1062 7.64524 30.0979 7.77506 30.0968C8.66461 30.0927 9.5531 30.0843 10.4426 30.101C10.7087 30.1062 10.8406 30.0457 10.9098 29.7721C11.1651 28.7635 11.4312 27.756 11.728 26.7589C11.8291 26.4196 11.7344 26.3695 11.4173 26.3736C10.2501 26.3872 9.08172 26.3788 7.91445 26.3788C7.82188 26.3788 7.72824 26.3809 7.63567 26.3778C7.31539 26.3653 7.08555 26.2348 7.09513 25.8902C7.10364 25.5666 7.32815 25.4433 7.63141 25.4423C8.86572 25.4402 10.1 25.4402 11.3333 25.4402C12.0813 25.4402 12.0973 25.4444 12.2728 24.7167C12.5356 23.6235 12.7825 22.5293 13.8157 21.835C13.8317 21.8235 13.8338 21.7911 13.8625 21.7139V21.716ZM0.95765 22.1117C0.95765 27.4751 0.95765 32.8376 0.95765 38.201C0.95765 38.911 1.11407 39.0614 1.84933 39.0614C5.28517 39.0614 8.721 39.0614 12.1568 39.0614C16.9728 39.0614 21.7876 39.0614 26.6035 39.0614C27.1994 39.0614 27.3941 38.8713 27.3963 38.2961C27.3994 37.6059 27.3707 36.9147 27.4069 36.2267C27.4282 35.832 27.2867 35.7652 26.9185 35.7662C19.9936 35.7767 13.0687 35.7746 6.14386 35.7735C4.88295 35.7735 4.30624 35.2024 4.30624 33.9547C4.30624 26.0009 4.30624 18.0481 4.30624 10.0942C4.30624 8.59701 4.2924 7.09979 4.31581 5.60361C4.3222 5.22983 4.19664 5.14839 3.84656 5.16092C3.18472 5.18598 2.52075 5.16718 1.85678 5.16823C1.10449 5.16823 0.956586 5.31545 0.956586 6.06197C0.956586 11.4119 0.956586 16.7618 0.956586 22.1117H0.95765ZM15.997 25.1145C16.1524 25.0748 16.2226 24.9558 16.313 24.8681C18.837 22.3946 21.3599 19.9191 23.8827 17.4436C27.0526 14.3332 30.2203 11.2208 33.3975 8.11777C33.622 7.89852 33.6667 7.77636 33.4114 7.54457C32.8751 7.06011 32.3601 6.55164 31.8653 6.02647C31.6408 5.78842 31.5237 5.79364 31.2896 6.02438C28.0155 9.2527 24.7287 12.4695 21.4461 15.6895C19.0168 18.0721 16.5886 20.4568 14.153 22.8331C13.9689 23.0127 13.9147 23.114 14.1339 23.3165C14.7031 23.8428 15.2458 24.3972 15.8002 24.9391C15.864 25.0017 15.9353 25.0591 15.9991 25.1155L15.997 25.1145ZM18.8232 27.8688C18.9104 27.7873 18.9881 27.7184 19.0626 27.6464C19.8415 26.8831 20.6193 26.1189 21.3982 25.3546C26.3301 20.5132 31.262 15.6697 36.2003 10.8345C36.4141 10.6246 36.445 10.5056 36.2077 10.2895C35.6746 9.80189 35.1532 9.29864 34.6627 8.76928C34.4201 8.50722 34.2967 8.54063 34.0572 8.77555C29.8723 12.8966 25.6778 17.0082 21.4854 21.1208C19.9659 22.6118 18.4465 24.1027 16.9281 25.5937C16.8142 25.7054 16.644 25.7869 16.8568 25.9873C17.4601 26.5543 18.0432 27.1421 18.6348 27.7205C18.6891 27.7738 18.7561 27.8155 18.8232 27.8677V27.8688ZM22.7623 1.6413C22.7378 1.76242 22.725 1.80001 22.725 1.83655C22.724 4.24526 22.7208 6.65396 22.7261 9.06163C22.7272 9.54504 22.9474 9.75177 23.4369 9.75595C24.2466 9.76221 25.0553 9.75177 25.8651 9.76221C26.0726 9.76534 26.2109 9.68808 26.3492 9.55026C27.0111 8.89249 27.6718 8.23367 28.3518 7.59364C28.5699 7.389 28.5891 7.27311 28.3582 7.05176C26.6035 5.36765 24.8638 3.66892 23.1187 1.97541C23.0166 1.87622 22.9123 1.78121 22.7634 1.64235L22.7623 1.6413ZM39.0285 7.0267C39.0253 4.39978 36.9015 2.79815 34.6989 3.34734C33.7731 3.57809 33.1507 4.20662 32.508 4.82994C32.2973 5.03354 32.293 5.14422 32.508 5.35094C33.8114 6.60907 35.0968 7.8839 36.3939 9.14829C36.6365 9.38529 36.8525 9.80397 37.1419 9.79875C37.4537 9.79353 37.6665 9.36963 37.9208 9.12741C38.6391 8.44457 39.0253 7.61557 39.0285 7.02566V7.0267ZM17.7729 28.349C16.3226 26.928 14.8861 25.5206 13.4561 24.1184C13.4646 24.1059 13.4348 24.1362 13.4252 24.1716C12.9283 25.9894 12.4367 27.8082 11.9323 29.6239C11.8536 29.9079 12.0026 29.8703 12.1696 29.8264C14.0477 29.3326 15.9247 28.8366 17.774 28.349H17.7729Z" fill="#1F6FED"/>
<path d="M13.8625 21.7122C13.8338 21.7895 13.8316 21.8219 13.8157 21.8333C12.7835 22.5277 12.5367 23.6219 12.2728 24.715C12.0972 25.4417 12.0813 25.4386 11.3332 25.4386C10.0989 25.4386 8.86461 25.4386 7.63137 25.4407C7.32705 25.4407 7.1036 25.5649 7.09509 25.8886C7.08551 26.2331 7.31535 26.3636 7.63563 26.3762C7.7282 26.3793 7.82184 26.3772 7.91441 26.3772C9.08168 26.3772 10.25 26.3856 11.4173 26.372C11.7344 26.3678 11.8291 26.419 11.728 26.7573C11.4311 27.7554 11.1651 28.7619 10.9097 29.7705C10.8406 30.044 10.7086 30.1046 10.4426 30.0994C9.55412 30.0837 8.66457 30.091 7.77502 30.0952C7.64414 30.0952 7.50688 30.1046 7.38558 30.1453C7.17276 30.2163 7.07593 30.3834 7.09296 30.6026C7.10998 30.8229 7.23554 30.9691 7.45367 31.0109C7.59519 31.038 7.74416 31.0307 7.88994 31.0307C14.9489 31.0307 22.0089 31.0307 29.0678 31.0307C29.2009 31.0307 29.3339 31.0359 29.4658 31.0213C29.7276 30.9921 29.8723 30.8396 29.884 30.5828C29.8957 30.3228 29.751 30.162 29.4999 30.113C29.3594 30.0848 29.2094 30.0931 29.0636 30.0931C24.5786 30.0931 20.0936 30.0931 15.6086 30.0931H15.1745C15.1681 30.0681 15.1617 30.043 15.1542 30.0179C15.2787 29.9824 15.4022 29.9449 15.5267 29.9125C16.5375 29.6483 17.5473 29.379 18.5603 29.1232C18.8912 29.0396 19.1625 28.8903 19.403 28.646C20.0755 27.9621 20.7757 27.3044 21.4503 26.6226C21.6333 26.4378 21.8206 26.372 22.0781 26.373C24.4264 26.3803 26.7759 26.3783 29.1242 26.3762C29.269 26.3762 29.419 26.3741 29.5573 26.3396C29.7957 26.2791 29.8989 26.1037 29.8818 25.8677C29.8659 25.6474 29.7435 25.5002 29.5211 25.4615C29.3786 25.4365 29.2306 25.4396 29.0849 25.4396C27.1345 25.4386 25.184 25.4396 23.2326 25.4396H22.8027C22.774 25.259 22.9048 25.2078 22.9793 25.1337C24.0647 24.0625 25.1574 22.9996 26.2385 21.9242C26.4035 21.7603 26.5705 21.706 26.7982 21.7091C27.6207 21.7206 28.4432 21.7112 29.2658 21.7143C29.5946 21.7164 29.8531 21.6308 29.8797 21.2591C29.9031 20.9448 29.6839 20.7778 29.2615 20.7757C28.6827 20.7726 28.1027 20.7757 27.5633 20.7757C28.9412 19.4257 30.3213 18.0725 31.711 16.7111C31.7567 16.7507 31.7035 16.875 31.7035 16.9815C31.7067 22.6717 31.7067 28.361 31.7056 34.0512C31.7056 34.6547 31.5205 34.8301 30.8895 34.8301C22.6229 34.8301 14.3551 34.8301 6.08849 34.8301C5.44367 34.8301 5.26172 34.6516 5.26172 34.0178C5.26172 23.2627 5.26172 12.5086 5.26172 1.75347C5.26172 1.11345 5.43942 0.935952 6.07891 0.935952C11.1747 0.935952 16.2704 0.93804 21.3651 0.929688C21.6631 0.929688 21.7716 0.985024 21.7684 1.3066C21.7503 2.99907 21.7514 4.69153 21.7684 6.384C21.7716 6.70453 21.6886 6.79641 21.3534 6.79537C16.8684 6.78388 12.3834 6.78806 7.89845 6.78806C7.77928 6.78806 7.65904 6.78179 7.53986 6.79223C7.26214 6.81625 7.09934 6.96764 7.09083 7.24328C7.08232 7.52414 7.2547 7.67344 7.52071 7.71729C7.65052 7.73818 7.78566 7.72565 7.9176 7.72565C12.3898 7.72565 16.861 7.72982 21.3332 7.71729C21.6854 7.71729 21.8003 7.80082 21.7674 8.14641C21.7354 8.48157 21.7503 8.82298 21.7642 9.16127C21.8014 10.0717 22.4462 10.6835 23.3783 10.694C23.9348 10.7002 24.4913 10.695 25.1606 10.695C24.7584 11.0667 24.5541 11.4614 23.9508 11.4593C18.6167 11.4374 13.2826 11.4468 7.9474 11.4468C7.80162 11.4468 7.65478 11.4426 7.51007 11.4603C7.25257 11.4917 7.09828 11.641 7.09083 11.8989C7.08232 12.1776 7.24299 12.3353 7.51645 12.3729C7.6601 12.3927 7.80801 12.3854 7.95378 12.3854C12.9165 12.3854 17.8793 12.3854 22.8421 12.3854H23.3049C23.356 12.5535 23.2336 12.5984 23.1666 12.6642C22.0717 13.7438 20.9683 14.816 19.8808 15.9029C19.6978 16.0856 19.5062 16.1076 19.2753 16.1076C15.4798 16.1044 11.6854 16.1055 7.88994 16.1055C7.75799 16.1055 7.62073 16.093 7.49304 16.1201C7.22703 16.1744 7.07061 16.3404 7.09402 16.6181C7.1153 16.8739 7.27385 17.0159 7.53348 17.0368C7.66542 17.0473 7.79843 17.0441 7.93144 17.0441C11.3417 17.0441 14.752 17.0441 18.1623 17.0441H18.5858C18.5997 17.2091 18.4879 17.2561 18.4198 17.3239C17.3239 18.4035 16.2226 19.4758 15.1308 20.5596C14.967 20.7224 14.802 20.7819 14.5722 20.7809C12.3292 20.7736 10.0872 20.7767 7.84418 20.7767C7.72501 20.7767 7.60264 20.7673 7.48666 20.7872C7.2515 20.8289 7.10892 20.972 7.0919 21.21C7.07381 21.47 7.21533 21.6329 7.46006 21.6955C7.58562 21.7268 7.72394 21.7143 7.85589 21.7143C9.84461 21.7143 11.8333 21.7143 13.8625 21.7143V21.7122Z" fill="white"/>
<path d="M0.958008 22.1084C0.958008 16.7585 0.958008 11.4086 0.958008 6.05869C0.958008 5.31321 1.10591 5.16599 1.8582 5.16495C2.52111 5.16495 3.18508 5.1827 3.84798 5.15764C4.19806 5.14407 4.32255 5.2255 4.31723 5.60033C4.29382 7.09651 4.30766 8.59373 4.30766 10.0909C4.30766 18.0448 4.30766 25.9976 4.30766 33.9515C4.30766 35.1991 4.88437 35.7703 6.14528 35.7703C13.0702 35.7703 19.995 35.7734 26.9199 35.763C27.2891 35.763 27.4296 35.8287 27.4083 36.2234C27.3721 36.9114 27.3998 37.6026 27.3977 38.2928C27.3955 38.8681 27.1998 39.0581 26.605 39.0581C21.789 39.0591 16.9742 39.0581 12.1583 39.0581C8.72242 39.0581 5.28659 39.0581 1.85075 39.0581C1.11549 39.0581 0.959072 38.9077 0.959072 38.1978C0.959072 32.8343 0.959072 27.4719 0.959072 22.1084H0.958008Z" fill="#BDDAFE"/>
<path d="M15.9974 25.1178C15.9336 25.0615 15.8623 25.0051 15.7985 24.9414C15.2441 24.3995 14.7025 23.8451 14.1321 23.3189C13.913 23.1163 13.9672 23.015 14.1513 22.8355C16.5869 20.4581 19.0151 18.0744 21.4443 15.6918C24.728 12.4719 28.0138 9.25503 31.2879 6.02671C31.522 5.79597 31.6391 5.7897 31.8636 6.0288C32.3584 6.55398 32.8744 7.06245 33.4097 7.5469C33.665 7.77869 33.6214 7.8998 33.3958 8.12011C30.2186 11.2231 27.0509 14.3356 23.881 17.4459C21.3582 19.9214 18.8363 22.3969 16.3113 24.8704C16.2209 24.9591 16.1507 25.0771 15.9953 25.1168L15.9974 25.1178Z" fill="white"/>
<path d="M18.8228 27.8675C18.7557 27.8153 18.6887 27.7735 18.6344 27.7203C18.0418 27.1419 17.4597 26.554 16.8564 25.9871C16.6436 25.7866 16.8138 25.7052 16.9277 25.5935C18.4461 24.1025 19.9656 22.6116 21.4851 21.1206C25.6774 17.0069 29.8719 12.8963 34.0569 8.77533C34.2952 8.54041 34.4187 8.50804 34.6623 8.76906C35.1529 9.29737 35.6742 9.80062 36.2073 10.2893C36.4436 10.5054 36.4138 10.6244 36.1999 10.8343C31.2616 15.6705 26.3308 20.513 21.3978 25.3544C20.62 26.1187 19.8411 26.8819 19.0622 27.6462C18.9877 27.7192 18.91 27.7871 18.8228 27.8685V27.8675Z" fill="white"/>
<path d="M22.7624 1.64167C22.9113 1.78053 23.0156 1.87659 23.1178 1.97473C24.8628 3.66824 26.6025 5.36801 28.3572 7.05108C28.5881 7.27243 28.5689 7.38832 28.3508 7.59296C27.6719 8.23299 27.0101 8.89181 26.3482 9.54958C26.2099 9.6874 26.0716 9.76362 25.8641 9.76153C25.0554 9.75109 24.2457 9.76153 23.4359 9.75527C22.9464 9.75109 22.7262 9.54436 22.7251 9.06095C22.7187 6.65224 22.723 4.24353 22.7241 1.83587C22.7241 1.79933 22.7379 1.76278 22.7613 1.64062L22.7624 1.64167Z" fill="#BDDAFE"/>
<path d="M39.0284 7.02819C39.0241 7.6181 38.6389 8.44711 37.9207 9.12994C37.6664 9.37217 37.4536 9.79607 37.1418 9.80129C36.8535 9.80651 36.6364 9.38783 36.3938 9.15082C35.0978 7.88643 33.8113 6.61056 32.5078 5.35348C32.2929 5.14675 32.2982 5.03608 32.5078 4.83248C33.1505 4.20916 33.773 3.58062 34.6987 3.34988C36.9013 2.80069 39.0263 4.40127 39.0284 7.02924V7.02819Z" fill="#BDDAFE"/>
<path d="M17.7725 28.3511C15.9232 28.8386 14.0462 29.3356 12.1681 29.8284C12.0011 29.8723 11.8521 29.9099 11.9308 29.6259C12.4352 27.8102 12.9268 25.9914 13.4237 24.1737C13.4333 24.1382 13.4631 24.1068 13.4546 24.1204C14.8847 25.5216 16.3211 26.9301 17.7714 28.3511H17.7725Z" fill="#BDDAFE"/>
</g>
<defs>
<clipPath id="clip0_4462_136043">
<rect width="40" height="40" fill="white"/>
</clipPath>
</defs>
</svg>
