<svg width="62" height="64" viewBox="0 0 62 64" fill="none" xmlns="http://www.w3.org/2000/svg">
<g clip-path="url(#clip0_3732_49125)">
<path d="M27.3176 62.5067C26.5187 54.7828 25.3243 48.599 25.3709 47.7279C25.4639 45.9155 26.1154 45.6277 24.6573 42.213C23.8197 40.2451 23.1217 38.0905 22.0902 36.216C21.2215 34.6525 21.237 32.8557 20.2055 31.3312C19.6316 30.4833 19.4222 28.9899 18.251 28.741C17.173 28.5076 16.6921 29.9233 16.5292 30.7478C15.932 33.7736 18.0649 35.5859 18.4992 37.3749C18.5302 37.5072 18.7009 38.425 18.4527 38.3939C18.4294 38.3939 17.7779 37.9739 17.7624 37.9661C10.0144 32.9724 12.5272 34.0614 10.154 32.2957C9.54125 31.8445 9.75841 32.5835 6.91978 25.6608C6.51648 24.6807 5.60905 24.0196 4.53874 24.3851C4.39138 23.8951 4.213 23.3973 3.91052 22.985C2.84022 21.5072 0.265289 21.725 1.59929 24.5718C-0.355176 23.8173 0.536743 29.7444 0.971068 31.7901C2.58428 39.4673 5.36086 43.2398 8.75791 46.7711C14.4739 52.7138 15.1487 53.1416 15.4512 54.8217C15.9708 57.723 16.0174 60.7021 15.5985 63.619C15.5985 63.5334 15.583 63.4479 15.5753 63.3623" stroke="#343E7B" stroke-linecap="round" stroke-linejoin="round"/>
<path d="M4.53906 24.377C6.79601 28.7873 6.42373 28.9273 7.10624 30.4596C7.37769 31.0663 7.90509 31.393 8.23859 31.9764C8.96763 33.2442 9.3942 34.5977 9.84404 35.9744" stroke="#343E7B" stroke-linecap="round" stroke-linejoin="round"/>
<path d="M1.78525 35.0417C1.76198 30.118 1.73871 28.7334 2.52205 28.3212C3.2511 27.94 4.53856 28.5856 4.63163 30.538C4.67041 31.4247 4.51529 32.3348 4.74797 33.1904C4.92635 33.8282 5.30639 34.396 5.50804 35.0261C5.62438 35.3917 5.67867 35.7884 5.8493 36.1384C6.22933 36.9084 7.14452 37.5463 7.16778 38.4097" stroke="#343E7B" stroke-linecap="round" stroke-linejoin="round"/>
<path d="M1.59766 24.5645C3.2574 25.0234 3.49783 26.968 3.53661 28.3525" stroke="#343E7B" stroke-linecap="round" stroke-linejoin="round"/>
<path d="M4.61719 32.0469C5.22214 33.9292 6.95944 35.8349 7.66522 37.7017" stroke="#343E7B" stroke-linecap="round" stroke-linejoin="round"/>
<path d="M6.6875 39.8097C6.88915 38.5185 7.71902 37.3439 8.86688 36.7217" stroke="#343E7B" stroke-linecap="round" stroke-linejoin="round"/>
<path d="M15.7539 53.0876C16.7001 53.3132 18.1272 52.3331 18.8407 51.6875" stroke="#343E7B" stroke-linecap="round" stroke-linejoin="round"/>
<path d="M23.1289 49.649C23.7571 49.8667 24.4862 49.7345 24.9981 49.3223" stroke="#343E7B" stroke-linecap="round" stroke-linejoin="round"/>
<path d="M17.7796 45.5113C16.973 43.7301 17.066 41.5677 18.0278 39.8643" stroke="#343E7B" stroke-linecap="round" stroke-linejoin="round"/>
<path d="M34.6875 62.5067C35.4863 54.7828 36.6807 48.599 36.6342 47.7279C36.5411 45.9155 35.8897 45.6277 37.3477 42.213C38.1854 40.2451 38.8834 38.0905 39.9149 36.216C40.7836 34.6525 40.7681 32.8557 41.7996 31.3312C42.3735 30.4833 42.5829 28.9899 43.754 28.741C44.8321 28.5076 45.313 29.9233 45.4758 30.7478C46.073 33.7736 43.9402 35.5859 43.5059 37.3749C43.4748 37.5072 43.3042 38.425 43.5524 38.3939C43.5757 38.3939 44.2272 37.9739 44.2427 37.9661C51.9907 32.9724 49.4778 34.0614 51.8511 32.2957C52.4638 31.8445 52.2467 32.5835 55.0853 25.6608C55.4886 24.6807 56.396 24.0196 57.4663 24.3851C57.6137 23.8951 57.7921 23.3973 58.0946 22.985C59.1649 21.5072 61.7398 21.725 60.4058 24.5718C62.3603 23.8173 61.4683 29.7444 61.034 31.7901C59.4208 39.4673 56.6442 43.2398 53.2472 46.7711C47.5311 52.7138 46.8564 53.1416 46.5539 54.8217C46.0343 57.723 45.9877 60.7021 46.4065 63.619C46.4065 63.5334 46.4221 63.4479 46.4298 63.3623" stroke="#343E7B" stroke-linecap="round" stroke-linejoin="round"/>
<path d="M57.4651 24.377C55.2082 28.7873 55.5805 28.9273 54.898 30.4596C54.6265 31.0663 54.0991 31.393 53.7656 31.9764C53.0366 33.2442 52.61 34.5977 52.1602 35.9744" stroke="#343E7B" stroke-linecap="round" stroke-linejoin="round"/>
<path d="M60.2107 35.0417C60.2339 30.118 60.2572 28.7334 59.4739 28.3212C58.7448 27.94 57.4573 28.5856 57.3643 30.538C57.3255 31.4247 57.4806 32.3348 57.2479 33.1904C57.0696 33.8282 56.6895 34.396 56.4879 35.0261C56.3715 35.3917 56.3172 35.7884 56.1466 36.1384C55.7666 36.9084 54.8514 37.5463 54.8281 38.4097" stroke="#343E7B" stroke-linecap="round" stroke-linejoin="round"/>
<path d="M60.3999 24.5645C58.7401 25.0234 58.4997 26.968 58.4609 28.3525" stroke="#343E7B" stroke-linecap="round" stroke-linejoin="round"/>
<path d="M57.3879 32.0469C56.7829 33.9292 55.0456 35.8349 54.3398 37.7017" stroke="#343E7B" stroke-linecap="round" stroke-linejoin="round"/>
<path d="M55.3161 39.8097C55.1145 38.5185 54.2846 37.3439 53.1367 36.7217" stroke="#343E7B" stroke-linecap="round" stroke-linejoin="round"/>
<path d="M46.2431 53.0876C45.2969 53.3132 43.8698 52.3331 43.1562 51.6875" stroke="#343E7B" stroke-linecap="round" stroke-linejoin="round"/>
<path d="M38.877 49.649C38.2487 49.8667 37.5197 49.7345 37.0078 49.3223" stroke="#343E7B" stroke-linecap="round" stroke-linejoin="round"/>
<path d="M44.2287 45.5113C45.0353 43.7301 44.9422 41.5677 43.9805 39.8643" stroke="#343E7B" stroke-linecap="round" stroke-linejoin="round"/>
<path d="M32.6221 33.0737C32.785 21.7096 32.8471 21.4062 32.6221 19.1894C36.0347 19.4228 38.408 19.6872 40.8821 19.4228C41.2544 13.7524 42.8521 16.7081 32.5756 15.6814C32.7462 13.3712 32.7307 11.2011 32.6609 8.88313C32.6376 8.12863 32.7075 8.18308 32.0017 8.08974C31.6294 8.04307 30.0084 7.98862 29.1475 8.12863C29.0622 10.711 29.0932 13.2934 29.2484 15.8758C26.4795 15.8836 23.6797 15.7825 20.9031 15.7981C20.8643 17.027 20.7635 18.2016 20.8411 19.4228C23.5556 19.7105 26.2236 19.6639 28.9459 19.415C28.9924 24.0353 29.1243 28.5934 29.1708 33.2059C30.3574 33.4159 31.4355 33.2837 32.6144 33.0737H32.6221Z" fill="#9EABEC" stroke="#343E7B" stroke-linecap="round" stroke-linejoin="round"/>
<path d="M13.5246 22.8214C11.9734 22.7747 10.4223 22.7047 8.87109 22.6191" stroke="#343E7B" stroke-linecap="round" stroke-linejoin="round"/>
<path d="M9.13672 16.7461C10.7965 17.1972 12.4562 17.6484 14.116 18.0995" stroke="#343E7B" stroke-linecap="round" stroke-linejoin="round"/>
<path d="M11.4922 11.418C12.7176 12.2036 13.9896 12.927 15.2925 13.5726" stroke="#343E7B" stroke-linecap="round" stroke-linejoin="round"/>
<path d="M15.1367 6.64258C16.114 7.60709 17.0757 8.59494 18.0141 9.59834" stroke="#343E7B" stroke-linecap="round" stroke-linejoin="round"/>
<path d="M19.8008 3.15039C20.2739 4.34047 20.8788 5.48389 21.5924 6.54952" stroke="#343E7B" stroke-linecap="round" stroke-linejoin="round"/>
<path d="M25.2422 0.979492C25.4438 2.18513 25.7463 3.37521 26.1574 4.51863" stroke="#343E7B" stroke-linecap="round" stroke-linejoin="round"/>
<path d="M30.7969 3.80335C30.8822 2.66772 30.9132 1.53208 30.8822 0.388672" stroke="#343E7B" stroke-linecap="round" stroke-linejoin="round"/>
<path d="M35.7383 4.31666L36.5061 1.04199" stroke="#343E7B" stroke-linecap="round" stroke-linejoin="round"/>
<path d="M40.1562 6.3621C40.7612 5.31203 41.3739 4.25417 41.9789 3.2041" stroke="#343E7B" stroke-linecap="round" stroke-linejoin="round"/>
<path d="M44.0195 9.64461C44.9192 8.68788 45.8189 7.73115 46.7186 6.77441" stroke="#343E7B" stroke-linecap="round" stroke-linejoin="round"/>
<path d="M46.3633 13.5578C47.6585 12.9822 48.946 12.3988 50.2412 11.8232" stroke="#343E7B" stroke-linecap="round" stroke-linejoin="round"/>
<path d="M47.8125 18.0917C49.2861 17.8584 50.752 17.555 52.2023 17.1895" stroke="#343E7B" stroke-linecap="round" stroke-linejoin="round"/>
<path d="M47.8125 22.4951C49.5808 22.5885 51.3491 22.6818 53.1175 22.7751" stroke="#343E7B" stroke-linecap="round" stroke-linejoin="round"/>
<path d="M10.6875 28.4375C11.8043 27.9163 12.9212 27.3952 14.038 26.874" stroke="#343E7B" stroke-linecap="round" stroke-linejoin="round"/>
<path d="M47.0898 25.8389C48.4549 26.5078 49.8199 27.169 51.1772 27.8379" stroke="#343E7B" stroke-linecap="round" stroke-linejoin="round"/>
</g>
<defs>
<clipPath id="clip0_3732_49125">
<rect width="62" height="64" fill="white"/>
</clipPath>
</defs>
</svg>
