<svg width="24" height="24" viewBox="0 0 24 24" fill="none" xmlns="http://www.w3.org/2000/svg">
<g clip-path="url(#clip0_2745_13115)">
<path d="M2.19922 17.4433C2.25076 16.8082 2.43973 16.2232 2.895 15.7552C3.28154 15.3541 3.75398 15.0784 4.32091 14.9864C5.28297 14.8277 6.10759 15.0867 6.76901 15.797C7.20709 16.265 7.41325 16.8249 7.42184 17.4516C7.42184 18.8973 6.19349 20.0505 4.70745 19.992C3.49628 19.9502 2.44832 19.0394 2.25076 17.8778C2.22499 17.7357 2.19922 17.5937 2.19922 17.4516V17.4433Z" fill="#BDDAFE"/>
<path d="M15.9336 17.4431C15.968 16.4738 16.4146 15.7384 17.2822 15.2454C17.8148 14.9445 18.3989 14.8777 18.9916 14.9863C19.945 15.1535 20.6065 15.6966 20.9586 16.5741C21.0703 16.8498 21.0875 17.1423 21.1476 17.4348C21.1047 18.1785 20.8642 18.8303 20.2715 19.3317C19.4468 20.0253 18.5105 20.1925 17.5055 19.7746C16.5177 19.3568 16.0023 18.588 15.9422 17.5434C15.9422 17.51 15.9422 17.4849 15.9422 17.4515L15.9336 17.4431Z" fill="#BDDAFE"/>
<path d="M22.1689 11.1751C21.9455 11.1751 21.7136 11.1834 21.4903 11.1834C19.5919 11.1834 17.7021 11.1834 15.8038 11.1834C15.589 11.1834 15.5547 11.1249 15.5547 10.9327C15.5633 9.75444 15.5633 8.58452 15.5719 7.40625C16.5339 7.40625 17.4874 7.40625 18.4495 7.40625C19.1968 7.40625 19.7981 7.69037 20.2276 8.29204C20.8718 9.20291 21.4989 10.1305 22.1259 11.0497C22.1517 11.0831 22.1603 11.1333 22.1774 11.1751H22.1689Z" fill="#BDDAFE"/>
<path d="M23.5018 12.3287C23.141 11.9526 22.7545 11.61 22.3851 11.2591C22.325 11.2006 22.2563 11.1838 22.179 11.1755C21.9556 11.1755 21.7237 11.1838 21.5004 11.1838C19.602 11.1838 17.7122 11.1838 15.8139 11.1838C15.5991 11.1838 15.5648 11.1253 15.5648 10.9331C15.5734 9.75487 15.5734 8.58496 15.582 7.40669C15.5648 7.11421 15.582 6.81337 15.4961 6.52925C15.204 5.55153 14.4223 5 13.3142 5C8.95061 5 4.58697 5 0.223336 5C0.051539 5 0 5.03343 0 5.20891C0 9.22006 0 13.2312 0 17.2423C0 17.4095 0.051539 17.4429 0.214746 17.4429C0.876163 17.4429 1.53758 17.4429 2.20759 17.4429C2.25913 16.8078 2.4481 16.2228 2.90336 15.7549C3.28991 15.3538 3.76235 15.078 4.32928 14.9861C5.29134 14.8273 6.11596 15.0864 6.77738 15.7967C7.21546 16.2646 7.42162 16.8245 7.43021 17.4513C10.2649 17.4513 13.1081 17.4513 15.9427 17.4513C15.9771 16.4819 16.4238 15.7465 17.2913 15.2535C17.8239 14.9526 18.408 14.8858 19.0007 14.9944C19.9542 15.1616 20.6156 15.7047 20.9678 16.5822C21.0795 16.8579 21.0966 17.1504 21.1568 17.4429C22.1102 17.4429 23.0637 17.4429 24.0172 17.4429V13.2897C23.8712 12.9638 23.7767 12.6045 23.519 12.3287H23.5018Z" fill="#2083FE"/>
</g>
<defs>
<clipPath id="clip0_2745_13115">
<rect width="24" height="15" fill="white" transform="translate(0 5)"/>
</clipPath>
</defs>
</svg>
