<svg width="20" height="20" viewBox="0 0 20 20" fill="none" xmlns="http://www.w3.org/2000/svg">
<mask id="mask0_4225_5659" style="mask-type:alpha" maskUnits="userSpaceOnUse" x="0" y="0" width="20" height="20">
<rect width="20" height="20" fill="#D9D9D9"/>
</mask>
<g mask="url(#mask0_4225_5659)">
<path d="M4.5013 15.5003H5.42755L13.6246 7.30324L12.6984 6.37699L4.5013 14.5741V15.5003ZM3.41797 16.5837V14.1174L13.7851 3.73428C13.8971 3.61984 14.0178 3.53838 14.1469 3.48991C14.2761 3.4413 14.4114 3.41699 14.553 3.41699C14.6946 3.41699 14.8298 3.4397 14.9586 3.48512C15.0875 3.53053 15.2123 3.61095 15.333 3.72637L16.2673 4.65262C16.3828 4.77331 16.4645 4.89831 16.5126 5.02762C16.5606 5.15692 16.5846 5.29005 16.5846 5.42699C16.5846 5.57296 16.5594 5.71227 16.5088 5.84491C16.4581 5.97755 16.3776 6.0988 16.2673 6.20866L5.88422 16.5837H3.41797ZM13.1534 6.84824L12.6984 6.37699L13.6246 7.30324L13.1534 6.84824Z" fill="#171719"/>
</g>
</svg>
