<svg width="20" height="20" viewBox="0 0 20 20" fill="none" xmlns="http://www.w3.org/2000/svg">
<mask id="mask0_4239_13777" style="mask-type:alpha" maskUnits="userSpaceOnUse" x="0" y="0" width="20" height="20">
<rect width="20" height="20" fill="#D9D9D9"/>
</mask>
<g mask="url(#mask0_4239_13777)">
<path d="M6.75776 16.5831C6.38804 16.5831 6.07227 16.4523 5.81047 16.1906C5.5488 15.9288 5.41797 15.613 5.41797 15.2433V5.49978H4.41797V4.41645H8.0013V3.5127H12.0013V4.41645H15.5846V5.49978H14.5846V15.2344C14.5846 15.6196 14.4551 15.9408 14.1961 16.1977C13.9371 16.4546 13.62 16.5831 13.2448 16.5831H6.75776ZM13.5013 5.49978H6.5013V15.2433C6.5013 15.3182 6.52533 15.3796 6.57339 15.4277C6.62144 15.4758 6.6829 15.4998 6.75776 15.4998H13.2448C13.309 15.4998 13.3678 15.473 13.4211 15.4196C13.4746 15.3662 13.5013 15.3075 13.5013 15.2433V5.49978ZM8.33797 13.9998H9.42109V6.99978H8.33797V13.9998ZM10.5815 13.9998H11.6646V6.99978H10.5815V13.9998Z" fill="#171719"/>
</g>
</svg>
