<svg width="21" height="20" viewBox="0 0 21 20" fill="none" xmlns="http://www.w3.org/2000/svg">
<g clip-path="url(#clip0_6745_121297)">
<g clip-path="url(#clip1_6745_121297)">
<path d="M0.332031 16.1325V0H16.4634V0.229594C16.4634 2.98688 16.465 5.74416 16.4597 8.50144C16.4597 8.65828 16.499 8.73211 16.6526 8.79248C18.9771 9.70438 20.449 11.9863 20.332 14.4833C20.1984 17.3376 17.9353 19.7117 15.0983 19.9736C12.4746 20.2161 10.0833 18.7518 9.11912 16.3044C9.06522 16.1675 8.99839 16.1287 8.85665 16.1287C6.09937 16.133 3.34262 16.1319 0.585339 16.1319H0.332031V16.1325ZM15.8032 8.51114V0.645127H10.972V5.64122C10.3458 5.3739 9.72814 5.15562 9.15577 4.85219C8.62813 4.57248 8.1711 4.56331 7.63969 4.84896C7.06409 5.15832 6.43891 5.37659 5.80779 5.64607V0.649438H0.984164V15.4744H8.84425C8.46537 13.4038 8.93749 11.5783 10.4288 10.0892C11.919 8.60115 13.745 8.13226 15.8038 8.51114H15.8032ZM14.5232 19.3608C17.3565 19.3657 19.6821 17.0562 19.6907 14.2284C19.6998 11.3595 17.3942 9.03824 14.5275 9.02962C11.6985 9.02099 9.36865 11.3353 9.36111 14.1621C9.35302 17.0347 11.6576 19.3554 14.5232 19.3608ZM6.4637 4.65494C6.54508 4.62314 6.61299 4.59888 6.67928 4.57032C7.19775 4.34935 7.71353 4.12137 8.23631 3.91064C8.32847 3.87345 8.46106 3.87453 8.5543 3.91064C8.92294 4.054 9.2835 4.21838 9.64783 4.37414C9.86772 4.46846 10.0887 4.56062 10.3167 4.65655V0.650516H6.4637V4.65547V4.65494Z" fill="white"/>
<path d="M14.8484 16.4725V17.0853H14.207V16.4596H12.6047V15.8107H14.1946V14.5172C13.6762 14.5333 13.1523 14.5522 12.7966 14.0618C12.5498 13.7217 12.5595 13.3336 12.6037 12.9569C12.6295 12.7359 12.7427 12.5117 12.8656 12.3199C12.9987 12.1113 13.2261 11.9927 13.4741 11.9609C13.7058 11.9313 13.9413 11.934 14.1979 11.9216V11.3002H14.8392V11.9291H16.4523V12.5705H14.8624V13.8726C15.3485 13.8618 15.8395 13.8295 16.2001 14.2547C16.468 14.5705 16.4706 14.9413 16.4647 15.3218C16.4604 15.5795 16.3947 15.8134 16.2389 16.0182C16.0783 16.2289 15.8713 16.3809 15.6078 16.4197C15.3647 16.4553 15.1163 16.4553 14.8479 16.472L14.8484 16.4725ZM14.1957 12.5748C13.8686 12.6195 13.487 12.4449 13.3038 12.8195C13.1706 13.0917 13.1539 13.4226 13.3356 13.6861C13.5506 13.9976 13.8961 13.8343 14.1957 13.8742V12.5743V12.5748ZM14.8581 15.8161C15.1858 15.7702 15.569 15.9449 15.7506 15.5681C15.8816 15.2954 15.9004 14.965 15.7161 14.7015C15.4995 14.3916 15.1551 14.5565 14.8581 14.5156V15.8166V15.8161Z" fill="white"/>
</g>
</g>
<defs>
<clipPath id="clip0_6745_121297">
<rect width="20.0005" height="20" fill="white" transform="translate(0.332031)"/>
</clipPath>
<clipPath id="clip1_6745_121297">
<rect width="20.0059" height="20" fill="white" transform="translate(0.332031)"/>
</clipPath>
</defs>
</svg>
