<svg width="25" height="24" viewBox="0 0 25 24" fill="none" xmlns="http://www.w3.org/2000/svg">
<g clip-path="url(#clip0_4404_70536)">
<g clip-path="url(#clip1_4404_70536)">
<path d="M2.99854 18.1325V2H19.1299V2.22959C19.1299 4.98688 19.1315 7.74416 19.1262 10.5014C19.1262 10.6583 19.1655 10.7321 19.3191 10.7925C21.6436 11.7044 23.1155 13.9863 22.9985 16.4833C22.8649 19.3376 20.6018 21.7117 17.7648 21.9736C15.1411 22.2161 12.7498 20.7518 11.7856 18.3044C11.7317 18.1675 11.6649 18.1287 11.5232 18.1287C8.76587 18.133 6.00913 18.1319 3.25184 18.1319H2.99854V18.1325ZM18.4697 10.5111V2.64513H13.6385V7.64122C13.0123 7.3739 12.3946 7.15562 11.8223 6.85219C11.2946 6.57248 10.8376 6.56331 10.3062 6.84896C9.73059 7.15832 9.10541 7.37659 8.4743 7.64607V2.64944H3.65067V17.4744H11.5108C11.1319 15.4038 11.604 13.5783 13.0953 12.0892C14.5855 10.6011 16.4115 10.1323 18.4703 10.5111H18.4697ZM17.1897 21.3608C20.023 21.3657 22.3486 19.0562 22.3572 16.2284C22.3663 13.3595 20.0607 11.0382 17.194 11.0296C14.3651 11.021 12.0352 13.3353 12.0276 16.1621C12.0195 19.0347 14.3241 21.3554 17.1897 21.3608ZM9.1302 6.65494C9.21158 6.62314 9.27949 6.59888 9.34578 6.57032C9.86425 6.34935 10.38 6.12137 10.9028 5.91064C10.995 5.87345 11.1276 5.87453 11.2208 5.91064C11.5894 6.054 11.95 6.21838 12.3143 6.37414C12.5342 6.46846 12.7552 6.56062 12.9832 6.65655V2.65052H9.1302V6.65547V6.65494Z" fill="#171719"/>
<path d="M17.5149 18.4692V19.082H16.8735V18.4563H15.2712V17.8074H16.8612V16.5139C16.3427 16.5301 15.8188 16.5489 15.4631 16.0585C15.2163 15.7184 15.226 15.3303 15.2702 14.9536C15.296 14.7326 15.4092 14.5084 15.5321 14.3166C15.6652 14.108 15.8927 13.9894 16.1406 13.9576C16.3723 13.928 16.6078 13.9307 16.8644 13.9183V13.2969H17.5057V13.9258H19.1188V14.5672H17.5289V15.8693C18.015 15.8585 18.506 15.8262 18.8666 16.2514C19.1345 16.5672 19.1371 16.938 19.1312 17.3185C19.1269 17.5762 19.0612 17.8101 18.9054 18.0149C18.7448 18.2256 18.5378 18.3776 18.2743 18.4164C18.0312 18.452 17.7828 18.452 17.5144 18.4687L17.5149 18.4692ZM16.8622 14.5715C16.5351 14.6162 16.1535 14.4416 15.9703 14.8162C15.8371 15.0884 15.8204 15.4193 16.0021 15.6828C16.2171 15.9943 16.5626 15.831 16.8622 15.8709V14.571V14.5715ZM17.5246 17.8128C17.8523 17.7669 18.2355 17.9416 18.4171 17.5648C18.5481 17.2921 18.5669 16.9618 18.3826 16.6982C18.166 16.3883 17.8216 16.5532 17.5246 16.5123V17.8133V17.8128Z" fill="#171719"/>
</g>
</g>
<defs>
<clipPath id="clip0_4404_70536">
<rect width="20.0005" height="20" fill="white" transform="translate(2.99854 2)"/>
</clipPath>
<clipPath id="clip1_4404_70536">
<rect width="20.0059" height="20" fill="white" transform="translate(2.99854 2)"/>
</clipPath>
</defs>
</svg>
