<svg width="24" height="24" viewBox="0 0 24 24" fill="none" xmlns="http://www.w3.org/2000/svg">
<g clip-path="url(#clip0_4356_71055)">
<path d="M21.9115 15.1511C23.131 17.5746 22.1521 20.053 20.378 21.2379C18.5455 22.461 15.7256 22.298 14.0572 20.1264C13.4943 20.4828 12.9266 20.8362 12.3667 21.2003C12.2037 21.306 12.0694 21.3316 11.8778 21.2481C8.36727 19.7181 4.85436 18.1936 1.33608 16.6804C1.07702 16.5682 0.99882 16.438 1.00001 16.1605C1.01195 13.5835 1.00897 11.006 1.00359 8.42907C1.00359 8.2685 1.04478 8.17598 1.19103 8.09837C4.97076 6.09748 8.7493 4.0936 12.5243 2.08435C12.7105 1.98526 12.8603 1.97212 13.0621 2.05211C16.2742 3.32356 19.4904 4.58547 22.7054 5.84856C23.0174 5.97113 23.1736 6.19717 23.174 6.52667C23.174 9.05943 23.1722 11.5916 23.1776 14.1243C23.1776 14.2855 23.1322 14.3822 22.9949 14.4652C22.6332 14.6837 22.2798 14.9159 21.9109 15.1511H21.9115ZM8.15775 11.5253C8.15775 12.1479 8.15895 12.7419 8.15775 13.3352C8.15656 13.7137 7.93928 13.8641 7.58709 13.7256C7.0409 13.5107 6.4977 13.2869 5.95032 13.0738C5.74199 12.9926 5.65066 12.8559 5.65305 12.6314C5.65962 11.9987 5.64947 11.3653 5.65902 10.7326C5.66141 10.575 5.61425 10.5022 5.46562 10.4437C4.28311 9.97809 3.10477 9.50234 1.92465 9.03018C1.86496 9.0063 1.80288 8.99018 1.72289 8.96392C1.72289 9.06122 1.72289 9.13523 1.72289 9.20925C1.72289 11.4059 1.72468 13.6026 1.71931 15.7999C1.71931 15.9784 1.76288 16.0685 1.93898 16.1443C4.88779 17.4146 7.83302 18.6944 10.7789 19.9718C11.0899 20.1067 11.402 20.2375 11.7214 20.373C11.7274 20.3264 11.7327 20.3043 11.7327 20.2822C11.7327 17.8915 11.7315 15.5014 11.7381 13.1108C11.7381 12.9603 11.6617 12.9233 11.5537 12.8803C10.752 12.5622 9.95151 12.2422 9.15104 11.9223C8.8287 11.7933 8.50576 11.6644 8.15835 11.5253H8.15775ZM17.788 21.288C19.9614 21.3042 21.7271 19.5588 21.7438 17.3782C21.7605 15.2287 19.9996 13.4432 17.8459 13.4259C15.6874 13.4086 13.8912 15.1672 13.8793 17.3095C13.8673 19.5086 15.5996 21.2719 17.788 21.288ZM22.4595 6.91706C22.3753 6.96302 22.324 6.98929 22.2744 7.01913C19.0522 8.95258 15.8312 10.8872 12.6066 12.8159C12.4765 12.8935 12.4455 12.98 12.4461 13.1197C12.4496 15.4286 12.4485 17.7375 12.4491 20.0464V20.2775C12.8806 20.0053 13.2728 19.7569 13.6805 19.4997C13.1504 18.4103 13.012 17.2886 13.3355 16.127C13.6614 14.9577 14.3497 14.0545 15.374 13.4044C17.0961 12.3115 19.8479 12.4088 21.5229 14.5291C21.7724 14.3721 22.019 14.2061 22.2756 14.0587C22.4135 13.9793 22.4661 13.8886 22.4649 13.725C22.4571 12.4213 22.4607 11.1182 22.4607 9.81454V6.91646L22.4595 6.91706ZM21.9999 6.34878C21.933 6.31774 21.9091 6.30521 21.8835 6.29506C20.7487 5.84856 19.6151 5.39908 18.4768 4.96332C18.3873 4.9293 18.2422 4.95735 18.1563 5.01048C15.0337 6.93676 11.9154 8.8696 8.79646 10.8019C8.73856 10.8377 8.68245 10.8777 8.60306 10.9308C9.7014 11.3695 10.7663 11.7898 11.8259 12.2231C11.9966 12.293 12.1219 12.281 12.2777 12.1873C14.9866 10.5553 17.6996 8.9287 20.4114 7.30148C20.9278 6.99167 21.4441 6.68187 21.9993 6.34819L21.9999 6.34878ZM15.6987 3.86199C14.7783 3.50085 13.899 3.16001 13.0233 2.80842C12.886 2.7535 12.7803 2.75708 12.6502 2.82633C9.28355 4.61889 5.9151 6.40788 2.54665 8.19806C2.44995 8.2494 2.35504 8.30491 2.23446 8.37236C2.31504 8.40818 2.36578 8.43325 2.41771 8.45414C3.54232 8.90422 4.66872 9.35132 5.79094 9.80737C5.93122 9.86468 6.0315 9.85334 6.15745 9.77514C8.66573 8.21657 11.1764 6.66277 13.6871 5.10778C14.3443 4.70067 15.0009 4.29417 15.6993 3.8614L15.6987 3.86199ZM6.81885 10.2049C7.10776 10.3195 7.35668 10.4091 7.59724 10.5177C7.72498 10.5756 7.82049 10.5679 7.94226 10.492C10.9376 8.63203 13.9354 6.77678 16.9326 4.92034C17.1075 4.8117 17.2812 4.70127 17.4835 4.57353C17.2042 4.4631 16.9523 4.37415 16.7111 4.26313C16.5714 4.19926 16.4693 4.22194 16.344 4.29954C13.8417 5.85334 11.337 7.40355 8.83287 8.95437C8.17626 9.36087 7.51964 9.76917 6.81885 10.2037V10.2049ZM7.44263 12.8989C7.44263 12.3628 7.44442 11.8656 7.43965 11.3683C7.43965 11.3194 7.40801 11.2424 7.371 11.2263C7.04687 11.0884 6.71737 10.9618 6.37593 10.8263V12.4691C6.71797 12.607 7.06 12.7442 7.44263 12.8983V12.8989Z" fill="white"/>
<path d="M2.08056 13.8203C2.67509 14.0579 3.23143 14.2782 3.78597 14.505C3.82238 14.5199 3.86178 14.5784 3.86357 14.6184C3.87193 14.7933 3.86715 14.9688 3.86715 15.1771C3.27441 14.9395 2.7121 14.7163 2.15219 14.4865C2.11816 14.4728 2.08533 14.4113 2.08354 14.3701C2.07578 14.2006 2.08056 14.0304 2.08056 13.8203Z" fill="white"/>
<path d="M3.86765 16.2853C3.27789 16.0495 2.72036 15.8281 2.16522 15.6C2.12582 15.5839 2.08642 15.5153 2.08404 15.4687C2.07449 15.2998 2.08046 15.1297 2.08046 14.9297C2.66723 15.1637 3.23133 15.3863 3.79244 15.6167C3.83064 15.6323 3.86168 15.7081 3.86467 15.7576C3.87362 15.9206 3.86825 16.0841 3.86825 16.2859L3.86765 16.2853Z" fill="white"/>
<path d="M17.1386 19.641C16.3501 19.01 15.5842 18.397 14.8076 17.7756C14.9551 17.5912 15.0935 17.418 15.2529 17.2193C15.8504 17.6962 16.4408 18.1672 17.0544 18.6573C18.0083 17.5846 18.9604 16.5149 19.9257 15.4297C20.1047 15.5867 20.2749 15.7365 20.4617 15.9013C19.3538 17.1476 18.2537 18.3863 17.138 19.641H17.1386Z" fill="white"/>
</g>
<defs>
<clipPath id="clip0_4356_71055">
<rect width="22.1782" height="20" fill="white" transform="translate(1 2)"/>
</clipPath>
</defs>
</svg>
