<svg width="24" height="24" viewBox="0 0 24 24" fill="none" xmlns="http://www.w3.org/2000/svg">
<g clip-path="url(#clip0_4356_70826)">
<path d="M16.5512 17.6038C16.5313 17.5811 16.4238 17.5039 16.4087 17.5039H14.6102C14.5923 17.4332 14.6399 17.4229 14.6706 17.3824C17.3666 13.8139 21.0274 10.0327 18.143 5.34169C14.6474 -0.343907 5.82206 1.62526 5.0359 8.23308C4.63688 11.5888 7.6557 14.8927 9.5374 17.3824C9.56818 17.4229 9.61569 17.4326 9.59787 17.5039H7.79933C7.78421 17.5039 7.67676 17.5811 7.65678 17.6038L6.30207 21.5842C6.24753 21.7505 6.29937 21.9168 6.45595 22.0005H17.7521C17.8962 21.9244 17.954 21.7748 17.9151 21.6166L16.5507 17.6038H16.5512ZM5.77022 10.0759C4.88526 6.45559 8.08441 2.88711 11.6513 2.64251C14.5 2.44705 17.1965 4.17433 18.1673 6.85352C19.0857 9.38693 18.2618 11.1261 16.9303 13.2567C15.5761 15.4246 13.8429 17.4029 12.1183 19.2792C12.0465 19.2916 11.2307 18.3635 11.113 18.2317C9.32466 16.2323 6.40249 12.6649 5.76968 10.0759H5.77022ZM7.05205 21.3839L8.16919 18.1561L10.1762 18.1588L11.3365 19.4439H9.41645C9.20749 19.4439 8.99476 20.0438 9.53578 20.0924L14.7489 20.088C15.1647 20.0233 15.0135 19.4439 14.7916 19.4439H12.8715L14.0319 18.1588L16.0388 18.1561L17.156 21.3839H7.05205Z" fill="black"/>
<path d="M16.9205 11.7482C19.0263 7.91998 16.0259 3.29322 11.6917 3.60908C7.68914 3.90119 5.3242 8.3271 7.32792 11.8292C9.44936 15.5364 14.8607 15.4927 16.9205 11.7482ZM11.8391 13.9457C11.8019 13.9436 11.7382 13.9371 11.6583 13.9268C11.4185 13.9047 11.1842 13.8658 10.9558 13.8102C10.7582 13.7697 10.5919 13.7254 10.5357 13.6876C10.147 13.5548 9.78034 13.3739 9.44288 13.152C9.38942 13.1191 9.33921 13.0856 9.29871 13.0538C8.56385 12.5322 7.98017 11.8113 7.62597 10.9701C7.48451 10.6386 7.38516 10.2973 7.32468 9.95178C7.32306 9.9426 7.32144 9.93342 7.31982 9.92371C7.31496 9.89509 7.30956 9.86593 7.30525 9.83732C7.26745 9.59272 7.24747 9.34273 7.24747 9.08788C7.24747 6.40436 9.4229 4.2284 12.107 4.2284C14.791 4.2284 16.9664 6.40382 16.9664 9.08788C16.9664 10.7396 16.1425 12.1979 14.8833 13.0764C14.8412 13.1094 14.7921 13.1418 14.7408 13.172C14.4082 13.3869 14.048 13.5624 13.6663 13.6914C13.5659 13.7611 13.3159 13.8172 13.0292 13.8593C12.7306 13.9166 12.4228 13.9468 12.1075 13.9468C12.0773 13.9468 12.047 13.9463 12.0168 13.9457C11.9439 13.9474 11.8829 13.9474 11.8397 13.9452L11.8391 13.9457Z" fill="black"/>
<path d="M7.3242 9.95776C7.32258 9.94858 7.32096 9.93941 7.31934 9.92969C7.32096 9.93887 7.32258 9.94858 7.3242 9.95776Z" fill="white"/>
</g>
<defs>
<clipPath id="clip0_4356_70826">
<rect width="14.1967" height="20" fill="white" transform="translate(5 2)"/>
</clipPath>
</defs>
</svg>
