<svg width="25" height="24" viewBox="0 0 25 24" fill="none" xmlns="http://www.w3.org/2000/svg">
<g clip-path="url(#clip0_4404_70543)">
<path d="M2.66553 18.1305V2H18.7971V2.22527C18.7971 4.97594 18.7993 7.72606 18.7923 10.4767C18.7923 10.6648 18.8521 10.737 19.0213 10.8044C21.4723 11.7766 22.9345 14.2643 22.6256 16.9201C22.3309 19.4547 20.305 21.5392 17.7554 21.931C15.0597 22.3454 12.4545 20.8564 11.4608 18.3245C11.402 18.1753 11.3363 18.1257 11.1741 18.1257C8.42393 18.1316 5.6738 18.13 2.92367 18.13H2.66553V18.1305ZM8.13614 7.64684V2.64401H3.31385V17.4693H11.1773C10.8006 15.395 11.2748 13.5707 12.7677 12.0833C14.2578 10.598 16.0842 10.1324 18.1413 10.5101V2.64671H13.3093V7.63229C13.229 7.60211 13.167 7.58163 13.1072 7.55577C12.3726 7.24157 11.6375 6.929 10.9051 6.60942C10.786 6.55714 10.6869 6.54798 10.564 6.60349C10.1296 6.79965 9.68986 6.98289 9.25171 7.17043C8.88956 7.32564 8.52686 7.47978 8.13668 7.6463L8.13614 7.64684ZM16.8716 11.0281C14.0498 11.0151 11.713 13.3185 11.6957 16.13C11.6779 19.009 13.9678 21.3425 16.8274 21.3587C19.6745 21.3748 22.0113 19.0715 22.0247 16.2368C22.0382 13.367 19.7376 11.0415 16.8716 11.0281ZM8.79686 2.64186V6.65361C8.87716 6.62235 8.94507 6.59864 9.01135 6.57007C9.53627 6.34642 10.059 6.11792 10.5872 5.90289C10.6685 5.87001 10.7844 5.87055 10.8674 5.90181C11.1498 6.00798 11.4241 6.13516 11.7022 6.25319C12.0153 6.3863 12.3284 6.51888 12.6523 6.6563V2.64186H8.7974H8.79686Z" fill="#171719"/>
<path d="M16.6828 13.4615H17.3273V16.9882H13.8022V16.3668H16.6828V13.4609V13.4615Z" fill="#171719"/>
</g>
<defs>
<clipPath id="clip0_4404_70543">
<rect width="20.0005" height="20" fill="white" transform="translate(2.66553 2)"/>
</clipPath>
</defs>
</svg>
