<svg width="24" height="24" viewBox="0 0 24 24" fill="none" xmlns="http://www.w3.org/2000/svg">
<g clip-path="url(#clip0_4404_70550)">
<path d="M21.9962 15.2711C21.993 14.7176 21.5759 14.3086 21.0219 14.2989C20.8963 14.2967 20.7707 14.2989 20.6522 14.2989C20.3843 13.1558 20.1224 12.0419 19.8621 10.9275C19.7339 10.3799 19.3895 10.1029 18.8296 10.1018C17.9151 10.1008 17.0005 10.1018 16.086 10.1018H15.8591V7.52047H13.2772C13.1667 6.28151 12.6941 5.22202 11.8071 4.36461C10.9141 3.50128 9.83736 3.04752 8.59841 3.00333C7.49364 2.96399 6.48426 3.27332 5.59345 3.92918C4.38845 4.81676 3.74553 6.02823 3.6011 7.52478H2V19.1496H4.27042C4.33994 19.6093 4.53503 19.9951 4.84814 20.3594C5.20974 20.748 5.70608 21.0094 6.26277 21.0686H6.74617C7.27592 21.0126 7.75124 20.7733 8.10746 20.4155H8.10638C8.44482 20.0485 8.66038 19.6405 8.73798 19.1496H16.2073C16.211 19.1728 16.2159 19.1954 16.2202 19.218C16.3107 19.6659 16.5085 20.0614 16.8443 20.4155H16.8432C17.1994 20.7733 17.6747 21.0126 18.2045 21.0686H18.6879C19.2133 21.0126 19.6854 20.7771 20.0405 20.4241H20.0357C20.3962 20.0453 20.6015 19.6308 20.684 19.1415H20.6851C20.7999 19.1415 20.906 19.1431 21.0116 19.1415C21.5775 19.1323 21.9919 18.7233 21.9946 18.1569C21.9989 17.195 22 16.2336 21.9946 15.2716L21.9962 15.2711ZM8.46853 3.64517C10.7551 3.65218 12.6365 5.53998 12.637 7.82872C12.6375 10.1482 10.7589 12.0381 8.45398 12.0376C6.11457 12.0365 4.24725 10.1622 4.24563 7.81417C4.24456 5.51626 6.14691 3.63816 8.46853 3.64517ZM6.5042 20.4322C5.61177 20.4311 4.88909 19.7057 4.89071 18.8133C4.89233 17.9225 5.62363 17.1982 6.5139 17.2047C7.40472 17.2111 8.12201 17.9392 8.1177 18.8343C8.11393 19.7128 7.38586 20.4333 6.50366 20.4322H6.5042ZM15.2071 18.4857H8.74337C8.74176 18.4754 8.73906 18.4657 8.73744 18.4555C8.61781 17.8368 8.31709 17.3324 7.7992 16.9686C7.37239 16.6685 6.89384 16.5364 6.37271 16.5612C6.33337 16.5628 6.29403 16.5666 6.25523 16.5704C5.89578 16.6097 5.56219 16.7337 5.27387 16.9212C4.77808 17.2521 4.41431 17.7926 4.26989 18.4673C4.26881 18.4738 4.26719 18.4797 4.26557 18.4862H2.64076V8.17901H3.6011C3.75792 9.73485 4.45635 10.9927 5.77021 11.8765C6.65671 12.473 7.64669 12.7393 8.71265 12.6751C9.92736 12.6018 10.9782 12.1357 11.8448 11.2783C12.7054 10.4263 13.1689 9.38348 13.2751 8.17362H15.2076V18.4857H15.2071ZM19.971 14.2989H17.4931V11.7293H19.3771C19.5717 12.5722 19.7684 13.4221 19.9705 14.2989H19.971ZM15.8758 10.7475C15.9772 10.7475 16.0693 10.7475 16.1615 10.7475C17.0544 10.7475 17.9479 10.7464 18.8409 10.748C19.0797 10.748 19.1723 10.8283 19.209 11.0649H16.8399V14.2892H15.8753V10.7469L15.8758 10.7475ZM18.4303 20.4317C17.5405 20.4241 16.8254 19.6912 16.834 18.7966C16.8426 17.9166 17.5718 17.1998 18.454 17.2047C19.3453 17.2095 20.0637 17.9365 20.061 18.8306C20.0583 19.7181 19.3243 20.4392 18.4303 20.4317ZM20.8484 18.4959C20.8015 18.4959 20.7551 18.4959 20.691 18.4959C20.684 18.4592 20.6759 18.4231 20.6678 18.387C20.5212 17.742 20.1812 17.2268 19.6019 16.8786C19.4224 16.7708 19.2359 16.69 19.043 16.6367C19.0392 16.6356 19.036 16.6345 19.0322 16.6334C19.0155 16.6291 18.9983 16.6248 18.9816 16.6205C18.9611 16.6156 18.9406 16.6108 18.9201 16.6065C18.9104 16.6043 18.9002 16.6022 18.8905 16.6C18.8592 16.5941 18.828 16.5882 18.7967 16.5833C18.7946 16.5833 18.7924 16.5828 18.7903 16.5822C18.7558 16.5768 18.7207 16.5725 18.6852 16.5688C18.6739 16.5677 18.6625 16.5666 18.6507 16.5661C18.6307 16.5644 18.6108 16.5628 18.5909 16.5617C18.5688 16.5607 18.5467 16.5591 18.5246 16.5585C18.5203 16.5585 18.5154 16.5585 18.5111 16.5585C18.4249 16.5564 18.3381 16.5591 18.2503 16.5671C18.108 16.5795 17.9711 16.6043 17.8396 16.6404C17.8186 16.6464 17.797 16.6517 17.776 16.6588C17.7744 16.6588 17.7728 16.6598 17.7706 16.6604C17.5659 16.7245 17.374 16.8167 17.1989 16.9331C16.7187 17.2575 16.3711 17.7791 16.2164 18.4431C16.2127 18.4587 16.2089 18.4738 16.2056 18.4889H15.8796V14.945H16.0887C17.6887 14.945 19.2882 14.945 20.8882 14.945C21.2579 14.945 21.3517 15.0388 21.3517 15.4096C21.3517 16.2702 21.3517 17.1308 21.3517 17.9915C21.3517 18.4172 21.2692 18.4997 20.8478 18.497L20.8484 18.4959Z" fill="#171719"/>
<path d="M8.75254 4.625H8.10801V7.5308H5.22754V8.15216H8.75254V4.625Z" fill="#171719"/>
<path d="M6.50389 17.8516C5.9763 17.8521 5.5414 18.2832 5.53763 18.8097C5.53332 19.3454 5.96876 19.7846 6.50605 19.7868C7.03095 19.7889 7.47016 19.3535 7.47231 18.8286C7.47447 18.2902 7.03957 17.851 6.50389 17.8516ZM6.51629 19.1401C6.34384 19.1471 6.1924 19.0086 6.1827 18.8356C6.17246 18.6551 6.32013 18.4983 6.50174 18.4972C6.67527 18.4961 6.82131 18.6378 6.82562 18.8114C6.82993 18.9838 6.68982 19.1331 6.51629 19.1401Z" fill="#171719"/>
<path d="M18.4532 17.8516C17.917 17.8489 17.4783 18.2876 17.4805 18.8232C17.4826 19.3578 17.9245 19.7911 18.4624 19.7868C18.9862 19.7825 19.4189 19.3406 19.4152 18.8151C19.4108 18.2854 18.9808 17.8543 18.4537 17.8516H18.4532ZM18.436 19.1401C18.263 19.1342 18.1223 18.986 18.125 18.813C18.1282 18.6314 18.2867 18.4853 18.4667 18.4977C18.6402 18.5096 18.776 18.6621 18.7679 18.8345C18.7593 19.0075 18.6084 19.146 18.436 19.1401Z" fill="#171719"/>
</g>
<defs>
<clipPath id="clip0_4404_70550">
<rect width="20" height="18.068" fill="white" transform="translate(2 3)"/>
</clipPath>
</defs>
</svg>
