<svg width="25" height="24" viewBox="0 0 25 24" fill="none" xmlns="http://www.w3.org/2000/svg">
<g clip-path="url(#clip0_4404_70566)">
<path d="M22.3308 13.3913C22.3308 13.3073 22.3044 13.2194 22.2726 13.1402C21.6351 11.5402 20.9927 9.94239 20.359 8.3408C20.3056 8.20661 20.234 8.18182 20.1052 8.18236C18.6528 8.18613 17.2005 8.18506 15.7482 8.18506H15.551V13.0125H13.9348V4H4.25142V13.0313H2.3335V17.8728H4.60332C4.6793 18.3642 4.8981 18.7733 5.24407 19.1591C5.58303 19.4943 6.02708 19.7239 6.52233 19.7928H7.15768C7.66047 19.7223 8.11045 19.4873 8.45103 19.144H8.44672C8.77437 18.7786 9.00016 18.3707 9.07345 17.8776H16.5436C16.6271 18.3551 16.8292 18.7722 17.1811 19.144H17.1714C17.512 19.4878 17.962 19.7228 18.4648 19.7928H19.1001C19.5981 19.7228 20.0448 19.4916 20.3843 19.1532H20.3746C20.7314 18.7733 20.941 18.3556 21.0229 17.8636H22.326C22.3292 17.8135 22.333 17.7806 22.333 17.7483C22.333 16.296 22.334 14.8431 22.3308 13.3908V13.3913ZM8.14548 4.64775H10.0612V6.8195C9.42212 6.55221 8.79053 6.51556 8.14548 6.83782V4.64775ZM4.91696 4.64506H7.47779V7.63107C7.96818 7.50928 8.42786 7.38749 8.89184 7.28564C9.02872 7.25546 9.18339 7.256 9.32027 7.28618C9.77833 7.38695 10.2315 7.50767 10.709 7.62568V4.63428C11.5621 4.63428 12.3817 4.63428 13.2008 4.63428C13.2262 4.63428 13.2515 4.64075 13.2855 4.64506V13.0119H4.91696V4.64506ZM6.82195 19.1602C5.93277 19.1521 5.21766 18.4187 5.22682 17.5236C5.23598 16.6435 5.96565 15.9279 6.84782 15.9333C7.73915 15.9387 8.45696 16.6662 8.45372 17.5607C8.45049 18.4483 7.71598 19.1683 6.82195 19.1602ZM15.545 17.2094H9.088C9.08531 17.1991 9.08207 17.1894 9.07938 17.1792C8.72263 15.9306 7.90028 15.258 6.76483 15.2893C5.85302 15.3146 4.8399 15.936 4.60009 17.2169H2.98233V13.6856H15.545V17.2094ZM20.401 10.2345C20.6866 10.9205 20.9604 11.6113 21.2358 12.3017C21.2428 12.3184 21.2368 12.3405 21.2368 12.3707H17.5012V10.1213H18.2907C18.9293 10.1213 19.5679 10.1181 20.2059 10.1262C20.2733 10.1272 20.3778 10.179 20.401 10.2345ZM18.7784 19.1602C17.8865 19.1575 17.166 18.4305 17.1693 17.5376C17.1725 16.6559 17.8962 15.9333 18.7763 15.9333C19.6773 15.9333 20.4021 16.664 20.3962 17.5672C20.3902 18.4456 19.6611 19.1634 18.7784 19.1607V19.1602ZM21.6879 17.2088H21.0304C21.0272 17.1975 21.024 17.1868 21.0207 17.176C20.6559 15.9187 19.8314 15.2527 18.6879 15.2888C17.6327 15.3222 16.7872 16.0756 16.5436 17.2099H16.216V8.83927C16.2742 8.83658 16.3383 8.83065 16.4024 8.83065C17.4915 8.83011 18.5806 8.83335 19.6692 8.82634C19.8152 8.82526 19.8848 8.87107 19.9268 9.00579C19.9742 9.15776 20.0416 9.30326 20.11 9.47517H16.8567V13.027H21.2169C21.5424 13.027 21.6717 13.1494 21.6852 13.4835C21.6922 13.6581 21.6868 13.8332 21.6868 14.0078C21.6868 15.0694 21.6868 16.1316 21.6868 17.2088H21.6879Z" fill="#171719"/>
<path d="M6.86172 16.4142C6.23553 16.4061 5.72412 16.8992 5.71118 17.5227C5.69825 18.1424 6.2005 18.664 6.81915 18.6732C7.44265 18.6824 7.95891 18.185 7.96969 17.5647C7.97993 16.9423 7.4793 16.4217 6.86226 16.4142H6.86172ZM7.32248 17.5701C7.309 17.8261 7.0859 18.0325 6.82885 18.0271C6.56425 18.0211 6.34816 17.7927 6.35732 17.5281C6.36648 17.2624 6.59712 17.049 6.86118 17.0614C7.12686 17.0738 7.33703 17.3055 7.32302 17.5706L7.32248 17.5701Z" fill="#171719"/>
<path d="M18.8031 16.4141C18.1769 16.4066 17.666 16.9002 17.6531 17.5237C17.6407 18.1435 18.1434 18.6646 18.7621 18.6732C19.3856 18.6818 19.9013 18.1839 19.9116 17.5636C19.9218 16.9412 19.4206 16.4212 18.8031 16.4141ZM18.7874 18.0265C18.5218 18.0292 18.2997 17.8093 18.2992 17.5437C18.2992 17.2861 18.5099 17.0678 18.767 17.0608C19.0326 17.0533 19.259 17.2683 19.2654 17.534C19.2719 17.7986 19.0536 18.0238 18.7874 18.0265Z" fill="#171719"/>
</g>
<defs>
<clipPath id="clip0_4404_70566">
<rect width="20" height="15.7934" fill="white" transform="translate(2.3335 4)"/>
</clipPath>
</defs>
</svg>
