<svg width="24" height="24" viewBox="0 0 24 24" fill="none" xmlns="http://www.w3.org/2000/svg">
<g clip-path="url(#clip0_4356_70868)">
<path d="M21.9048 15.1202C21.9853 15.4351 22.1546 15.7226 22.2459 16.0446C23.2019 19.4117 20.384 22.5242 16.9453 21.9255C15.8438 21.7334 14.6958 21.0595 14.0881 20.1167C13.472 20.4148 12.8906 20.9391 12.2894 21.2402C12.2059 21.282 12.1248 21.3446 12.0246 21.3148L1.01676 16.5384L1.00781 8.22734L12.7051 2.01193L12.85 2L23.1297 6.05415L23.1506 14.2901C23.1482 14.3569 23.1065 14.3855 23.0605 14.4237C22.76 14.6712 22.2441 14.9055 21.9048 15.1208V15.1202ZM15.6518 3.86784L12.7904 2.77409L2.52678 8.21899L2.2596 8.41997L6.01079 9.87512L15.6518 3.86784ZM6.85765 10.2502L7.82616 10.5747L17.4367 4.60377C17.4385 4.55606 16.6185 4.24177 16.5565 4.23223C16.507 4.22448 16.467 4.23044 16.4247 4.25847L6.9143 10.1489L6.85824 10.2502H6.85765ZM21.9465 6.32312L18.4559 4.96875L18.2406 4.95742L8.59906 10.9647L11.9113 12.2743L12.1266 12.2857L21.8904 6.4245L21.9465 6.32252V6.32312ZM22.4373 6.94752L12.4379 12.9518V20.2508L13.6396 19.5078C13.5364 19.1607 13.3766 18.838 13.2889 18.4844C12.3908 14.8572 15.9213 11.7269 19.425 13.018C20.2409 13.3186 20.9386 13.8619 21.4831 14.534L22.4373 13.9346V6.94812V6.94752ZM1.72406 8.95611V16.0315L11.7235 20.3838V12.9959L8.15237 11.545V13.5315C8.15237 13.739 7.82377 13.8005 7.64963 13.7665C7.43732 13.7247 6.06387 13.1695 5.86468 13.0514C5.7305 12.9715 5.67027 12.888 5.65178 12.7288C5.61421 12.4091 5.70724 10.6176 5.64701 10.524L1.72406 8.95611ZM7.43792 11.2331L6.36683 10.8311V12.4604C6.70796 12.6322 7.07294 12.786 7.43792 12.8844V11.2325V11.2331ZM17.6961 13.4331C14.8562 13.5023 12.9967 16.5491 14.2742 19.1058C15.6899 21.9398 19.7691 22.034 21.2553 19.2245C22.6616 16.5658 20.6941 13.3597 17.6967 13.4331H17.6961Z" fill="#171719"/>
<path d="M3.86427 14.5342V15.1592L2.07812 14.4894V13.8203L3.86427 14.5342Z" fill="#171719"/>
<path d="M2.07812 14.9375L3.81954 15.6293C3.89766 15.6943 3.87381 16.2776 3.84101 16.2776L2.07812 15.6072V14.9375Z" fill="#171719"/>
<path d="M16.8986 15.9234H18.2154C19.1893 15.9234 20.1727 16.821 20.2866 17.7811C20.4303 18.9941 19.4887 20.2537 18.2154 20.2537H16.0058V19.4945H18.3943C18.8362 19.4945 19.336 18.9649 19.4779 18.5695C19.7839 17.7179 19.1708 16.6379 18.216 16.6379H16.8992L18.2631 18.0221C18.2929 18.0554 18.281 18.0763 18.2631 18.1103C18.2255 18.1837 17.8206 18.5749 17.7473 18.5373L15.5156 16.3027L17.7473 14.0681C17.863 14.0085 18.1713 14.4438 18.2816 14.5172L16.8986 15.9234Z" fill="#171719"/>
</g>
<defs>
<clipPath id="clip0_4356_70868">
<rect width="22.1428" height="20" fill="white" transform="translate(1.00781 2)"/>
</clipPath>
</defs>
</svg>
