<svg width="25" height="24" viewBox="0 0 25 24" fill="none" xmlns="http://www.w3.org/2000/svg">
<g clip-path="url(#clip0_4404_70558)">
<path d="M22.9948 15.2711C22.9915 14.7176 22.5744 14.3086 22.0204 14.2989C21.8948 14.2967 21.7693 14.2989 21.6507 14.2989C21.3829 13.1558 21.121 12.0419 20.8607 10.9275C20.7324 10.3799 20.3881 10.1029 19.8281 10.1018C18.9136 10.1008 17.9991 10.1018 17.0845 10.1018H16.8577V7.52047H14.2758C14.1653 6.28151 13.6927 5.22202 12.8056 4.36461C11.9126 3.50128 10.8359 3.04752 9.59694 3.00333C8.49218 2.96399 7.4828 3.27332 6.59198 3.92918C5.38698 4.81676 4.74406 6.02823 4.59963 7.52478H2.99854V19.1496H5.26896C5.33848 19.6093 5.53356 19.9951 5.84667 20.3594C6.20828 20.748 6.70461 21.0094 7.26131 21.0686H7.74471C8.27446 21.0126 8.74977 20.7733 9.10599 20.4155H9.10492C9.44335 20.0485 9.65892 19.6405 9.73652 19.1496H17.2058C17.2096 19.1728 17.2144 19.1954 17.2187 19.218C17.3093 19.6659 17.5071 20.0614 17.8428 20.4155H17.8417C18.1979 20.7733 18.6733 21.0126 19.203 21.0686H19.6864C20.2118 21.0126 20.6839 20.7771 21.0391 20.4241H21.0342C21.3947 20.0453 21.6001 19.6308 21.6825 19.1415H21.6836C21.7984 19.1415 21.9046 19.1431 22.0102 19.1415C22.576 19.1323 22.9905 18.7233 22.9931 18.1569C22.9975 17.195 22.9985 16.2336 22.9931 15.2716L22.9948 15.2711ZM9.46706 3.64517C11.7537 3.65218 13.635 5.53998 13.6355 7.82872C13.6361 10.1482 11.7574 12.0381 9.45251 12.0376C7.11311 12.0365 5.24579 10.1622 5.24417 7.81417C5.24309 5.51626 7.14544 3.63816 9.46706 3.64517ZM7.50274 20.4322C6.61031 20.4311 5.88763 19.7057 5.88924 18.8133C5.89086 17.9225 6.62216 17.1982 7.51244 17.2047C8.40326 17.2111 9.12054 17.9392 9.11623 18.8343C9.11246 19.7128 8.38439 20.4333 7.5022 20.4322H7.50274ZM16.2056 18.4857H9.74191C9.74029 18.4754 9.7376 18.4657 9.73598 18.4555C9.61634 17.8368 9.31563 17.3324 8.79774 16.9686C8.37092 16.6685 7.89237 16.5364 7.37124 16.5612C7.3319 16.5628 7.29256 16.5666 7.25376 16.5704C6.89431 16.6097 6.56073 16.7337 6.27241 16.9212C5.77661 17.2521 5.41285 17.7926 5.26842 18.4673C5.26734 18.4738 5.26573 18.4797 5.26411 18.4862H3.6393V8.17901H4.59963C4.75646 9.73485 5.45488 10.9927 6.76874 11.8765C7.65525 12.473 8.64523 12.7393 9.71119 12.6751C10.9259 12.6018 11.9768 12.1357 12.8433 11.2783C13.704 10.4263 14.1674 9.38348 14.2736 8.17362H16.2061V18.4857H16.2056ZM20.9695 14.2989H18.4916V11.7293H20.3757C20.5702 12.5722 20.7669 13.4221 20.969 14.2989H20.9695ZM16.8744 10.7475C16.9757 10.7475 17.0678 10.7475 17.16 10.7475C18.053 10.7475 18.9465 10.7464 19.8395 10.748C20.0782 10.748 20.1709 10.8283 20.2075 11.0649H17.8385V14.2892H16.8738V10.7469L16.8744 10.7475ZM19.4288 20.4317C18.5391 20.4241 17.8239 19.6912 17.8326 18.7966C17.8412 17.9166 18.5703 17.1998 19.4525 17.2047C20.3439 17.2095 21.0622 17.9365 21.0595 18.8306C21.0568 19.7181 20.3229 20.4392 19.4288 20.4317ZM21.8469 18.4959C21.8 18.4959 21.7537 18.4959 21.6895 18.4959C21.6825 18.4592 21.6744 18.4231 21.6664 18.387C21.5198 17.742 21.1797 17.2268 20.6004 16.8786C20.4209 16.7708 20.2345 16.69 20.0415 16.6367C20.0378 16.6356 20.0345 16.6345 20.0308 16.6334C20.0141 16.6291 19.9968 16.6248 19.9801 16.6205C19.9596 16.6156 19.9391 16.6108 19.9187 16.6065C19.909 16.6043 19.8987 16.6022 19.889 16.6C19.8578 16.5941 19.8265 16.5882 19.7953 16.5833C19.7931 16.5833 19.7909 16.5828 19.7888 16.5822C19.7543 16.5768 19.7193 16.5725 19.6837 16.5688C19.6724 16.5677 19.6611 16.5666 19.6492 16.5661C19.6293 16.5644 19.6093 16.5628 19.5894 16.5617C19.5673 16.5607 19.5452 16.5591 19.5231 16.5585C19.5188 16.5585 19.514 16.5585 19.5096 16.5585C19.4234 16.5564 19.3366 16.5591 19.2488 16.5671C19.1065 16.5795 18.9697 16.6043 18.8382 16.6404C18.8171 16.6464 18.7956 16.6517 18.7746 16.6588C18.7729 16.6588 18.7713 16.6598 18.7692 16.6604C18.5644 16.7245 18.3725 16.8167 18.1974 16.9331C17.7172 17.2575 17.3696 17.7791 17.215 18.4431C17.2112 18.4587 17.2074 18.4738 17.2042 18.4889H16.8781V14.945H17.0872C18.6873 14.945 20.2867 14.945 21.8868 14.945C22.2565 14.945 22.3502 15.0388 22.3502 15.4096C22.3502 16.2702 22.3502 17.1308 22.3502 17.9915C22.3502 18.4172 22.2678 18.4997 21.8463 18.497L21.8469 18.4959Z" fill="#171719"/>
<path d="M7.50243 17.8516C6.97484 17.8521 6.53994 18.2832 6.53616 18.8097C6.53185 19.3454 6.96729 19.7846 7.50458 19.7868C8.02948 19.7889 8.46869 19.3535 8.47085 18.8286C8.473 18.2902 8.0381 17.851 7.50243 17.8516ZM7.51482 19.1401C7.34237 19.1471 7.19094 19.0086 7.18124 18.8356C7.171 18.6551 7.31866 18.4983 7.50027 18.4972C7.6738 18.4961 7.81985 18.6378 7.82416 18.8114C7.82847 18.9838 7.68835 19.1331 7.51482 19.1401Z" fill="#171719"/>
<path d="M19.4517 17.8516C18.9155 17.8489 18.4769 18.2876 18.479 18.8232C18.4812 19.3578 18.9231 19.7911 19.4609 19.7868C19.9847 19.7825 20.4175 19.3406 20.4137 18.8151C20.4094 18.2854 19.9793 17.8543 19.4523 17.8516H19.4517ZM19.4345 19.1401C19.2615 19.1342 19.1209 18.986 19.1235 18.813C19.1268 18.6314 19.2852 18.4853 19.4652 18.4977C19.6387 18.5096 19.7745 18.6621 19.7665 18.8345C19.7578 19.0075 19.6069 19.146 19.4345 19.1401Z" fill="#171719"/>
<path d="M8.99165 9.73951C8.27975 9.16988 7.58833 8.61642 6.88721 8.05541C7.02032 7.88889 7.14534 7.73261 7.28923 7.55315C7.82868 7.98374 8.36166 8.40894 8.91566 8.85138C9.77684 7.88296 10.6364 6.91724 11.5078 5.9375C11.6695 6.07923 11.8231 6.2145 11.9918 6.36324C10.9915 7.48848 9.99833 8.60672 8.99111 9.73951H8.99165Z" fill="#171719"/>
</g>
<defs>
<clipPath id="clip0_4404_70558">
<rect width="20" height="18.068" fill="white" transform="translate(2.99854 3)"/>
</clipPath>
</defs>
</svg>
