<svg width="24" height="24" viewBox="0 0 24 24" fill="none" xmlns="http://www.w3.org/2000/svg">
<g clip-path="url(#clip0_4356_70860)">
<path d="M2 18.1304V2H18.1272V2.22642C18.1272 4.98445 18.1288 7.74247 18.1235 10.5005C18.1235 10.6601 18.1682 10.7296 18.3195 10.7895C20.6421 11.7027 22.1137 13.9895 21.9935 16.4839C21.8562 19.3417 19.5993 21.7089 16.7602 21.973C14.1419 22.2167 11.7509 20.7498 10.7867 18.2996C10.7312 18.1584 10.6596 18.1271 10.5223 18.1277C7.76661 18.1309 5.0115 18.1304 2.25585 18.1304H2ZM7.47144 7.64328V2.63937H2.65282V17.4689H10.512C10.1355 15.3934 10.6101 13.5685 12.1015 12.0806C13.5909 10.5954 15.4163 10.1291 17.4722 10.5075V2.64207H12.6429V7.62926C12.5626 7.59907 12.5001 7.57805 12.4403 7.55271C11.7062 7.23842 10.9715 6.92574 10.2395 6.60605C10.1199 6.55376 10.0219 6.54568 9.89852 6.60066C9.37174 6.83571 8.83957 7.05944 8.30955 7.2864C8.04024 7.40176 7.77038 7.51659 7.47252 7.64328H7.47144ZM11.0297 16.1923C11.0307 19.049 13.3431 21.3596 16.2005 21.3601C19.0294 21.3601 21.3493 19.0436 21.3531 16.2144C21.3569 13.3464 19.0467 11.0288 16.1806 11.0261C13.3452 11.0234 11.028 13.3475 11.0297 16.1923ZM11.9906 2.64368H8.13288V6.65026C8.21314 6.61899 8.28154 6.59473 8.3478 6.5667C8.87242 6.34297 9.3949 6.1144 9.92276 5.8993C10.0041 5.86641 10.121 5.86641 10.2028 5.89876C10.5772 6.04647 10.9445 6.21143 11.3146 6.36939C11.5349 6.46319 11.7557 6.55538 11.9911 6.65457V2.64368H11.9906Z" fill="#171719"/>
<path d="M19.0261 13.8283L18.5576 13.3594L13.3564 18.565L13.8249 19.0339L19.0261 13.8283Z" fill="#171719"/>
<path d="M13.8249 13.3592L13.3564 13.8281L18.5576 19.0338L19.0261 18.5649L13.8249 13.3592Z" fill="#171719"/>
</g>
<defs>
<clipPath id="clip0_4356_70860">
<rect width="20" height="20" fill="white" transform="translate(2 2)"/>
</clipPath>
</defs>
</svg>
