<svg width="90" height="46" viewBox="0 0 90 46" fill="none" xmlns="http://www.w3.org/2000/svg">
<g clip-path="url(#clip0_4313_46120)">
<path d="M89.0012 42.9521C88.9333 42.7194 88.8679 42.4866 88.8 42.2514C88.4906 42.3905 88.1762 42.3096 87.8644 42.2767C87.9725 42.2817 88.0782 42.2843 88.1863 42.2893C88.4001 42.2969 88.5963 42.3197 88.7673 42.1629C88.5435 41.6696 88.2643 41.1915 88.1083 40.6755C87.8468 39.8154 87.0469 39.3297 86.725 38.5152C86.5288 38.0169 86.31 37.5034 85.8548 37.1594C85.6586 37 85.4322 36.9343 85.1832 36.9064C82.3788 36.5978 79.6096 36.059 76.8329 35.5658C75.3011 35.3052 73.7845 34.9561 72.2603 34.6602C69.1868 34.0632 66.0982 33.6231 62.9592 33.6155C62.2223 33.6281 61.4854 33.6205 60.7484 33.6231C59.9385 33.6054 59.1463 33.7546 58.349 33.8659C54.7825 34.3668 51.4725 35.5076 48.6857 37.8879C47.9815 38.4899 47.2194 39.0641 46.832 39.9647C46.8371 40.1696 46.9855 40.2606 47.1364 40.334C48.3763 40.9487 49.2265 41.9478 49.8729 43.1469C49.9886 43.3619 50.0942 43.5895 50.3683 43.6452C50.7557 43.7135 51.1304 43.6452 51.5027 43.5491C54.4379 42.7826 57.4385 42.5246 60.4541 42.4588C62.587 42.4133 64.7173 42.6081 66.8376 42.818C69.554 43.0887 72.2704 43.3391 74.9893 43.5845C75.4596 43.5845 75.9199 43.6983 76.3902 43.6983C80.3843 43.6983 84.3784 43.6983 88.3724 43.6958C88.6315 43.6958 88.9031 43.7236 89.1144 43.5111C89.0767 43.3239 89.0389 43.1367 89.0012 42.947V42.9521Z" fill="#E8E8E8"/>
<path d="M39.6843 34.1491C37.3477 33.0311 34.825 32.7629 32.2947 32.6162C29.9506 32.4796 27.6165 32.687 25.2875 33.0032C21.1551 33.5623 17.1132 34.5741 13.0386 35.4215C10.4128 35.9679 7.77441 36.4434 5.12594 36.8709C4.77131 36.9291 4.41918 36.9544 4.11233 37.1593C3.808 37.4072 3.71494 37.7866 3.52882 38.1079C3.23454 38.6087 3.05848 39.2639 2.63091 39.5801C2.15302 39.9342 1.9996 40.3567 1.82605 40.8398C1.5846 41.5101 1.32805 42.1729 1.07905 42.8407C1.23499 42.9899 1.42866 42.9444 1.61227 42.9495C1.68772 42.9495 1.76317 42.952 1.83863 42.9545C1.70533 42.9545 1.57202 42.9545 1.43872 42.9545C1.2702 42.9545 1.09917 42.9469 0.960838 43.0709C0.923111 43.2176 0.885384 43.3668 0.847656 43.5136C1.10923 43.7665 1.44375 43.7033 1.75311 43.6982C4.85431 43.6679 7.9555 43.7969 11.0542 43.5844C12.767 43.4427 14.4849 43.3593 16.1977 43.253C18.0086 43.1417 19.817 42.9899 21.6279 42.8609C24.128 42.6788 26.6306 42.5321 29.1357 42.4511C30.69 42.4006 32.2394 42.5599 33.7887 42.6662C35.4764 42.78 37.1389 43.0178 38.7562 43.5363C38.9448 43.5717 39.1309 43.6324 39.3271 43.5844C39.5711 43.4706 39.6541 43.2277 39.7647 43.0152C40.7104 41.1914 42.1843 40.1391 44.2317 39.9165C44.5159 39.8862 44.8403 39.9064 45.0265 39.6003C45.0265 39.3246 44.9032 39.0894 44.7775 38.8592C43.6004 36.7242 41.8624 35.1938 39.6868 34.1517L39.6843 34.1491Z" fill="#E8E8E8"/>
<path d="M64.8006 20.0771C66.438 18.9135 68.1861 17.9396 69.9643 17.0239C71.4935 16.2372 73.0504 15.5113 74.5947 14.7574C75.1656 14.5424 75.7366 14.3249 76.3955 14.0745C76.0384 15.3645 75.7014 16.5686 75.3719 17.7727C75.2587 18.1825 74.8814 18.0863 74.6223 18.1319C72.8366 18.4455 71.0634 18.8149 69.3003 19.2348C67.7912 19.594 66.2972 20.0139 64.8333 20.535C64.6774 20.5906 64.529 20.6918 64.3479 20.6437C64.2976 20.2921 64.7176 20.325 64.8006 20.0796V20.0771Z" fill="#E8E8E8"/>
<path d="M64.7986 20.0771C64.8288 20.4111 64.3785 20.3554 64.3458 20.6412C64.0994 20.793 63.8478 20.9397 63.5586 20.9903C63.883 20.5628 64.371 20.3605 64.7986 20.0797V20.0771Z" fill="#91806C"/>
<path d="M50.2638 43.5464C50.6461 43.5237 51.0335 43.5388 51.4082 43.4225C57.9954 43.2201 64.5827 43.3845 71.1699 43.3365C72.1608 43.3289 73.1518 43.3693 74.1377 43.4554C74.3943 43.4781 74.6609 43.5009 74.9174 43.425C79.329 43.64 83.7457 43.4807 88.1598 43.5287C88.4767 43.5312 88.7961 43.5211 89.113 43.5161C89.7267 43.6021 90.0285 43.8803 89.9958 44.3255C89.9631 44.7733 89.6337 45.006 89.0074 45.006C76.746 45.006 64.482 45.006 52.2206 45.011C51.9867 45.011 51.7302 44.925 51.5189 45.1147C51.0913 45.1881 50.6612 45.183 50.2362 45.1021C49.8941 45.0363 49.5747 44.9048 49.6124 44.4545C49.6476 44.3356 49.7055 44.2471 49.8438 44.3179C50.2991 44.5532 50.3141 44.3103 50.2311 43.9613C50.1984 43.8196 50.1381 43.678 50.2613 43.5489L50.2638 43.5464Z" fill="#5CA0D7"/>
<path d="M0.848915 43.5109C3.95011 43.4957 7.05382 43.6323 10.1525 43.4249C10.4694 43.4047 10.7863 43.4199 11.1032 43.4173C11.981 43.5337 12.8588 43.3996 13.7341 43.3819C14.5389 43.3667 15.3438 43.3364 16.1486 43.3364C23.2515 43.3263 30.3543 43.3364 37.4571 43.3237C37.9425 43.3237 38.4154 43.4679 38.9008 43.4123L39.3284 43.5362C39.4239 43.6551 39.3661 43.779 39.346 43.903C39.3208 44.0624 39.2252 44.2622 39.4214 44.3431C39.6352 44.4317 39.6755 44.2015 39.7559 44.0699C39.8565 43.9081 39.8892 43.6627 40.1735 43.7335C40.4577 43.9283 40.5432 44.2015 40.4375 44.5177C40.3118 44.887 40.0351 45.0944 39.6478 45.1324C39.0945 45.1855 38.5311 45.102 37.9853 45.2462C37.8545 44.9047 37.5602 45.0109 37.3162 45.0109C28.0479 45.0084 18.782 45.0084 9.51365 45.0084C6.68157 45.0084 3.84699 45.0084 1.01492 45.0084C0.713096 45.0084 0.408762 45.0287 0.187428 44.763C0.00130578 44.543 -0.0489974 44.2976 0.0490938 44.0244C0.184913 43.6475 0.489247 43.5413 0.8464 43.516L0.848915 43.5109Z" fill="#5CA0D7"/>
<path d="M46.6681 39.9897C46.7436 40.0049 46.8216 40.0201 46.897 40.0353C48.4941 40.7461 49.5002 42.0311 50.2673 43.5488C50.3 43.6728 50.3176 43.8018 50.3654 43.9181C50.4635 44.1559 50.5189 44.4013 50.2724 44.5632C49.9731 44.7605 49.8624 44.467 49.7165 44.2925C49.1255 42.5243 48.0993 41.0951 46.2456 40.6044C43.665 39.9214 41.0769 41.08 40.0457 43.7411C39.9678 43.9282 39.8923 44.118 39.8093 44.3026C39.7213 44.4974 39.6031 44.6871 39.3541 44.5834C39.1352 44.4923 39.0925 44.2849 39.1554 44.0648C39.2057 43.8878 39.2685 43.7132 39.3264 43.5362C39.9602 42.15 40.838 40.994 42.244 40.3084C43.1042 39.8885 44.0197 39.7469 44.9578 39.6963C45.0962 39.8405 45.2647 39.7696 45.4257 39.7671C45.657 39.7848 45.8884 39.8051 46.1198 39.8228C46.3034 39.8809 46.4845 39.9366 46.6681 39.9923V39.9897Z" fill="#E73F7D"/>
<path d="M60.6328 33.7747C61.4226 33.6002 62.2098 33.6002 62.9996 33.7747C62.2098 33.7747 61.4226 33.7747 60.6328 33.7747Z" fill="#C8C7B2"/>
<path d="M31.9118 40.8042C31.9042 40.2401 31.8967 39.676 31.8891 39.1144C31.7835 38.5503 31.9445 37.9787 31.8388 37.4171C31.8313 37.3311 31.8262 37.2476 31.8187 37.1616C31.7181 37.0503 31.7105 36.9365 31.8036 36.8151C31.8061 36.1119 31.8112 35.4086 31.8137 34.7054C31.8589 34.6574 31.9168 34.6346 31.9822 34.6397C33.7277 34.6219 35.4456 34.8445 37.1332 35.2923C37.3495 35.3505 37.5734 35.3859 37.757 35.5326C37.8073 35.5806 37.8199 35.6388 37.7972 35.7071C37.7545 37.9154 37.7117 40.1263 37.6664 42.4585C37.259 42.1575 36.9521 41.9298 36.6428 41.7022C36.4013 41.6263 36.185 41.5023 35.9888 41.3455C35.926 41.305 35.8706 41.257 35.8128 41.2114C34.5527 40.2249 35.028 40.2755 33.6774 41.0774C33.5516 41.1735 33.3957 41.1937 33.2523 41.2469C32.7921 41.3506 32.4626 41.7072 32.0048 41.9045C31.864 41.6617 31.9746 41.3936 31.9092 41.1583C31.8363 41.0394 31.8288 40.9231 31.9168 40.8067L31.9118 40.8042Z" fill="#E73F7D"/>
<path d="M50.4884 44.9882C50.0759 44.9275 49.6231 44.9149 49.7137 44.2901C49.8344 44.1282 49.7715 43.9587 49.7061 43.8094C49.2987 42.8937 48.8082 42.0362 48.0235 41.3836C47.025 40.5514 45.8856 40.2326 44.5878 40.3009C42.6008 40.4072 41.1672 41.3558 40.1837 43.0531C40.0681 43.2555 39.9272 43.4781 40.0429 43.7411C40.2894 43.946 40.4554 44.1939 40.302 44.5127C40.1485 44.8339 39.892 45.0186 39.5047 44.9958C39.1374 44.973 38.7652 44.9958 38.3955 44.9907C38.2018 44.9907 38.0182 44.9907 37.9805 45.2462C38.1037 45.8027 38.4986 46 39.0117 46C42.8322 46.0051 46.6527 46.0051 50.4733 46C51.0442 46 51.4315 45.7268 51.5171 45.1172C51.1976 44.8744 50.8304 45.0439 50.4884 44.9933V44.9882Z" fill="#2E7DC2"/>
<path d="M69.3796 42.8962C65.5188 42.5041 61.6606 42.1095 57.7721 42.403C55.6242 42.5649 53.4863 42.8229 51.4062 43.4198C51.5622 43.5792 51.7609 43.5134 51.9395 43.5134C59.3818 43.516 66.8242 43.516 74.2666 43.5134C74.4829 43.5134 74.7193 43.5868 74.9155 43.4224C73.0693 43.2478 71.2232 43.0834 69.3771 42.8962H69.3796Z" fill="#2E7DC2"/>
<path d="M38.8977 43.4124C38.5029 43.2935 38.1155 43.1518 37.7131 43.0582C34.7502 42.3727 31.7346 42.2336 28.7164 42.3044C22.8309 42.4435 16.9731 43.0886 11.0977 43.4199C11.2712 43.5894 11.49 43.5186 11.6887 43.5186C20.5823 43.5211 29.4734 43.5186 38.367 43.5186C38.5456 43.5186 38.7468 43.5869 38.8952 43.4149L38.8977 43.4124Z" fill="#2E7DC2"/>
<path d="M31.918 34.6853C32.1418 34.1667 32.6122 34.2249 33.0473 34.2021C34.6897 34.2932 36.312 34.5183 37.8814 35.0344C38.0248 35.2544 38.0399 35.4492 37.7707 35.5858C36.4402 35.2595 35.0971 35.0065 33.7339 34.8472C33.2485 34.789 32.7681 34.7991 32.2877 34.8143C32.1318 34.8194 31.9934 34.8699 31.918 34.6853Z" fill="#CD1C5D"/>
<path d="M76.3094 37.0784C74.2847 36.6484 72.2499 36.2689 70.2152 35.8819C67.8836 35.4392 65.5294 35.1585 63.1601 35.0396C59.8326 34.8726 56.6081 35.4494 53.4893 36.613C52.5311 36.9696 51.5854 37.3642 50.7227 37.9233C51.6457 37.6172 52.5411 37.2504 53.4592 36.9367C55.8938 36.107 58.3838 35.5581 60.9644 35.4696C63.6682 35.376 66.3317 35.6973 68.9953 36.1273C72.587 36.7065 76.1535 37.4123 79.7325 38.0624C80.4167 38.1863 81.0907 38.4089 81.8075 38.3381C79.9765 37.9131 78.1505 37.4629 76.3094 37.0733V37.0784Z" fill="#CDCDCD"/>
<path d="M50.7109 40.0025C56.9913 37.3389 63.498 37.3136 70.0978 38.3684C63.4704 36.9948 56.9435 36.795 50.7109 40.0025Z" fill="#CDCDCD"/>
<path d="M52.8867 41.247C57.9221 39.6559 63.0379 39.8532 68.1739 40.5261C63.0253 39.5826 57.9019 39.2132 52.8867 41.247Z" fill="#CDCDCD"/>
<path d="M32.5034 34.1238C30.6321 34.1187 28.7659 34.1238 26.8971 34.3211C25.0963 34.5108 23.308 34.7713 21.5273 35.0926C19.3768 35.4796 17.2691 36.0589 15.1362 36.5268C14.1176 36.7494 13.1166 37.0454 12.1055 37.3059C12.2337 37.3869 12.3469 37.397 12.4526 37.3717C16.009 36.5167 19.578 35.7477 23.2024 35.2191C26.0621 34.8017 28.9243 34.6271 31.8092 34.7056C31.8445 34.698 31.8822 34.6929 31.9174 34.6879C32.2595 34.4425 32.7021 34.4425 33.0467 34.2047C32.8782 34.0833 32.6845 34.1263 32.5009 34.1263L32.5034 34.1238Z" fill="#CDCDCD"/>
<path d="M31.4187 38.7022C29.2682 38.5428 27.1152 38.6491 24.9698 38.8009C23.169 38.9273 21.3706 39.1449 19.5848 39.4358C18.4052 39.628 17.2181 39.7646 16.0586 40.0833C21.3153 39.413 26.5669 38.6719 31.889 39.1145C31.9016 38.5479 31.7306 38.725 31.4187 38.7022Z" fill="#CDCDCD"/>
<path d="M18.2188 41.6744C22.7687 41.1811 27.3287 40.9535 31.9037 41.1558C31.9037 41.0395 31.9088 40.9231 31.9088 40.8042C27.3211 40.7081 22.746 40.8093 18.2188 41.6719V41.6744Z" fill="#CDCDCD"/>
<path d="M31.8151 37.1619C31.81 37.048 31.805 36.9317 31.8 36.8153C31.5887 36.7192 31.3623 36.7293 31.1385 36.7293C28.8924 36.7217 26.6615 36.9291 24.4381 37.1922C23.1403 37.3465 21.8475 37.5666 20.5547 37.7588C24.3023 37.3845 28.0373 36.8811 31.8176 37.1619H31.8151Z" fill="#CDCDCD"/>
<path d="M37.8841 35.0369C37.9067 35.2316 37.8791 35.4188 37.7734 35.5883C37.781 35.6263 37.7885 35.6667 37.7961 35.7047C39.8183 36.1903 41.4908 37.2983 43.0226 38.6668C41.7474 36.8278 39.9516 35.7401 37.8866 35.0369H37.8841Z" fill="#CDCDCD"/>
<path d="M35.7878 41.1939C35.0659 41.027 34.3466 40.8119 33.5971 41.0168C33.4361 41.0244 33.3305 41.1155 33.25 41.2445C34.3818 41.3963 35.5111 41.548 36.643 41.6998C36.4644 41.5531 36.2833 41.4064 36.1047 41.2597C35.984 41.3128 35.896 41.2192 35.7903 41.1939H35.7878Z" fill="#CDCDCD"/>
<path d="M73.2004 15.0685C72.046 15.41 70.2879 15.9564 68.1751 16.7152C61.0698 19.2676 55.9791 21.1546 51.7184 25.556C50.6797 26.6286 49.2184 28.3385 47.8426 30.82C47.6866 26.2441 47.1006 22.5206 46.5598 19.8772C46.092 17.5955 45.7349 15.8855 44.8898 13.5963C43.7076 10.4015 42.0426 7.45705 40.0531 4.69224C38.9942 3.22004 37.9001 1.78072 36.791 0.348993C36.5319 0.0150913 36.2854 -0.134153 35.8578 0.141569C34.0042 1.33552 32.1354 2.50165 30.2691 3.67283C28.833 4.57335 27.3918 5.46882 25.9531 6.36681C26.9315 7.27239 27.9074 8.18303 28.8607 9.11391C30.2314 10.4546 31.5871 11.8104 32.8799 13.232C33.8658 14.3172 34.8769 15.3822 35.8352 16.4901C37.9052 18.8805 39.8896 21.3418 41.693 23.9447C43.0009 25.8318 44.2861 27.7365 45.2444 29.8411C45.9864 31.4701 46.4643 33.1624 46.6554 34.9407C46.6705 35.0798 46.6051 35.31 46.8063 35.3378C46.8063 35.3404 46.8063 35.3429 46.8013 35.3479C46.8013 36.5293 46.8013 37.7106 46.8013 38.9804C47.8501 37.5284 48.8361 36.165 49.822 34.8016C50.066 34.8218 50.159 34.5663 50.2798 34.4095C52.0454 32.0873 53.9167 29.8538 55.8835 27.7062C58.195 25.1842 60.7202 22.8924 63.5699 20.9801L63.5623 20.9877C63.9849 20.6715 64.4653 20.4489 64.8954 20.1453C67.8381 18.2228 70.9393 16.5989 74.1361 15.1545C74.1914 15.1292 74.3398 15.0457 74.5486 14.9395C75.2905 14.56 75.9269 14.2717 76.3997 14.0718C75.698 14.2843 74.5787 14.6283 73.2055 15.066L73.2004 15.0685Z" fill="white"/>
<path d="M44.0184 33.8809C43.87 33.5546 43.689 33.246 43.4601 32.9677C43.3771 32.8944 43.2941 32.8185 43.2136 32.7426C43.191 32.6794 43.1633 32.6187 43.1306 32.563C41.6416 30.1169 39.8911 27.8732 37.9468 25.7889C36.6339 24.3824 35.2757 23.019 33.7993 21.782C31.7118 20.0316 29.5336 18.4051 27.3002 16.8545C26.699 16.4396 26.1004 16.0222 25.4993 15.6074C25.4993 15.6555 25.4918 15.6959 25.4742 15.7288C25.0516 15.2634 24.5662 14.8915 23.9248 14.7676C23.8645 14.8409 23.8192 14.932 23.7462 14.9826C22.8835 15.5619 22.0586 16.1917 21.2261 16.814C19.3598 18.2052 17.6621 19.7888 15.9643 21.3697C14.2591 22.9583 12.6821 24.6784 11.0824 26.3732C10.9793 26.4845 10.8686 26.5882 10.8711 26.7551C10.9919 26.9272 11.178 26.9803 11.3666 26.9727C11.9149 26.9499 12.4456 27.084 12.9864 27.1245C15.1494 27.2788 17.3074 27.4837 19.468 27.686C21.8875 27.9112 24.3021 28.1641 26.7141 28.4752C29.9486 28.8926 33.1555 29.4314 36.2994 30.3092C38.4775 30.9188 40.5878 31.6701 42.3962 33.0993C42.8263 33.4382 43.191 33.843 43.5808 34.2249C43.7116 34.3539 43.8826 34.5563 44.0537 34.4425C44.27 34.2983 44.104 34.063 44.0235 33.8834L44.0184 33.8809Z" fill="white"/>
<path d="M45.6297 39.2991C45.5693 38.8818 45.5341 38.4568 45.3329 38.0723C45.2524 37.9585 45.197 37.8295 45.1367 37.703C44.7242 35.8084 43.62 34.3311 42.1562 33.1093C40.876 32.0393 39.3418 31.4246 37.7773 30.8782C34.5705 29.7551 31.2505 29.1556 27.9028 28.6876C26.1472 28.4423 24.3891 28.2273 22.621 28.0907C20.8 27.949 18.984 27.7416 17.1656 27.5645C16.4538 27.5443 15.7495 27.3748 15.0302 27.4355C15.0277 27.4406 15.0227 27.4431 15.0201 27.4482C15.0101 27.4254 15 27.4001 14.9849 27.3748C14.5121 27.1952 14.0065 27.2079 13.5161 27.137C13.2646 27.1016 13.003 27.0181 12.7766 27.2205C12.7716 27.3394 12.7213 27.4355 12.6383 27.519C11.0713 29.1202 9.61506 30.8201 8.13112 32.4946C6.77042 34.0326 5.39211 35.5529 4.10938 37.1591C6.24223 36.9188 8.35245 36.5242 10.4526 36.1068C14.1122 35.3783 17.7541 34.5638 21.4112 33.81C23.9188 33.294 26.4515 32.9322 29.007 32.783C31.1926 32.6565 33.3833 32.7602 35.5514 33.1043C37.7195 33.4483 39.7668 34.1034 41.5526 35.4492C43.0466 36.5748 44.2664 37.9155 44.9531 39.6912C45.0537 39.9467 45.2448 39.8961 45.4385 39.8354C45.6347 39.7013 45.6573 39.5066 45.6271 39.2966L45.6297 39.2991Z" fill="white"/>
<path d="M46.5726 36.9519C46.5324 36.7874 46.4846 36.6255 46.4469 36.4611C46.4745 34.3059 46.0268 32.2368 45.1893 30.2511C43.9418 27.294 42.0328 24.7518 40.1489 22.1995C38.6122 20.1151 37.005 18.0839 35.3047 16.1336C33.8132 14.4236 32.3192 12.7136 30.6869 11.1327C30.1159 10.5281 29.5551 9.91594 28.9187 9.37715C28.9263 9.36197 28.9363 9.34932 28.9414 9.33162C28.5264 8.63346 27.8825 8.17814 27.2411 7.72282C27.2336 7.71776 27.2084 7.73547 27.1908 7.74306C27.1204 7.87965 27.0147 7.98083 26.8789 8.05419C24.6455 9.26838 22.5906 10.7532 20.5508 12.2583C20.7118 12.5062 20.9658 12.6327 21.2022 12.7845C25.0756 15.2609 28.9137 17.7879 32.5657 20.5932C34.9576 22.4322 37.1282 24.5014 39.0951 26.783C41.0619 29.0647 42.8427 31.4905 44.2637 34.1618C45.1315 35.7933 45.9036 37.4704 45.9765 39.3726C45.9841 39.5649 45.9615 39.8153 46.2759 39.8178C46.4871 39.7015 46.4771 39.4814 46.5148 39.2841C46.6582 38.5101 46.6305 37.731 46.5752 36.9519H46.5726Z" fill="white"/>
<path d="M85.5853 36.6078C83.8624 34.0504 82.1094 31.5132 80.4443 28.9204C79.9337 28.1262 79.3024 27.7391 78.4322 27.5216C76.2088 26.9676 73.9728 26.5148 71.7092 26.1582C70.4038 25.9533 69.0959 25.7054 67.788 25.6548C65.9268 25.5814 64.0555 25.5283 62.1943 25.842C60.2124 26.1784 58.3059 26.7223 56.5251 27.6708C56.3818 27.7467 55.5644 28.3336 55.5342 28.3437C55.3984 28.4727 55.2525 28.5916 55.1318 28.7333C54.1056 29.955 53.0593 31.1591 52.0658 32.4062C50.8409 33.9467 49.6386 35.5074 48.5647 37.1617C47.8453 38.042 47.2216 38.9906 46.6758 39.9873C46.7412 40.0631 46.8166 40.0758 46.9047 40.0328C47.0656 39.8051 47.204 39.5572 47.3901 39.3523C48.786 37.8371 50.4007 36.6356 52.2745 35.7654C54.9331 34.531 57.74 33.9644 60.6374 33.7721C61.4272 33.6836 62.2144 33.6861 63.0042 33.7721C64.1813 33.762 65.3458 33.9087 66.5179 33.9821C68.8872 34.1288 71.186 34.6777 73.5151 35.0597C74.6343 35.2443 75.7158 35.6136 76.8552 35.7022C77.3255 35.8919 77.8361 35.902 78.3266 35.9956C80.8266 36.4712 83.3368 36.881 85.8645 37.1592C85.8318 36.9467 85.7086 36.7823 85.5929 36.6103L85.5853 36.6078Z" fill="white"/>
<path d="M36.1028 41.2596C35.4538 41.3987 34.8427 41.0876 34.2038 41.0876C34.0026 41.0876 33.7989 41.042 33.5977 41.0167C33.8794 40.7031 34.2868 40.5817 34.6113 40.3312C34.8175 40.1719 34.9584 40.3414 35.0992 40.4527C35.4362 40.7183 35.7682 40.9914 36.1028 41.2596Z" fill="#E8E8E8"/>
<path d="M20.5515 12.2583C29.6237 17.2871 47.1871 30.8 45.7233 39.9139C45.1045 39.1728 45.2479 37.0657 44.2645 35.8591C39.1637 27.1194 16.5675 28.5082 10.7852 26.9879C21.9977 27.3395 39.8302 28.9154 44.0331 34.4096C37.9539 23.0241 28.1926 18.438 20.5515 12.2583Z" fill="#CDCDCD"/>
<path d="M49.8221 34.7965C53.7483 29.7627 58.019 24.443 63.565 20.9826C52.7246 28.4929 45.1288 44.3709 46.3965 38.95C47.5459 26.4464 32.4046 13.5002 26.8637 7.43682C26.494 7.23951 25.3748 5.84067 26.5267 6.70325C36.5999 16.5002 47.893 28.3689 46.9297 38.1406C46.5298 40.0276 48.7909 35.2316 49.8221 34.7965Z" fill="#CDCDCD"/>
</g>
<defs>
<clipPath id="clip0_4313_46120">
<rect width="90" height="46" fill="white"/>
</clipPath>
</defs>
</svg>
