<svg width="92" height="92" viewBox="0 0 92 92" fill="none" xmlns="http://www.w3.org/2000/svg">
<g clip-path="url(#clip0_4313_46182)">
<g clip-path="url(#clip1_4313_46182)">
<path d="M86.2099 41.1596C86.4377 40.284 86.7384 38.6079 87.0879 36.4175C88.877 25.1161 91.8736 0.0799946 91.8736 0.0799946C91.8736 0.0799946 73.9419 -13.9409 55.7274 -12.1263C55.7274 -12.1263 51.3209 -1.44285 46.5659 5.05924C41.8089 11.5546 36.0097 18.5609 35.1663 22.1037C34.4414 25.1626 29.5677 48.1429 28.2581 54.3329C28.0609 55.2625 28.715 56.1577 29.6573 56.2419C31.6445 56.421 34.9244 55.9276 37.2141 51.5186C40.7075 44.7966 43.0952 36.7045 45.9924 33.3526L47.5074 33.1017L48.9712 75.9811C49.001 76.7681 49.5952 77.4288 50.3853 77.5072C51.9076 77.6569 54.299 77.0804 55.4008 72.4466C57.066 65.4764 57.1221 57.3366 57.1275 57.0851C57.2431 57.2376 60.0845 61.0864 63.5553 60.2549C67.0916 59.3991 69.7649 51.9258 69.7649 51.9258C69.7649 51.9258 71.6379 53.8615 74.7168 52.1515C77.8025 50.4396 78.5403 44.5309 78.5403 44.5309C78.5403 44.5309 84.8295 46.5554 86.2159 41.1553L86.2099 41.1596Z" fill="#FFAEA3"/>
<path d="M62.9819 39.8673C62.9154 39.8312 62.831 39.8248 62.7549 39.8546C60.931 40.6097 58.7758 40.1674 57.044 39.8105C55.7055 39.5359 54.323 39.2524 53.0653 38.6941C52.9311 38.6345 52.7767 38.6949 52.7171 38.8291C52.6574 38.9632 52.7156 39.1182 52.8527 39.1794C54.1611 39.7615 55.5743 40.0504 56.9391 40.3318C58.7404 40.702 60.984 41.1641 62.9594 40.3471C63.0952 40.2898 63.1585 40.1351 63.1041 40.0009C63.0795 39.9426 63.0369 39.8971 62.9848 39.8689L62.9819 39.8673Z" fill="#301611"/>
<path d="M86.3394 40.92C86.5672 40.0444 86.868 38.3683 87.2174 36.178C85.0335 35.9165 80.3429 35.3123 79.8628 34.8968C79.2354 34.3528 76.1177 29.8921 73.898 29.8208C73.898 29.8208 70.1673 29.924 68.6948 32.7292C68.6948 32.7292 63.9135 30.0047 61.7632 35.4229L62.0772 36.4967L66.2735 46.9115L60.9311 49.9559C57.3602 48.2186 55.8642 50.6013 55.8642 50.6013C53.6891 52.9116 57.4432 57.0232 57.4432 57.0232L57.497 57.1552C58.2655 58.0844 60.7519 60.7211 63.681 60.0189C67.2174 59.163 69.8907 51.6898 69.8907 51.6898C69.8907 51.6898 71.7637 53.6255 74.8426 51.9155C77.9282 50.2036 78.6661 44.2949 78.6661 44.2949C78.6661 44.2949 84.9553 46.3194 86.3417 40.9193L86.3394 40.92Z" fill="#FFAEA3"/>
<path d="M66.5874 17.9651C66.4717 17.9024 66.3212 17.9349 66.2454 18.0472C66.2261 18.0724 64.356 20.7069 58.1275 26.6105C51.9505 32.4672 46.1622 32.8489 46.1047 32.8514C46.014 32.8565 45.9321 32.9075 45.8882 32.9884C45.853 33.0498 42.4745 39.1942 40.8008 42.6536C40.4096 43.4613 40.0073 44.493 39.5802 45.5879C38.1146 49.3398 36.2931 54.0101 33.067 55.1669C30.8911 55.9463 29.7698 55.7576 29.212 55.4646C28.8114 55.2512 28.6527 54.9538 28.6087 54.8383L35.5552 21.4549C35.5857 21.3124 35.4954 21.1718 35.3507 21.142C35.2082 21.1115 35.0682 21.204 35.0377 21.3465L28.0772 54.7971C28.0692 54.8358 28.0709 54.8742 28.0793 54.9105C28.0866 54.935 28.2317 55.5301 28.9431 55.9157L28.9454 55.915C29.8946 56.4314 31.3416 56.3439 33.2478 55.6615C36.7026 54.4247 38.5716 49.6287 40.0774 45.7751C40.5005 44.6911 40.9003 43.6674 41.2805 42.88C42.816 39.7067 45.7945 34.2585 46.2864 33.3652C47.2617 33.2746 52.6482 32.5367 58.4976 26.9907C64.7748 21.0387 66.6109 18.4531 66.6837 18.3466C66.7671 18.2272 66.7373 18.0613 66.6179 17.9779C66.6092 17.9732 66.5999 17.9662 66.5912 17.9615L66.5874 17.9651Z" fill="#301611"/>
<path d="M47.3778 32.7794C47.3228 32.7496 47.2569 32.7401 47.1909 32.7548C45.1398 33.2352 41.5278 33.0023 41.491 33.0011C41.3449 32.9911 41.2198 33.101 41.2098 33.2471C41.1997 33.3932 41.3097 33.5183 41.4558 33.5283C41.6071 33.5392 45.184 33.768 47.31 33.2702C47.4531 33.2375 47.5418 33.0947 47.5067 32.9522C47.4887 32.8751 47.4392 32.8146 47.3756 32.7801L47.3778 32.7794Z" fill="#301611"/>
<path d="M61.7719 49.8493C61.3121 49.6001 60.8072 49.3788 60.2595 49.2017C57.527 48.3267 55.8494 50.1957 55.256 51.0415C55.0907 51.2774 54.9881 51.5286 54.9515 51.7894C54.563 54.6004 56.9645 56.9348 57.0687 57.0324C57.1758 57.1316 57.3429 57.1305 57.4421 57.0234C57.5443 56.9179 57.5403 56.7492 57.4354 56.6494C57.4119 56.6272 55.1282 54.4034 55.4776 51.8613C55.5032 51.6862 55.573 51.5127 55.6912 51.3466C56.2187 50.5979 57.7017 48.9396 60.0992 49.7079C63.2046 50.7026 64.8549 53.3595 64.8702 53.3865C64.9485 53.5113 65.1106 53.5505 65.2338 53.4751C65.3593 53.3991 65.3978 53.2347 65.3224 53.1116C65.2623 53.0154 64.0718 51.0978 61.7726 49.8516L61.7719 49.8493Z" fill="#301611"/>
<path d="M68.4764 32.3579C68.0715 32.1384 67.6019 31.9381 67.0543 31.761C64.5028 30.9318 62.6093 32.7848 61.7075 33.9648C61.355 34.4285 61.2376 35.0141 61.3898 35.5755C61.6867 36.6738 62.3742 38.8014 63.9543 42.7093C66.4452 48.8677 69.5778 51.7687 69.7101 51.8871C69.8194 51.9857 69.9845 51.9779 70.0838 51.8708C70.183 51.7637 70.1746 51.5963 70.0675 51.4971C70.0368 51.4674 66.8893 48.549 64.4459 42.5099C62.7931 38.4223 62.1407 36.3231 61.9015 35.4357C61.7926 35.0362 61.8765 34.6158 62.1297 34.2835C62.946 33.2161 64.6499 31.5335 66.8904 32.2634C69.6327 33.1549 70.1938 34.546 71.1234 36.8516C71.2736 37.2267 71.4349 37.6228 71.6137 38.0453C74.3242 44.3957 75.4999 44.7187 75.8836 44.8256C76.0236 44.8641 76.1713 44.7814 76.2098 44.6414C76.2483 44.5013 76.1657 44.3536 76.0256 44.3151C75.5356 44.1767 74.3741 43.158 72.1027 37.837C71.9252 37.419 71.7646 37.0251 71.6157 36.6544C70.837 34.7263 70.2746 33.3307 68.4786 32.3572L68.4764 32.3579Z" fill="#301611"/>
<path d="M73.5229 41.1075C73.4506 41.0683 73.3594 41.0638 73.2787 41.1024C73.1477 41.1679 73.0924 41.3251 73.158 41.456C75.0807 45.3738 78.6891 44.5645 78.7248 44.5539C78.8673 44.5189 78.9537 44.3768 78.9216 44.2359C78.8866 44.0934 78.746 44.0041 78.6035 44.0392C78.4715 44.0686 75.3671 44.7526 73.6346 41.2223C73.6098 41.1715 73.5714 41.1319 73.5229 41.1075Z" fill="#301611"/>
<path d="M75.5898 30.3451C74.7598 29.8952 73.8895 29.7265 72.9877 29.8439C70.4937 30.1646 68.6668 32.5364 68.5899 32.6369C68.5006 32.7531 68.5231 32.9187 68.6394 33.008C68.7579 33.0965 68.9213 33.0747 69.0105 32.9584C69.0282 32.9362 70.7819 30.6613 73.0563 30.3694C74.0993 30.2369 75.0997 30.5415 76.0381 31.2747C78.1192 32.906 78.8863 34.6314 79.5035 36.0155C80.0089 37.1538 80.4089 38.0517 81.3456 38.4602C81.4791 38.5176 81.6357 38.4566 81.6931 38.3231C81.7528 38.1889 81.6946 38.0339 81.556 37.9756C80.8167 37.6516 80.4649 36.8753 79.9861 35.8019C79.3456 34.364 78.5491 32.5721 76.364 30.8601C76.1108 30.6611 75.8515 30.4906 75.5883 30.348L75.5898 30.3451Z" fill="#301611"/>
<path d="M83.7377 36.0716C83.6914 36.0465 83.6344 36.0343 83.5782 36.0413C82.258 36.2125 80.8744 35.876 79.7826 35.1083C79.6661 35.0265 79.4966 35.0525 79.4138 35.1741C79.3304 35.2935 79.358 35.46 79.4774 35.5435C80.6757 36.3838 82.1936 36.7557 83.6447 36.5675C83.7896 36.5488 83.8933 36.416 83.8746 36.2712C83.8628 36.1825 83.81 36.1108 83.7377 36.0716Z" fill="#301611"/>
<path d="M61.5116 51.6267L61.6313 51.744C62.1223 52.229 62.5885 52.6875 62.9237 53.3426C63.3239 54.1263 63.4625 54.9611 63.3115 55.6949C63.0623 56.9069 61.9886 57.8759 60.7561 57.9992C60.155 58.0588 59.4887 57.9315 58.7748 57.6194C57.1227 56.9016 55.644 55.3704 55.0113 53.7216C54.9732 53.6261 54.9967 53.5173 55.0669 53.4431C55.1393 53.3682 55.2461 53.3437 55.3436 53.3779C57.3746 54.0802 59.8018 53.3547 61.114 51.6525C61.1594 51.5929 61.2306 51.5548 61.3066 51.5492C61.3567 51.5465 61.4057 51.5562 61.4497 51.582C61.4729 51.5945 61.4916 51.6084 61.5093 51.6273L61.5116 51.6267ZM58.9858 57.1369C59.6156 57.411 60.1955 57.5251 60.7043 57.4735C61.6946 57.376 62.5922 56.566 62.7925 55.5894C62.9197 54.9718 62.7983 54.2605 62.452 53.5845C62.1741 53.041 61.7898 52.6456 61.3466 52.207C59.9904 53.7694 57.7466 54.4914 55.731 54.0369C56.3999 55.3498 57.6495 56.5511 58.9858 57.1369Z" fill="#301611"/>
<path d="M67.2293 33.8288C67.1917 33.8085 67.1472 33.7974 67.1031 33.796C65.21 33.7951 63.2913 34.1901 61.5523 34.9369C61.4187 34.9936 61.3561 35.1504 61.4127 35.284C61.4694 35.4177 61.6263 35.4803 61.7599 35.4236C63.3936 34.7226 65.1911 34.3442 66.9692 34.3258C67.6086 35.1963 67.9374 36.1565 67.9962 37.3352C68.0568 38.5449 67.619 39.7182 66.824 40.4735C65.9698 41.2827 64.7105 41.5692 63.6891 41.1858C63.5525 41.1342 63.4008 41.2035 63.3491 41.3402C63.2975 41.4768 63.3668 41.6285 63.5041 41.6824C64.7109 42.1344 66.1925 41.8037 67.1881 40.8579C68.0954 39.9989 68.5944 38.6716 68.5248 37.3093C68.4575 35.9875 68.061 34.8727 67.3109 33.8993C67.2876 33.8698 67.2589 33.8468 67.2264 33.8273L67.2293 33.8288Z" fill="#301611"/>
<path d="M73.6606 31.3182C73.571 31.2696 73.4589 31.2762 73.3736 31.3404C72.1322 32.2839 70.5349 32.7072 68.9887 32.5015C68.8444 32.4813 68.71 32.5842 68.692 32.7279C68.6724 32.8744 68.7747 33.0066 68.9184 33.0246C70.5225 33.2374 72.1758 32.8315 73.4969 31.903C74.1452 32.6398 74.6235 33.5071 74.8503 34.3691C75.1199 35.3833 74.9603 36.423 74.4232 37.1478C73.94 37.8008 73.1193 38.1997 72.3329 38.1663C72.1874 38.1586 72.0636 38.273 72.0559 38.4184C72.0503 38.5632 72.1609 38.6905 72.3102 38.6947C73.2818 38.7387 74.2551 38.2653 74.8492 37.4629C75.4796 36.611 75.672 35.4038 75.3634 34.2337C75.0967 33.2211 74.513 32.2031 73.7238 31.3674C73.7053 31.3462 73.6809 31.3292 73.6577 31.3166L73.6606 31.3182Z" fill="#301611"/>
<path d="M38.3495 89.0027C53.9039 84.3847 62.7701 68.0336 58.1527 52.4816C53.5354 36.9297 37.1829 28.066 21.6285 32.6841C6.07416 37.3022 -2.79204 53.6533 1.82533 69.2052C6.4427 84.7572 22.7951 93.6208 38.3495 89.0027Z" fill="white"/>
<path d="M40.2481 49.5977C42.9239 53.6788 45.7395 60.868 46.4882 67.6622C41.3403 72.1589 34.4026 75.5491 29.6711 76.7441C26.563 77.5298 23.1466 77.982 20.1464 76.7128C17.0372 75.3986 14.8573 72.2493 14.6436 69.0072C14.4309 65.7642 16.1161 62.5593 18.8259 60.7292C20.3652 59.6897 22.2014 59.0923 24.0959 58.9381C22.8049 57.5434 21.8569 55.8612 21.4265 54.0548C20.669 50.8725 21.5962 47.3723 23.947 45.1294C26.2983 42.8855 30.0338 42.0422 33.213 43.1769C36.2802 44.2723 38.4905 46.9175 40.2479 49.5983L40.2481 49.5977Z" fill="#F03939"/>
<path d="M35.1642 22.1043C34.4393 25.1632 29.5656 48.1434 28.256 54.3335C28.0588 55.2631 28.7129 56.1583 29.6551 56.2425C31.6424 56.4216 34.9223 55.9282 37.212 51.5192C40.7054 44.7972 43.0931 36.7051 45.9903 33.3532L47.5052 33.1023" fill="#FFAEA3"/>
<path d="M66.5874 17.9651C66.4717 17.9024 66.3212 17.9349 66.2454 18.0472C66.2261 18.0724 64.356 20.7069 58.1275 26.6105C51.9505 32.4672 46.1622 32.8489 46.1047 32.8514C46.014 32.8565 45.9321 32.9075 45.8882 32.9884C45.853 33.0498 42.4745 39.1942 40.8008 42.6536C40.4096 43.4613 40.0073 44.493 39.5802 45.5879C38.1146 49.3398 36.2931 54.0101 33.067 55.1669C30.8911 55.9463 29.7698 55.7576 29.212 55.4646C28.8114 55.2512 28.6527 54.9538 28.6087 54.8383L35.5552 21.4549C35.5857 21.3124 35.4954 21.1718 35.3507 21.142C35.2082 21.1115 35.0682 21.204 35.0377 21.3465L28.0772 54.7971C28.0692 54.8358 28.0709 54.8742 28.0793 54.9105C28.0866 54.935 28.2317 55.5301 28.9431 55.9157L28.9454 55.915C29.8946 56.4314 31.3416 56.3439 33.2478 55.6615C36.7026 54.4247 38.5716 49.6287 40.0774 45.7751C40.5005 44.6911 40.9003 43.6674 41.2805 42.88C42.816 39.7067 45.7945 34.2585 46.2864 33.3652C47.2617 33.2746 52.6482 32.5367 58.4976 26.9907C64.7748 21.0387 66.6109 18.4531 66.6837 18.3466C66.7671 18.2272 66.7373 18.0613 66.6179 17.9779C66.6092 17.9732 66.5999 17.9662 66.5912 17.9615L66.5874 17.9651Z" fill="#301611"/>
</g>
</g>
<defs>
<clipPath id="clip0_4313_46182">
<rect width="92" height="92" fill="white"/>
</clipPath>
<clipPath id="clip1_4313_46182">
<rect width="106" height="92" fill="white" transform="translate(-16 9.16968) rotate(-16.5361)"/>
</clipPath>
</defs>
</svg>
