<svg width="70" height="82" viewBox="0 0 70 82" fill="none" xmlns="http://www.w3.org/2000/svg">
<g clip-path="url(#clip0_4313_46156)">
<path d="M54.5569 45.5821C64.853 35.1546 64.853 18.2482 54.5569 7.8207C44.2608 -2.60683 27.5676 -2.60683 17.2716 7.8207C6.97551 18.2482 6.97551 35.1546 17.2716 45.5821C27.5676 56.0097 44.2608 56.0097 54.5569 45.5821Z" fill="white"/>
<path d="M38.4925 6.61133H34.1797V48.1737H38.4925V6.61133Z" fill="#FCB64C"/>
<path d="M48.8086 21.3396V16.9717H24.1193V21.3396H48.8086Z" fill="#FCB64C"/>
<path d="M34.0958 66.9615C33.1627 75.5645 28.1866 88.9982 28.1866 88.9982L10.8833 83.1248C10.8833 83.1248 16.1678 77.5581 14.7141 73.1531C13.2643 68.7461 7.46116 59.4031 7.25487 57.0971C7.04858 54.7872 6.63407 49.7476 4.76589 46.5982C2.90349 43.4487 1.03531 40.6174 0.829018 38.8328C0.69599 37.6652 0.381734 29.5503 0.179299 24.0714C0.175443 23.8937 0.167732 23.7219 0.158092 23.5539C0.0886857 21.6092 0.036631 20.0549 0.0115677 19.3774C0.0038559 19.1314 0 18.9986 0 18.9986C0 18.9986 0.0154236 18.9576 0.0559105 18.8951C0.148452 18.7545 0.348959 18.5046 0.684422 18.3699C0.798171 18.3211 0.927344 18.284 1.07772 18.2762C1.71973 18.2195 2.67599 18.5729 4.03713 20.0471C7.04473 23.2982 7.66553 25.3991 7.97786 31.3798C7.97786 31.3798 11.5002 38.9402 14.504 42.5075C16.5341 44.9131 18.275 46.4127 19.1966 47.1371C19.4067 47.2972 19.5745 47.4241 19.6921 47.5061C19.8251 47.6057 19.8945 47.6506 19.8945 47.6506C19.8945 47.6506 19.7692 47.3636 19.5571 46.8481C19.5571 46.8481 19.5558 46.8455 19.5533 46.8403C19.2409 46.0807 18.7493 44.8252 18.2211 43.3003C18.2133 43.2671 18.2056 43.2378 18.1921 43.2104C17.5636 41.4024 16.9062 39.2194 16.4473 37.015V37.011C15.5508 32.7037 15.4332 28.3299 17.9241 26.5531C17.9241 26.5531 17.9492 26.6234 17.9936 26.7542V26.7581C18.0302 26.8616 18.0745 27.0041 18.1362 27.1857C18.1844 27.3263 18.2423 27.4942 18.3059 27.6797C18.6953 28.8103 19.3778 30.7179 20.2782 33.0278C20.3437 33.1879 20.4073 33.3519 20.4729 33.5218V33.5257C21.8456 37.0032 23.6868 41.2989 25.7979 45.2333C30.3594 53.7387 35.0193 58.3546 34.09 66.9615H34.0958Z" fill="#FFAEA3"/>
<path d="M10.3581 50.4544C10.3292 50.4701 10.2925 50.4798 10.2598 50.4798C10.1904 50.4798 10.1171 50.4427 10.0805 50.3724C10.0361 50.2826 5.30687 41.4394 4.18673 39.7915C3.18805 38.3231 1.2601 23.0736 0.6875 18.3698C0.801249 18.321 0.930422 18.2839 1.0808 18.2761C1.99079 25.774 3.69125 38.3368 4.51834 39.5572C5.65004 41.2266 10.2405 49.8101 10.4352 50.1752C10.4873 50.2748 10.4506 50.4017 10.3542 50.4544H10.3581Z" fill="#301611"/>
<path d="M19.8976 51.1085C19.7877 51.1085 19.6971 51.0207 19.6952 50.9074C19.6316 48.1035 18.6965 44.8955 17.7055 41.4999C17.1002 39.4205 16.4716 37.2687 15.9684 34.994C14.6073 28.8454 17.6766 26.4847 17.8077 26.3871C17.8983 26.3187 18.0236 26.3402 18.0911 26.432C18.1567 26.5237 18.1374 26.6507 18.0487 26.719C18.0179 26.7424 15.0662 29.0367 16.3637 34.9042C16.8649 37.1652 17.4896 39.3092 18.093 41.3828C19.0898 44.8056 20.0326 48.0371 20.0981 50.8957C20.1 51.009 20.0114 51.1027 19.8995 51.1066H19.8957L19.8976 51.1085Z" fill="#301611"/>
<path d="M20.4798 33.5219C19.4156 33.2466 18.4786 32.5358 17.9349 31.5576C17.2197 30.2708 17.2563 28.6307 18.0198 27.3732C18.0602 27.3108 18.1007 27.2502 18.1412 27.1877C18.1894 27.3283 18.2472 27.4962 18.3109 27.6817C17.6862 28.783 17.6689 30.2474 18.2858 31.3565C18.7157 32.1336 19.4464 32.7252 20.2832 33.0298C20.3487 33.1899 20.4123 33.354 20.4779 33.5238L20.4798 33.5219Z" fill="#301611"/>
<path d="M1.83274 24.337L1.64765 23.9699C2.58078 23.4876 3.18616 22.4118 3.12254 21.3535C3.05891 20.2952 2.32629 19.3033 1.34111 18.9421C1.24857 18.9069 1.18687 18.9089 1.17145 18.9167L0.839844 18.6843C0.959377 18.5008 1.19844 18.4539 1.47992 18.5574C2.61163 18.9733 3.45222 20.1136 3.52741 21.3301C3.60067 22.5465 2.90468 23.7825 1.83274 24.337Z" fill="#301611"/>
<path d="M1.23003 22.6771C1.01025 23.2278 0.645863 23.7218 0.179299 24.0713C0.175443 23.8936 0.167732 23.7218 0.158092 23.5538C0.749973 22.9993 1.09508 22.1734 1.04688 21.3553C1.00253 20.5859 0.605376 19.8557 0.0115677 19.3773C0.0038559 19.1313 0 18.9985 0 18.9985C0 18.9985 0.0154236 18.9575 0.0559105 18.895C0.360527 19.1 0.624656 19.3636 0.848298 19.6682V19.6721C1.15291 20.0919 1.3592 20.584 1.42861 21.1034C1.44018 21.1776 1.44982 21.2557 1.45367 21.3299C1.48259 21.7907 1.40162 22.2515 1.23003 22.6791V22.6771Z" fill="#301611"/>
<path d="M35.9066 66.9615C36.8397 75.5645 41.8157 88.9982 41.8157 88.9982L59.1191 83.1248C59.1191 83.1248 53.8346 77.5581 55.2882 73.1531C56.7381 68.7461 62.5412 59.4031 62.7475 57.0971C62.9538 54.7872 63.3683 49.7476 65.2365 46.5982C67.0989 43.4487 68.967 40.6174 69.1733 38.8328C69.3064 37.6652 69.6206 29.5503 69.823 24.0714C69.8269 23.8937 69.8346 23.7219 69.8443 23.5539C69.9137 21.6092 69.9657 20.0549 69.9908 19.3774C69.9985 19.1314 70.0023 18.9986 70.0023 18.9986C70.0023 18.9986 69.9869 18.9576 69.9464 18.8951C69.8539 18.7545 69.6534 18.5046 69.3179 18.3699C69.2042 18.3211 69.075 18.284 68.9246 18.2762C68.2826 18.2195 67.3264 18.5729 65.9652 20.0471C62.9576 23.2982 62.3368 25.3991 62.0245 31.3798C62.0245 31.3798 58.5021 38.9402 55.4984 42.5075C53.4682 44.9131 51.7273 46.4127 50.8057 47.1371C50.5956 47.2972 50.4279 47.4241 50.3103 47.5061C50.1772 47.6057 50.1078 47.6506 50.1078 47.6506C50.1078 47.6506 50.2331 47.3636 50.4452 46.8481C50.4452 46.8481 50.4465 46.8455 50.4491 46.8403C50.7614 46.0807 51.253 44.8252 51.7813 43.3003C51.789 43.2671 51.7967 43.2378 51.8102 43.2104C52.4387 41.4024 53.0962 39.2194 53.555 37.015V37.011C54.4515 32.7037 54.5691 28.3299 52.0782 26.5531C52.0782 26.5531 52.0531 26.6234 52.0088 26.7542V26.7581C51.9722 26.8616 51.9278 27.0041 51.8661 27.1857C51.8179 27.3263 51.7601 27.4942 51.6965 27.6797C51.307 28.8103 50.6245 30.7179 49.7242 33.0278C49.6586 33.1879 49.595 33.3519 49.5294 33.5218V33.5257C48.1567 37.0032 46.3156 41.2989 44.2045 45.2333C39.6429 53.7387 34.9831 58.3546 35.9123 66.9615H35.9066Z" fill="#FFAEA3"/>
<path d="M59.6477 50.4544C59.6766 50.4701 59.7132 50.4798 59.746 50.4798C59.8154 50.4798 59.8887 50.4427 59.9253 50.3724C59.9697 50.2826 64.6989 41.4394 65.8191 39.7915C66.8177 38.3231 68.7457 23.0736 69.3183 18.3698C69.2045 18.321 69.0754 18.2839 68.925 18.2761C68.015 25.774 66.3145 38.3368 65.4875 39.5572C64.3558 41.2266 59.7653 49.8101 59.5706 50.1752C59.5185 50.2748 59.5552 50.4017 59.6516 50.4544H59.6477Z" fill="#301611"/>
<path d="M50.1068 51.1085C50.2167 51.1085 50.3073 51.0207 50.3092 50.9074C50.3728 48.1035 51.3079 44.8955 52.2989 41.4999C52.9042 39.4205 53.5328 37.2687 54.0359 34.994C55.3971 28.8454 52.3278 26.4847 52.1967 26.3871C52.1061 26.3187 51.9808 26.3402 51.9133 26.432C51.8477 26.5237 51.867 26.6507 51.9557 26.719C51.9865 26.7424 54.9382 29.0367 53.6407 34.9042C53.1395 37.1652 52.5148 39.3092 51.9113 41.3828C50.9146 44.8056 49.9718 48.0371 49.9063 50.8957C49.9044 51.009 49.993 51.1027 50.1049 51.1066H50.1087L50.1068 51.1085Z" fill="#301611"/>
<path d="M49.5234 33.5219C50.5877 33.2466 51.5247 32.5358 52.0683 31.5576C52.7836 30.2708 52.747 28.6307 51.9835 27.3732C51.943 27.3108 51.9025 27.2502 51.862 27.1877C51.8138 27.3283 51.756 27.4962 51.6924 27.6817C52.317 28.783 52.3344 30.2474 51.7174 31.3565C51.2875 32.1336 50.5568 32.7252 49.7201 33.0298C49.6545 33.1899 49.5909 33.354 49.5254 33.5238L49.5234 33.5219Z" fill="#301611"/>
<path d="M68.1687 24.337L68.3538 23.9699C67.4206 23.4876 66.8153 22.4118 66.8789 21.3535C66.9425 20.2952 67.6751 19.3033 68.6603 18.9421C68.7529 18.9069 68.8146 18.9089 68.83 18.9167L69.1616 18.6843C69.0421 18.5008 68.803 18.4539 68.5215 18.5574C67.3898 18.9733 66.5492 20.1136 66.474 21.3301C66.4008 22.5465 67.0967 23.7825 68.1687 24.337Z" fill="#301611"/>
<path d="M68.7685 22.6771C68.9882 23.2278 69.3526 23.7218 69.8192 24.0713C69.823 23.8936 69.8308 23.7218 69.8404 23.5538C69.2485 22.9993 68.9034 22.1734 68.9516 21.3553C68.996 20.5859 69.3931 19.8557 69.9869 19.3773C69.9946 19.1313 69.9985 18.9985 69.9985 18.9985C69.9985 18.9985 69.9831 18.9575 69.9426 18.895C69.638 19.1 69.3738 19.3636 69.1502 19.6682V19.6721C68.8456 20.0919 68.6393 20.584 68.5699 21.1034C68.5583 21.1776 68.5487 21.2557 68.5448 21.3299C68.5159 21.7907 68.5969 22.2515 68.7685 22.6791V22.6771Z" fill="#301611"/>
<path d="M65.0695 68.5594C63.2745 71.0451 60.7867 73.2138 57.7311 74.2824C54.6754 75.351 51.0183 75.1819 48.431 73.4344C50.4522 71.2574 52.5498 69.3376 55.4509 68.2609C58.352 67.1842 62.3951 67.1557 65.0715 68.5573L65.0695 68.5594Z" fill="#79BE34"/>
<path d="M20 17C15.8426 16.95 11.5951 15.8592 8.27288 13.2444C4.95068 10.6269 2.69434 6.33845 3.03372 2C6.97634 2.55237 10.6644 3.39896 13.8912 5.83327C17.1179 8.26758 19.8674 12.8392 20 17Z" fill="#79BE34"/>
</g>
<defs>
<clipPath id="clip0_4313_46156">
<rect width="70" height="89" fill="white"/>
</clipPath>
</defs>
</svg>
