<svg width="21" height="21" viewBox="0 0 21 21" fill="none" xmlns="http://www.w3.org/2000/svg">
<mask id="mask0_7376_6125" style="mask-type:alpha" maskUnits="userSpaceOnUse" x="0" y="0" width="21" height="21">
<rect x="0.666016" y="0.15625" width="20" height="20" fill="#D9D9D9"/>
</mask>
<g mask="url(#mask0_7376_6125)">
<path d="M8.21414 14.7399C7.839 14.7399 7.52192 14.6104 7.26289 14.3514C7.00386 14.0923 6.87435 13.7753 6.87435 13.4001V3.91303C6.87435 3.53789 7.00386 3.22081 7.26289 2.96178C7.52192 2.70276 7.839 2.57324 8.21414 2.57324H15.7012C16.0764 2.57324 16.3934 2.70276 16.6525 2.96178C16.9115 3.22081 17.041 3.53789 17.041 3.91303V13.4001C17.041 13.7753 16.9115 14.0923 16.6525 14.3514C16.3934 14.6104 16.0764 14.7399 15.7012 14.7399H8.21414ZM8.21414 13.6566H15.7012C15.7654 13.6566 15.8241 13.6298 15.8775 13.5764C15.9309 13.523 15.9577 13.4643 15.9577 13.4001V3.91303C15.9577 3.84887 15.9309 3.79012 15.8775 3.73678C15.8241 3.68331 15.7654 3.65658 15.7012 3.65658H8.21414C8.14997 3.65658 8.09122 3.68331 8.03789 3.73678C7.98442 3.79012 7.95768 3.84887 7.95768 3.91303V13.4001C7.95768 13.4643 7.98442 13.523 8.03789 13.5764C8.09122 13.6298 8.14997 13.6566 8.21414 13.6566ZM5.63081 17.3232C5.25567 17.3232 4.93858 17.1937 4.67956 16.9347C4.42053 16.6757 4.29102 16.3586 4.29102 15.9835V5.41303H5.37435V15.9835C5.37435 16.0476 5.40109 16.1064 5.45456 16.1597C5.50789 16.2132 5.56664 16.2399 5.63081 16.2399H14.2012V17.3232H5.63081Z" fill="#1C1B1F"/>
</g>
</svg>
