<svg width="36" height="36" viewBox="0 0 36 36" fill="none" xmlns="http://www.w3.org/2000/svg">
<g clip-path="url(#clip0_4729_77104)">
<g clip-path="url(#clip1_4729_77104)">
<path d="M18.9317 1.81L20.5717 1.15C21.3517 0.84 22.2417 1.04 22.8017 1.66L24.0017 2.97C24.4417 3.45 25.0517 3.74 25.6917 3.79L27.4617 3.91C28.3017 3.97 29.0117 4.54 29.2517 5.34L29.7617 7.04C29.9517 7.66 30.3717 8.19 30.9317 8.51L32.4717 9.38C33.2017 9.79 33.5917 10.62 33.4617 11.44L33.1817 13.19C33.0817 13.83 33.2317 14.49 33.6017 15.02L34.6117 16.48C35.0917 17.17 35.0917 18.08 34.6117 18.77L33.6017 20.23C33.2317 20.76 33.0817 21.42 33.1817 22.06L33.4617 23.81C33.5917 24.64 33.2017 25.46 32.4717 25.87L30.9317 26.74C30.3617 27.06 29.9417 27.59 29.7617 28.21L29.2517 29.91C29.0117 30.71 28.3017 31.28 27.4617 31.34L25.6917 31.46C25.0417 31.5 24.4317 31.8 24.0017 32.28L22.8017 33.59C22.2317 34.21 21.3517 34.41 20.5717 34.1L18.9317 33.44C18.3317 33.2 17.6517 33.2 17.0517 33.44L15.4117 34.1C14.6317 34.41 13.7417 34.21 13.1817 33.59L11.9817 32.28C11.5417 31.8 10.9317 31.51 10.2917 31.46L8.52172 31.34C7.68172 31.28 6.97172 30.71 6.73172 29.91L6.22172 28.21C6.03172 27.59 5.61172 27.06 5.05172 26.74L3.51172 25.87C2.78172 25.46 2.39172 24.63 2.52172 23.81L2.80172 22.06C2.90172 21.42 2.75172 20.76 2.38172 20.23L1.37172 18.77C0.891719 18.08 0.891719 17.17 1.37172 16.48L2.38172 15.02C2.75172 14.49 2.90172 13.83 2.80172 13.19L2.52172 11.44C2.39172 10.61 2.78172 9.79 3.51172 9.38L5.05172 8.51C5.62172 8.19 6.04172 7.66 6.22172 7.04L6.73172 5.34C6.97172 4.54 7.68172 3.97 8.52172 3.91L10.2917 3.79C10.9417 3.75 11.5517 3.45 11.9817 2.97L13.1817 1.66C13.7517 1.04 14.6317 0.84 15.4117 1.15L17.0517 1.81C17.6517 2.05 18.3317 2.05 18.9317 1.81Z" fill="white"/>
<path d="M21.3203 1C21.8703 1 22.4203 1.23 22.8003 1.65L24.0003 2.96C24.4403 3.44 25.0503 3.73 25.6903 3.78L27.4603 3.9C28.3003 3.96 29.0103 4.53 29.2503 5.33L29.7603 7.03C29.9503 7.65 30.3703 8.18 30.9303 8.5L32.4703 9.37C33.2003 9.78 33.5903 10.61 33.4603 11.43L33.1803 13.18C33.0803 13.82 33.2303 14.48 33.6003 15.01L34.6103 16.47C35.0903 17.16 35.0903 18.07 34.6103 18.76L33.6003 20.22C33.2303 20.75 33.0803 21.41 33.1803 22.05L33.4603 23.8C33.5903 24.63 33.2003 25.45 32.4703 25.86L30.9303 26.73C30.3603 27.05 29.9403 27.58 29.7603 28.2L29.2503 29.9C29.0103 30.7 28.3003 31.27 27.4603 31.33L25.6903 31.45C25.0403 31.49 24.4303 31.79 24.0003 32.27L22.8003 33.58C22.4103 34.01 21.8703 34.23 21.3203 34.23C21.0703 34.23 20.8103 34.18 20.5703 34.09L18.9303 33.43C18.6303 33.31 18.3103 33.25 17.9903 33.25C17.6703 33.25 17.3503 33.31 17.0503 33.43L15.4103 34.09C15.1703 34.19 14.9103 34.23 14.6603 34.23C14.1103 34.23 13.5603 34 13.1803 33.58L11.9803 32.27C11.5403 31.79 10.9303 31.5 10.2903 31.45L8.52031 31.33C7.68031 31.27 6.97031 30.7 6.73031 29.9L6.22031 28.2C6.03031 27.58 5.61031 27.05 5.05031 26.73L3.51031 25.86C2.78031 25.45 2.39031 24.62 2.52031 23.8L2.80031 22.05C2.90031 21.41 2.75031 20.75 2.38031 20.22L1.37031 18.76C0.890312 18.07 0.890312 17.16 1.37031 16.47L2.38031 15.01C2.75031 14.48 2.90031 13.82 2.80031 13.18L2.52031 11.43C2.39031 10.6 2.78031 9.78 3.51031 9.37L5.05031 8.5C5.62031 8.18 6.04031 7.65 6.22031 7.03L6.73031 5.33C6.97031 4.53 7.68031 3.96 8.52031 3.9L10.2903 3.78C10.9403 3.74 11.5503 3.44 11.9803 2.96L13.1803 1.65C13.5703 1.22 14.1103 1 14.6603 1C14.9103 1 15.1703 1.05 15.4103 1.14L17.0503 1.8C17.3503 1.92 17.6703 1.98 17.9903 1.98C18.3103 1.98 18.6303 1.92 18.9303 1.8L20.5703 1.14C20.8103 1.04 21.0703 1 21.3203 1ZM21.3203 0C20.9303 0 20.5603 0.07 20.2003 0.22L18.5603 0.88C18.3803 0.95 18.1903 0.99 17.9903 0.99C17.7903 0.99 17.6003 0.95 17.4203 0.88L15.7803 0.22C15.4203 0.08 15.0403 0 14.6603 0C13.8203 0 13.0103 0.36 12.4403 0.98L11.2403 2.29C10.9703 2.58 10.6103 2.76 10.2203 2.78L8.45031 2.9C7.21031 2.98 6.13031 3.84 5.77031 5.04L5.26031 6.74C5.15031 7.12 4.90031 7.43 4.55031 7.63L3.01031 8.5C1.92031 9.12 1.33031 10.36 1.52031 11.59L1.80031 13.34C1.86031 13.73 1.77031 14.12 1.55031 14.45L0.540312 15.91C-0.169688 16.94 -0.169688 18.31 0.540312 19.34L1.55031 20.8C1.77031 21.12 1.86031 21.52 1.80031 21.91L1.52031 23.66C1.32031 24.89 1.92031 26.13 3.01031 26.75L4.55031 27.62C4.89031 27.81 5.14031 28.13 5.26031 28.51L5.77031 30.21C6.13031 31.41 7.21031 32.26 8.45031 32.35L10.2203 32.47C10.6103 32.5 10.9803 32.67 11.2403 32.96L12.4403 34.27C13.0103 34.89 13.8203 35.25 14.6603 35.25C15.0503 35.25 15.4203 35.18 15.7803 35.03L17.4203 34.37C17.6003 34.3 17.7903 34.26 17.9903 34.26C18.1903 34.26 18.3803 34.3 18.5603 34.37L20.2003 35.03C20.5603 35.17 20.9403 35.25 21.3203 35.25C22.1603 35.25 22.9703 34.89 23.5403 34.27L24.7403 32.96C25.0103 32.67 25.3703 32.49 25.7603 32.47L27.5303 32.35C28.7703 32.27 29.8503 31.41 30.2103 30.21L30.7203 28.51C30.8303 28.13 31.0803 27.82 31.4303 27.62L32.9703 26.75C34.0603 26.13 34.6503 24.89 34.4603 23.66L34.1803 21.91C34.1203 21.52 34.2103 21.13 34.4303 20.8L35.4403 19.34C36.1503 18.31 36.1503 16.94 35.4403 15.91L34.4303 14.45C34.2103 14.13 34.1203 13.73 34.1803 13.34L34.4603 11.59C34.6603 10.36 34.0603 9.12 32.9703 8.5L31.4303 7.63C31.0903 7.44 30.8403 7.12 30.7203 6.74L30.2103 5.04C29.8503 3.84 28.7703 2.99 27.5303 2.9L25.7603 2.78C25.3703 2.75 25.0003 2.58 24.7403 2.29L23.5403 0.98C22.9703 0.36 22.1603 0 21.3203 0Z" fill="#231815"/>
<path d="M10.4166 19.2259H9.19349V21.8632H7V14H10.4166C12.2361 14 13.2166 14.9573 13.2166 16.6178C13.2166 18.2882 12.2361 19.2259 10.4166 19.2259ZM9.19349 17.5458H10.083C10.6996 17.5458 11.0231 17.2625 11.0231 16.6178C11.0231 15.9536 10.6996 15.6801 10.083 15.6801H9.19349V17.5458Z" fill="#2E7DF2"/>
<path d="M14.026 15.5336V14H16.0577V15.5336H14.026ZM14.026 21.8632V16.2466H16.0577V21.8632H14.026Z" fill="#2E7DF2"/>
<path d="M16.9522 19.0501C16.9522 17.2234 17.8822 16.1099 19.7926 16.1099C21.4504 16.1099 22.5118 16.9206 22.5724 18.3468H20.5811C20.5406 17.8291 20.3183 17.5458 19.7926 17.5458C19.1962 17.5458 18.9638 17.9658 18.9638 19.0501C18.9638 20.2515 19.2569 20.5641 19.7926 20.5641C20.3183 20.5641 20.5406 20.2906 20.5811 19.7631H22.5724C22.5118 21.1893 21.4504 22 19.7926 22C17.8822 22 16.9522 20.8962 16.9522 19.0501Z" fill="#2E7DF2"/>
<path d="M23.4 21.8632V14H25.4318V18.2979H25.7654L26.6852 16.2466H28.7776L27.4231 18.9426L29 21.8632H26.8975L25.7552 19.5678H25.4318V21.8632H23.4Z" fill="#2E7DF2"/>
<circle cx="18.5" cy="7" r="2" fill="#2E7DF2"/>
</g>
</g>
<defs>
<clipPath id="clip0_4729_77104">
<rect width="36" height="36" fill="white"/>
</clipPath>
<clipPath id="clip1_4729_77104">
<rect width="35.98" height="35.23" fill="white"/>
</clipPath>
</defs>
</svg>
