<svg width="37" height="36" viewBox="0 0 37 36" fill="none" xmlns="http://www.w3.org/2000/svg">
<g clip-path="url(#clip0_4729_77113)">
<g clip-path="url(#clip1_4729_77113)">
<path d="M7.98875 16.67H29.9787C30.5387 16.67 30.9987 17.13 30.9987 17.69V32.3C30.9987 33.9 29.6987 35.21 28.0887 35.21H9.87875C8.27875 35.21 6.96875 33.91 6.96875 32.3V17.69C6.96875 17.13 7.42875 16.67 7.98875 16.67Z" fill="white"/>
<path d="M23.9583 22.71H33.6183C34.2883 22.71 34.6783 21.96 34.2983 21.41L30.9983 16.67H18.9883L22.2283 21.76C22.6083 22.35 23.2583 22.71 23.9683 22.71H23.9583Z" fill="#2E7DF2"/>
<path d="M14.147 22.71H4.49701C3.82701 22.71 3.43701 21.96 3.81701 21.41L7.11701 16.67H19.127L15.887 21.76C15.507 22.35 14.857 22.71 14.147 22.71Z" fill="#2E7DF2"/>
<path d="M22.127 2C20.387 2 18.987 3.41 18.987 5.14C18.987 3.4 17.577 2 15.847 2C14.117 2 12.707 3.41 12.707 5.14C12.707 8.92 16.807 11.81 18.987 11.81C21.167 11.81 25.267 8.92 25.267 5.14C25.267 3.4 23.857 2 22.127 2Z" fill="#2E7DF2"/>
<path d="M30.988 16.67L34.288 21.41C34.668 21.96 34.278 22.71 33.608 22.71H30.998V32.3C30.998 33.91 29.698 35.21 28.088 35.21H9.87803C8.26803 35.21 6.96803 33.91 6.96803 32.3V22.71H4.49803C3.82803 22.71 3.43803 21.96 3.81803 21.41L7.11803 16.67H30.998M30.988 15.67H7.11803C6.78803 15.67 6.48803 15.83 6.29803 16.1L2.99803 20.83C2.60803 21.39 2.55803 22.12 2.87803 22.72C3.19803 23.33 3.81803 23.7 4.49803 23.7H5.97803V32.29C5.97803 34.44 7.72803 36.2 9.88803 36.2H28.098C30.248 36.2 32.008 34.45 32.008 32.29V23.7H33.618C34.298 23.7 34.918 23.32 35.238 22.72C35.558 22.11 35.508 21.39 35.118 20.83L31.818 16.09C31.628 15.82 31.328 15.66 30.998 15.66L30.988 15.67Z" fill="#231815"/>
<path d="M22.127 2C23.867 2 25.267 3.41 25.267 5.14C25.267 8.92 21.167 11.81 18.987 11.81C16.807 11.81 12.707 8.92 12.707 5.14C12.707 3.4 14.117 2 15.847 2C17.577 2 18.987 3.41 18.987 5.14C18.987 3.4 20.397 2 22.127 2ZM22.127 1C20.867 1 19.747 1.56 18.987 2.45C18.227 1.57 17.097 1 15.847 1C13.567 1 11.707 2.86 11.707 5.14C11.707 9.37 16.117 12.81 18.987 12.81C21.857 12.81 26.267 9.37 26.267 5.14C26.267 2.86 24.407 1 22.127 1Z" fill="#231815"/>
<path d="M27.5669 12.46C26.1569 13.29 26.6169 15.3 27.5669 14.68C28.5169 14.06 27.1069 12.51 25.5469 14.41" stroke="black" stroke-width="0.5" stroke-miterlimit="10"/>
<path d="M10.6894 12.38C10.3294 12.48 9.91943 13.07 11.1594 13.23C12.3994 13.39 11.8894 14.41 10.8994 14.09" stroke="black" stroke-width="0.5" stroke-miterlimit="10"/>
<path d="M13.9375 12.66C13.9375 12.66 16.5475 12.75 16.7275 15.35" stroke="black" stroke-width="0.5" stroke-miterlimit="10"/>
<path d="M24.0361 12.66C24.0361 12.66 21.4261 12.75 21.2461 15.35" stroke="black" stroke-width="0.5" stroke-miterlimit="10"/>
<path d="M18.9766 13.27L18.9866 15.01" stroke="black" stroke-width="0.5" stroke-miterlimit="10"/>
</g>
</g>
<defs>
<clipPath id="clip0_4729_77113">
<rect width="36" height="36" fill="white" transform="translate(0.667969)"/>
</clipPath>
<clipPath id="clip1_4729_77113">
<rect width="32.77" height="35.21" fill="white" transform="translate(2.66797 1)"/>
</clipPath>
</defs>
</svg>
