<svg width="37" height="36" viewBox="0 0 37 36" fill="none" xmlns="http://www.w3.org/2000/svg">
<g clip-path="url(#clip0_4729_77130)">
<path d="M35.3092 33.8H1.13672V35.5592H35.3092V33.8Z" fill="#2E7DF2"/>
<path d="M31.722 10.6037L25.4453 4.32703L4.38752 25.3848L10.6642 31.6615L31.722 10.6037Z" fill="white"/>
<path d="M24.6016 9.96897L23.6016 8.96893L5.78781 26.7827L6.78785 27.7827L24.6016 9.96897Z" fill="#2E7DF2"/>
<path d="M27.1094 12.4775L26.1094 11.4774L8.29562 29.2912L9.29566 30.2912L27.1094 12.4775Z" fill="#2E7DF2"/>
<path d="M30.4993 11.8142L24.2227 5.53748L22.1901 7.57008L28.4667 13.8468L30.4993 11.8142Z" fill="#2E7DF2"/>
<path d="M3.356 29.201L2.97656 30.6038C4.11488 31.0062 5.03473 31.9261 5.43717 33.0644L6.83994 32.685C6.29953 31.0637 4.96574 29.7299 3.3445 29.1895L3.356 29.201Z" fill="white"/>
<path d="M2.69865 33.7996L10.6669 31.661L4.38888 25.383L2.26172 33.3282V33.3742C2.26172 33.6042 2.44569 33.7881 2.67565 33.7881H2.71015L2.69865 33.7996Z" fill="#2E7DF2"/>
<path d="M33.9652 8.35487C34.0917 8.20539 34.1722 8.02142 34.1722 7.81446C34.1722 7.60749 34.0917 7.41202 33.9537 7.27404L33.8847 7.20505L28.8141 2.13437L28.7911 2.11137C28.6416 1.97339 28.4461 1.88141 28.2161 1.88141C27.9977 1.88141 27.8022 1.97339 27.6527 2.11137L27.6182 2.14587L25.4336 4.33052L31.7116 10.6085L33.8847 8.43536L33.9652 8.35487Z" fill="#2E7DF2"/>
<path d="M28.2259 1.88138C28.4444 1.88138 28.6514 1.97337 28.8008 2.11135L28.8238 2.13434L33.8945 7.20503L33.9635 7.27402C34.09 7.42349 34.182 7.60746 34.182 7.81443C34.182 8.0214 34.1015 8.20537 33.975 8.35484L33.8945 8.43533L31.7214 10.6085L30.5141 11.8158L28.4789 13.851L10.6567 31.6731L6.83936 32.6964L5.43659 33.0759L2.70003 33.8118H2.66553C2.43557 33.8118 2.2516 33.6278 2.2516 33.3978V33.3518L2.98748 30.6383L3.36692 29.2355L4.39025 25.4181L22.2124 7.59596L24.2476 5.56079L25.4549 4.35349L27.6395 2.16884L27.674 2.13434C27.8235 1.99636 28.019 1.90438 28.2374 1.90438M28.2259 0.731567C27.72 0.731567 27.2486 0.927036 26.8691 1.27198L26.8117 1.32947L24.627 3.51412L23.4197 4.72143L21.3845 6.7566L3.57389 24.5787C3.43591 24.7167 3.33242 24.9007 3.27493 25.0962L2.28609 28.7871C2.28609 28.7871 2.2516 28.8675 2.2516 28.9135L1.87216 30.3163C1.87216 30.3163 1.84916 30.3968 1.84916 30.4428L1.14778 33.0414C1.12478 33.1104 1.11328 33.1794 1.11328 33.2483C1.11328 33.2828 1.11328 33.3633 1.11328 33.3863C1.11328 34.2487 1.81467 34.9501 2.67703 34.9501C2.70003 34.9501 2.74602 34.9501 2.75752 34.9501C2.838 34.9501 2.91849 34.9386 2.99898 34.9156L5.58606 34.2257C5.58606 34.2257 5.68955 34.2142 5.73554 34.1912L7.13831 33.8118C7.13831 33.8118 7.2418 33.7773 7.28779 33.7658L10.9557 32.7884C11.1512 32.7309 11.3236 32.6389 11.4731 32.4895L29.2953 14.6673L31.3304 12.6322L32.5377 11.4248L34.7109 9.2517L34.7914 9.17121C34.7914 9.17121 34.8259 9.13672 34.8489 9.11372C35.1708 8.74578 35.3433 8.28585 35.3433 7.81443C35.3433 7.343 35.1593 6.87158 34.8374 6.50364C34.8259 6.49214 34.8029 6.46915 34.7914 6.45765L34.7224 6.38866L29.6402 1.32947C29.2263 0.938534 28.7433 0.731567 28.2374 0.731567H28.2259Z" fill="#231815"/>
</g>
<defs>
<clipPath id="clip0_4729_77130">
<rect width="34.23" height="34.8279" fill="white" transform="translate(1.10156 0.731018)"/>
</clipPath>
</defs>
</svg>
