<svg width="36" height="36" viewBox="0 0 36 36" fill="none" xmlns="http://www.w3.org/2000/svg">
<g clip-path="url(#clip0_4729_77144)">
<path d="M6.27344 10.32C6.27344 7.65 6.27344 4.97 6.27344 2.3C6.27344 1.46 6.72344 1 7.55344 1C14.5134 1 21.4734 1 28.4334 1C29.2634 1 29.7234 1.46 29.7234 2.29C29.7234 4.96 29.7234 7.64 29.7234 10.31C29.7234 13.02 29.7234 15.72 29.7234 18.43C27.5534 20.36 25.3734 22.3 23.2034 24.23C23.0534 24.23 22.9634 24.13 22.8634 24.04C22.2934 23.55 21.7134 23.06 21.1434 22.57C19.4634 21.13 17.4034 20.91 15.6134 22.01C15.0034 22.38 14.5334 22.91 13.9834 23.35C13.6234 23.64 13.3534 24.06 12.8834 24.21C11.4934 22.97 10.0934 21.73 8.71344 20.48C7.90344 19.75 7.04344 19.06 6.27344 18.28C6.27344 15.62 6.27344 12.96 6.27344 10.31V10.32ZM17.9734 6.86C20.4434 6.86 22.9034 6.86 25.3734 6.86C25.4734 6.86 25.5734 6.86 25.6634 6.86C25.9934 6.83 26.2034 6.6 26.2034 6.28C26.2034 5.96 25.9934 5.72 25.6734 5.69C25.6034 5.69 25.5234 5.69 25.4534 5.69C20.4834 5.69 15.5234 5.69 10.5534 5.69C10.4834 5.69 10.4034 5.69 10.3334 5.69C10.0034 5.72 9.79344 5.95 9.79344 6.27C9.79344 6.59 10.0034 6.83 10.3234 6.86C10.4234 6.86 10.5234 6.86 10.6134 6.86C13.0634 6.86 15.5234 6.86 17.9734 6.86ZM17.9934 9.21C15.5234 9.21 13.0634 9.21 10.5934 9.21C10.4834 9.21 10.3734 9.2 10.2634 9.21C9.96344 9.28 9.79344 9.46 9.78344 9.77C9.78344 10.1 9.95344 10.29 10.2634 10.36C10.3434 10.38 10.4334 10.36 10.5234 10.36C15.5034 10.36 20.4834 10.36 25.4634 10.36C25.5534 10.36 25.6334 10.37 25.7234 10.36C26.0234 10.29 26.1934 10.11 26.2034 9.8C26.2034 9.47 26.0334 9.27 25.7234 9.21C25.6134 9.19 25.5034 9.21 25.3934 9.21C22.9234 9.21 20.4634 9.21 17.9934 9.21ZM17.9734 13.9C20.4234 13.9 22.8834 13.9 25.3334 13.9C25.4434 13.9 25.5534 13.9 25.6634 13.9C25.9834 13.87 26.2034 13.64 26.2034 13.32C26.2034 13 25.9934 12.76 25.6734 12.73C25.6034 12.73 25.5234 12.73 25.4534 12.73C20.4834 12.73 15.5234 12.73 10.5534 12.73C10.4634 12.73 10.3834 12.72 10.2934 12.73C9.97344 12.79 9.79344 12.98 9.79344 13.31C9.79344 13.64 9.97344 13.83 10.2834 13.9C10.3934 13.92 10.5034 13.9 10.6134 13.9C13.0634 13.9 15.5234 13.9 17.9734 13.9ZM17.9934 16.24C15.5234 16.24 13.0634 16.24 10.5934 16.24C10.4834 16.24 10.3734 16.23 10.2634 16.24C9.96344 16.31 9.79344 16.49 9.78344 16.8C9.78344 17.13 9.95344 17.32 10.2634 17.39C10.3534 17.41 10.4534 17.39 10.5534 17.39C15.5034 17.39 20.4634 17.39 25.4134 17.39C25.5134 17.39 25.6134 17.4 25.7034 17.39C26.0034 17.32 26.1734 17.14 26.1834 16.83C26.1834 16.5 26.0134 16.3 25.7034 16.24C25.5934 16.22 25.4834 16.24 25.3734 16.24C22.9034 16.24 20.4434 16.24 17.9734 16.24H17.9934Z" fill="white"/>
<path d="M33.8331 33.39C32.7731 32.49 31.7031 31.58 30.6431 30.68C29.5831 29.79 28.5231 28.9 27.4731 28C26.7131 27.36 25.9631 26.7 25.2131 26.05C24.6631 25.58 24.1031 25.11 23.5431 24.64C23.4031 24.52 23.2331 24.43 23.2031 24.23C25.3731 22.3 27.5531 20.36 29.7231 18.43C30.2631 17.95 30.8131 17.46 31.3531 16.98C31.9031 16.5 32.4531 16.03 32.9931 15.54C33.4931 15.09 33.9931 14.62 34.4931 14.16C34.6431 14.2 34.6531 14.34 34.6931 14.45C34.8831 14.97 35.0031 15.5 35.0031 16.05C35.0031 20.86 35.0031 25.66 35.0031 30.47C35.0031 31.58 34.5931 32.56 33.8431 33.38L33.8331 33.39Z" fill="#1C70D3"/>
<path d="M34.5005 14.17C34.0005 14.63 33.5105 15.09 33.0005 15.55C32.4605 16.04 31.9005 16.51 31.3605 16.99C30.8105 17.47 30.2705 17.96 29.7305 18.44C29.7305 15.73 29.7305 13.03 29.7305 10.32C30.9505 11.07 32.1605 11.84 33.3205 12.68C33.8505 13.06 34.2305 13.59 34.5105 14.18L34.5005 14.17Z" fill="#2E7DF2"/>
<path d="M6.26172 18.29C5.88172 18.12 5.64172 17.78 5.34172 17.52C4.33172 16.65 3.36172 15.73 2.35172 14.86C2.08172 14.63 1.86172 14.32 1.51172 14.19C1.77172 13.57 2.17172 13.04 2.71172 12.66C3.87172 11.84 5.06172 11.07 6.27172 10.32C6.27172 12.98 6.27172 15.64 6.27172 18.29H6.26172Z" fill="#2E7DF2"/>
<path d="M8.70172 20.49C7.89172 19.76 7.03172 19.07 6.26172 18.29C5.88172 18.12 5.64172 17.78 5.34172 17.52C4.33172 16.65 3.36172 15.73 2.35172 14.86C2.08172 14.63 1.86172 14.32 1.51172 14.19C1.19172 14.73 1.06172 15.33 1.02172 15.95C1.02172 16.12 1.01172 16.29 1.01172 16.46C1.01172 21.01 1.01172 25.57 1.01172 30.12C1.01172 30.28 1.01172 30.44 1.02172 30.6C1.10172 31.78 1.54172 32.8 2.39172 33.62C3.11172 32.98 3.83172 32.35 4.54172 31.71C5.28172 31.05 6.02172 30.37 6.77172 29.71C7.97172 28.65 9.18172 27.59 10.3817 26.53C10.8917 26.08 11.4317 25.67 11.9217 25.19C12.2417 24.87 12.7017 24.68 12.8817 24.22C11.4917 22.98 10.0917 21.74 8.71172 20.49H8.70172Z" fill="#1C70D3"/>
<path d="M17.973 6.86C15.523 6.86 13.063 6.86 10.613 6.86C10.513 6.86 10.413 6.86 10.323 6.86C10.003 6.83 9.79297 6.59 9.79297 6.27C9.79297 5.95 10.013 5.72 10.333 5.69C10.403 5.69 10.483 5.69 10.553 5.69C15.523 5.69 20.483 5.69 25.453 5.69C25.523 5.69 25.603 5.69 25.673 5.69C25.993 5.72 26.203 5.96 26.203 6.28C26.203 6.6 25.983 6.83 25.663 6.86C25.563 6.86 25.463 6.86 25.373 6.86C22.903 6.86 20.443 6.86 17.973 6.86Z" fill="#2E7DF2"/>
<path d="M17.9916 9.21C20.4616 9.21 22.9216 9.21 25.3916 9.21C25.5016 9.21 25.6116 9.2 25.7216 9.21C26.0316 9.28 26.2116 9.48 26.2016 9.8C26.2016 10.11 26.0216 10.3 25.7216 10.36C25.6416 10.38 25.5516 10.36 25.4616 10.36C20.4816 10.36 15.5016 10.36 10.5216 10.36C10.4316 10.36 10.3516 10.37 10.2616 10.36C9.95165 10.29 9.77165 10.09 9.78165 9.77C9.78165 9.46 9.96165 9.27 10.2616 9.21C10.3716 9.19 10.4816 9.21 10.5916 9.21C13.0616 9.21 15.5216 9.21 17.9916 9.21Z" fill="#2E7DF2"/>
<path d="M17.973 13.9C15.523 13.9 13.063 13.9 10.613 13.9C10.503 13.9 10.393 13.91 10.283 13.9C9.96297 13.84 9.79297 13.64 9.79297 13.31C9.79297 12.98 9.98297 12.79 10.293 12.73C10.373 12.71 10.463 12.73 10.553 12.73C15.523 12.73 20.483 12.73 25.453 12.73C25.523 12.73 25.603 12.73 25.673 12.73C25.993 12.76 26.203 13 26.203 13.32C26.203 13.64 25.983 13.87 25.663 13.9C25.553 13.9 25.443 13.9 25.333 13.9C22.883 13.9 20.423 13.9 17.973 13.9Z" fill="#2E7DF2"/>
<path d="M17.9912 16.24C20.4612 16.24 22.9212 16.24 25.3912 16.24C25.5012 16.24 25.6112 16.23 25.7212 16.24C26.0312 16.31 26.2112 16.51 26.2012 16.83C26.2012 17.14 26.0212 17.33 25.7212 17.39C25.6312 17.41 25.5312 17.39 25.4312 17.39C20.4812 17.39 15.5212 17.39 10.5712 17.39C10.4712 17.39 10.3712 17.4 10.2812 17.39C9.97118 17.32 9.79118 17.12 9.80118 16.8C9.80118 16.49 9.98118 16.3 10.2812 16.24C10.3912 16.22 10.5012 16.24 10.6112 16.24C13.0812 16.24 15.5412 16.24 18.0112 16.24H17.9912Z" fill="#2E7DF2"/>
<path d="M30.6406 30.68C29.5806 29.79 28.5206 28.9 27.4706 28C26.7106 27.36 25.9606 26.7 25.2106 26.05C24.6606 25.58 24.1006 25.11 23.5406 24.64C23.4006 24.52 23.2306 24.43 23.2006 24.23C23.0506 24.23 22.9606 24.13 22.8606 24.04C22.2906 23.55 21.7106 23.06 21.1406 22.57C19.4606 21.13 17.4006 20.91 15.6106 22.01C15.0006 22.38 14.5306 22.91 13.9806 23.35C13.6206 23.64 13.3506 24.06 12.8806 24.21C12.7006 24.67 12.2406 24.86 11.9206 25.18C11.4406 25.66 10.9006 26.07 10.3806 26.52C9.17062 27.58 7.97062 28.64 6.77063 29.7C6.02063 30.36 5.29062 31.03 4.54062 31.7C3.82062 32.34 3.10062 32.97 2.39062 33.61C3.22062 34.48 4.24062 34.98 5.43062 34.98C13.7906 35 22.1406 34.99 30.5006 34.98C31.8506 34.98 32.9606 34.41 33.8406 33.38C32.7806 32.48 31.7206 31.57 30.6506 30.67L30.6406 30.68Z" fill="#2E7DF2"/>
<path d="M18 1C21.48 1 24.96 1 28.44 1C29.27 1 29.73 1.46 29.73 2.29C29.73 4.96 29.73 7.64 29.73 10.31C30.95 11.06 32.16 11.83 33.32 12.66C33.32 12.66 35.01 14.08 35.01 16.05C35.01 20.86 35.01 25.66 35.01 30.47C35.01 31.58 34.6 32.56 33.85 33.38C32.98 34.41 31.86 34.98 30.51 34.98C26.36 34.98 22.22 34.98 18.07 34.98C13.92 34.98 9.65 34.98 5.44 34.97C4.25 34.97 3.5 34.73 2.67 33.87L2.4 33.6C1.54 32.77 1.1 31.76 1.03 30.58C1.03 30.42 1.02 30.26 1.02 30.1C1.02 25.55 1.02 20.99 1.02 16.44C1.02 16.27 1.02 16.1 1.03 15.93C1.07 15.31 1.2 14.71 1.52 14.17C1.78 13.55 2.18 13.02 2.72 12.64C3.88 11.82 5.07 11.05 6.28 10.3C6.28 7.63 6.28 4.95 6.28 2.28C6.28 1.44 6.73 0.98 7.56 0.98C11.04 0.98 14.52 0.98 18 0.98M18 0H7.56C6.17 0 5.28 0.9 5.28 2.3V7.68V9.76C4.08 10.51 3.07 11.18 2.13 11.84C1.47 12.31 0.96 12.95 0.61 13.74C0.26 14.35 0.07 15.06 0.02 15.9V16.09C0.01 16.22 0 16.35 0 16.48V30.14C0 30.26 0 30.38 0 30.5V30.64C0.1 32.13 0.66 33.37 1.68 34.35L1.93 34.6C3.03 35.75 4.12 35.99 5.4 36C9.61 36 13.82 36.01 18.04 36.01C22.26 36.01 26.33 36.01 30.48 36.01C32.08 36.01 33.5 35.33 34.58 34.06C35.5 33.04 35.97 31.84 35.98 30.5C35.98 26.71 35.98 22.92 35.98 19.14V16.08C35.98 13.67 34.02 12 33.93 11.93C33.91 11.91 33.89 11.9 33.87 11.88C32.96 11.23 31.97 10.57 30.7 9.78V8.31V2.31C30.72 0.9 29.82 0 28.44 0H18Z" fill="#231815"/>
</g>
<defs>
<clipPath id="clip0_4729_77144">
<rect width="36" height="36" fill="white"/>
</clipPath>
</defs>
</svg>
