<svg width="37" height="36" viewBox="0 0 37 36" fill="none" xmlns="http://www.w3.org/2000/svg">
<g clip-path="url(#clip0_4729_77160)">
<path d="M27.128 2.03998H10.198C7.69612 2.03998 5.66797 4.06813 5.66797 6.56998V30.47C5.66797 32.9718 7.69612 35 10.198 35H27.128C29.6298 35 31.658 32.9718 31.658 30.47V6.56998C31.658 4.06813 29.6298 2.03998 27.128 2.03998Z" fill="#F4F4F4"/>
<path d="M30.8867 4.03998C31.2167 4.51998 31.4467 5.06998 31.5667 5.65998C31.4467 5.06998 31.2067 4.51998 30.8867 4.03998Z" fill="#BABABA"/>
<path d="M10.1991 2.03998C9.88906 2.03998 9.57906 2.06998 9.28906 2.12998C9.58906 2.06998 9.88906 2.03998 10.1991 2.03998Z" fill="#BABABA"/>
<path d="M7.66922 2.81C7.18922 3.14 6.76922 3.55 6.44922 4.03C6.77922 3.55 7.18922 3.13 7.66922 2.81Z" fill="#BABABA"/>
<path d="M7.66797 2.81C8.14797 2.48 8.69797 2.25 9.28797 2.13C8.69797 2.25 8.14797 2.49 7.66797 2.81Z" fill="#BABABA"/>
<path d="M29.878 32.27C29.878 33 29.288 33.6 28.548 33.6H10.478C8.93797 33.6 7.68797 32.35 7.68797 30.81C7.68797 29.27 8.93797 28.02 10.478 28.02H10.198C7.69797 28.02 5.66797 25.99 5.66797 23.49V30.46C5.66797 32.96 7.69797 34.99 10.198 34.99H27.128C28.168 34.99 29.118 34.64 29.888 34.06V32.27H29.878Z" fill="white"/>
<path d="M30.8897 4.03998C30.0797 2.82998 28.6997 2.03998 27.1297 2.03998H10.1997C9.88969 2.03998 9.57969 2.06998 9.28969 2.12998C8.69969 2.24998 8.14969 2.48998 7.66969 2.80998C7.18969 3.13998 6.76969 3.54998 6.44969 4.02998C5.95969 4.74998 5.67969 5.62998 5.67969 6.55998V23.49C5.67969 25.99 7.70969 28.02 10.2097 28.02H29.9497C30.8997 28.02 31.6697 27.25 31.6697 26.3V6.56998C31.6697 6.25998 31.6397 5.94998 31.5797 5.65998C31.4597 5.06998 31.2197 4.51998 30.8997 4.03998H30.8897Z" fill="white"/>
<path d="M7.6975 30.81C7.6975 32.35 8.9475 33.6 10.4875 33.6H30.3375C31.0675 33.6 31.6675 33.01 31.6675 32.27V28.02H10.4775C8.9375 28.02 7.6875 29.27 7.6875 30.81H7.6975Z" fill="#2E7DF2"/>
<path d="M18.6797 6.88H18.6397C17.9714 6.88 17.4297 7.42174 17.4297 8.09V16.47C17.4297 17.1383 17.9714 17.68 18.6397 17.68H18.6797C19.348 17.68 19.8897 17.1383 19.8897 16.47V8.09C19.8897 7.42174 19.348 6.88 18.6797 6.88Z" fill="#2E7DF2"/>
<path d="M15.9878 9.44997C15.3085 9.44997 14.7578 10.0007 14.7578 10.68C14.7578 11.3593 15.3085 11.91 15.9878 11.91H21.1578C21.8371 11.91 22.3878 11.3593 22.3878 10.68C22.3878 10.0007 21.8371 9.44997 21.1578 9.44997H15.9878Z" fill="#2E7DF2"/>
<path d="M15.1477 21.17C14.982 21.17 14.8477 21.3043 14.8477 21.47C14.8477 21.6356 14.982 21.77 15.1477 21.77H22.1777C22.3433 21.77 22.4777 21.6356 22.4777 21.47C22.4777 21.3043 22.3433 21.17 22.1777 21.17H15.1477Z" fill="#2E7DF2"/>
<path d="M13.1594 23.4302C12.9937 23.4302 12.8594 23.5645 12.8594 23.7302C12.8594 23.8959 12.9937 24.0302 13.1594 24.0302H24.1694C24.3351 24.0302 24.4694 23.8959 24.4694 23.7302C24.4694 23.5645 24.3351 23.4302 24.1694 23.4302H13.1594Z" fill="#2E7DF2"/>
<path d="M26.4684 1H23.7584C23.2835 1 22.8984 1.38504 22.8984 1.86V6.59C22.8984 7.06497 23.2835 7.45 23.7584 7.45H26.4684C26.9434 7.45 27.3284 7.06497 27.3284 6.59V1.86C27.3284 1.38504 26.9434 1 26.4684 1Z" fill="#2E7DF2"/>
<path d="M26.468 1C26.948 1 27.328 1.39 27.328 1.86V2.05C27.538 2.05 27.738 2.08 27.938 2.12C27.998 2.13 28.048 2.14 28.108 2.15C28.368 2.21 28.608 2.28 28.848 2.38C28.888 2.4 28.928 2.42 28.968 2.43C29.178 2.53 29.388 2.64 29.578 2.76C29.618 2.78 29.648 2.8 29.688 2.83C29.898 2.97 30.088 3.14 30.268 3.31C30.308 3.35 30.348 3.39 30.388 3.43C30.568 3.62 30.738 3.81 30.878 4.03C31.208 4.51 31.438 5.06 31.558 5.65C31.618 5.94 31.648 6.25 31.648 6.56V30.46C31.648 31.92 30.948 33.21 29.868 34.03V34.05C29.868 34.05 29.778 34.1 29.738 34.13C29.658 34.19 29.578 34.24 29.488 34.29C29.338 34.38 29.188 34.47 29.028 34.54C28.938 34.58 28.848 34.62 28.758 34.66C28.588 34.73 28.408 34.78 28.218 34.83C28.128 34.85 28.048 34.88 27.958 34.9C27.688 34.95 27.398 34.99 27.108 34.99H10.198C7.69797 34.99 5.66797 32.96 5.66797 30.46V6.57C5.66797 6.29 5.69797 6.01 5.74797 5.75C5.75797 5.67 5.78797 5.59 5.79797 5.52C5.84797 5.33 5.89797 5.14 5.97797 4.95C6.00797 4.88 6.02797 4.8 6.06797 4.73C6.17797 4.49 6.29797 4.26 6.44797 4.04C6.77797 3.56 7.18797 3.14 7.66797 2.82C8.14797 2.49 8.69797 2.26 9.28797 2.14C9.58797 2.08 9.88797 2.05 10.198 2.05H22.898V1.88C22.898 1.4 23.288 1.02 23.758 1.02H26.468M26.468 0H23.758C23.028 0 22.388 0.42 22.088 1.04H10.198C9.82797 1.04 9.44797 1.08 9.08797 1.15C8.37797 1.3 7.70797 1.58 7.10797 1.98C6.51797 2.38 6.01797 2.88 5.61797 3.47C5.45797 3.71 5.29797 3.99 5.15797 4.31C5.12797 4.38 5.09797 4.45 5.06797 4.52L5.04797 4.57C4.95797 4.79 4.88797 5.03 4.82797 5.26V5.31C4.79797 5.39 4.77797 5.47 4.76797 5.55C4.69797 5.92 4.66797 6.24 4.66797 6.56V30.46C4.66797 33.51 7.14797 35.99 10.198 35.99H27.128C27.458 35.99 27.798 35.96 28.158 35.89C28.238 35.87 28.328 35.85 28.408 35.83L28.478 35.81C28.728 35.75 28.938 35.68 29.138 35.6C29.248 35.56 29.358 35.51 29.478 35.45C29.668 35.36 29.858 35.26 30.048 35.14C30.168 35.07 30.258 35.01 30.348 34.95C30.398 34.92 30.458 34.89 30.508 34.85C30.568 34.81 30.618 34.76 30.658 34.7C31.938 33.64 32.668 32.1 32.668 30.45V6.57C32.668 6.2 32.628 5.82 32.558 5.46C32.408 4.75 32.128 4.08 31.728 3.48C31.568 3.24 31.368 3 31.128 2.75C31.068 2.69 31.028 2.65 30.988 2.61C30.758 2.39 30.518 2.19 30.278 2.02C30.238 1.99 30.208 1.97 30.168 1.95C29.908 1.79 29.658 1.65 29.398 1.53C29.338 1.5 29.298 1.48 29.258 1.46C28.978 1.34 28.678 1.25 28.358 1.18C28.308 1.17 28.268 1.16 28.218 1.15C27.938 0.48 27.268 0 26.498 0H26.468Z" fill="#231815"/>
</g>
<defs>
<clipPath id="clip0_4729_77160">
<rect width="27.99" height="36" fill="white" transform="translate(4.66797)"/>
</clipPath>
</defs>
</svg>
