<svg width="37" height="36" viewBox="0 0 37 36" fill="none" xmlns="http://www.w3.org/2000/svg">
<g clip-path="url(#clip0_4729_77182)">
<path d="M18.8684 34.935H17.7484C17.7284 34.875 17.6684 34.875 17.6084 34.865C16.7684 34.715 16.0684 34.315 15.4184 33.775C14.0784 32.665 12.7184 31.575 11.3884 30.455C10.9784 30.105 10.5384 29.955 9.99844 29.965C8.56844 29.985 7.12844 29.985 5.69844 29.965C3.25844 29.935 1.39844 28.055 1.39844 25.615C1.39844 18.865 1.39844 12.125 1.39844 5.375C1.39844 2.965 3.28844 1.065 5.68844 1.065C14.1184 1.065 22.5484 1.065 30.9884 1.065C32.9984 1.065 34.6784 2.415 35.1584 4.375C35.1884 4.485 35.1484 4.625 35.2684 4.705V26.335C35.2084 26.355 35.2084 26.415 35.1984 26.475C34.6384 28.715 33.0484 29.965 30.7384 29.965C29.3484 29.965 27.9584 29.975 26.5684 29.965C26.0884 29.965 25.6984 30.115 25.3384 30.415C23.9384 31.575 22.5284 32.725 21.1284 33.885C20.5984 34.315 20.0184 34.635 19.3584 34.815C19.1984 34.855 19.0084 34.835 18.8584 34.945L18.8684 34.935ZM11.6184 15.875C11.6184 16.305 11.8084 16.655 12.1084 16.955C13.2184 18.055 14.3184 19.165 15.4284 20.275C16.1784 21.025 16.9484 21.015 17.7084 20.275C19.1884 18.795 20.6684 17.315 22.1484 15.835C22.9584 15.025 23.7684 14.215 24.5784 13.405C24.9984 12.985 25.1484 12.485 24.9684 11.925C24.6484 10.895 23.3884 10.615 22.5884 11.405C20.6684 13.315 18.7484 15.235 16.8384 17.165C16.6284 17.385 16.5184 17.415 16.2884 17.175C15.5484 16.405 14.7884 15.655 14.0284 14.905C13.5884 14.465 13.0484 14.365 12.4684 14.595C11.9384 14.805 11.6084 15.325 11.6084 15.895L11.6184 15.875Z" fill="#208EEC"/>
<path d="M35.1584 4.375C34.6784 2.415 32.9984 1.065 30.9884 1.065C22.5584 1.065 14.1284 1.065 5.68844 1.065C3.27844 1.065 1.39844 2.965 1.39844 5.375C1.39844 12.125 1.39844 18.865 1.39844 25.615C1.39844 28.055 3.25844 29.935 5.69844 29.965C7.12844 29.985 8.56844 29.985 9.99844 29.965C10.5384 29.965 10.9684 30.115 11.3884 30.455C12.7184 31.575 14.0784 32.665 15.4184 33.775C16.0684 34.315 16.7684 34.715 17.6084 34.865C17.6584 34.865 17.7184 34.865 17.7484 34.935H18.8684C19.0184 34.825 19.1984 34.845 19.3684 34.805C20.0284 34.635 20.6084 34.305 21.1384 33.875C22.5384 32.715 23.9484 31.575 25.3484 30.405C25.7184 30.105 26.0984 29.945 26.5784 29.955C27.9684 29.975 29.3584 29.955 30.7484 29.955C33.0584 29.955 34.6484 28.705 35.2084 26.465C35.2184 26.415 35.2084 26.355 35.2784 26.325V4.705C35.1584 4.625 35.1984 4.485 35.1684 4.375H35.1584ZM24.5884 13.395C23.7784 14.205 22.9684 15.015 22.1584 15.825C20.6784 17.305 19.1984 18.785 17.7184 20.265C16.9684 21.015 16.1884 21.015 15.4384 20.265C14.3284 19.155 13.2284 18.045 12.1184 16.945C11.8184 16.645 11.6284 16.295 11.6284 15.865C11.6284 15.295 11.9584 14.775 12.4884 14.565C13.0684 14.335 13.5984 14.435 14.0384 14.875C14.7984 15.625 15.5684 16.375 16.2984 17.145C16.5284 17.385 16.6384 17.345 16.8484 17.135C18.7584 15.205 20.6784 13.295 22.5984 11.375C23.3884 10.585 24.6484 10.865 24.9784 11.895C25.1584 12.465 25.0084 12.955 24.5884 13.375V13.395Z" fill="white"/>
<path d="M11.6172 15.875C11.6172 15.305 11.9472 14.785 12.4772 14.575C13.0572 14.345 13.5872 14.445 14.0372 14.885C14.7972 15.635 15.5672 16.385 16.2972 17.155C16.5272 17.395 16.6372 17.355 16.8472 17.145C18.7572 15.215 20.6772 13.305 22.5972 11.385C23.3872 10.595 24.6472 10.875 24.9772 11.905C25.1572 12.475 25.0072 12.965 24.5872 13.385C23.7772 14.195 22.9672 15.005 22.1572 15.815C20.6772 17.295 19.1972 18.775 17.7172 20.255C16.9672 21.005 16.1872 21.005 15.4372 20.255C14.3272 19.145 13.2272 18.035 12.1172 16.935C11.8172 16.635 11.6272 16.285 11.6272 15.855L11.6172 15.875Z" fill="#2E7DF2"/>
<path d="M18.0884 1.065C22.3884 1.065 26.6884 1.065 30.9884 1.065C31.4884 1.065 31.9784 1.145 32.4184 1.305C33.7584 1.775 34.7984 2.905 35.1584 4.375C35.1584 4.405 35.1584 4.435 35.1684 4.465C35.1684 4.525 35.1684 4.585 35.1984 4.635C35.2084 4.665 35.2284 4.685 35.2584 4.705V26.335C35.2584 26.335 35.2084 26.365 35.2084 26.395C35.2084 26.415 35.1984 26.445 35.1884 26.475C35.1184 26.755 35.0284 27.025 34.9284 27.265C34.2184 29.005 32.7484 29.965 30.7284 29.965C29.9484 29.965 29.1784 29.965 28.3984 29.965C27.7884 29.965 27.1784 29.965 26.5584 29.965C26.5584 29.965 26.5384 29.965 26.5284 29.965C26.0584 29.965 25.6784 30.115 25.3184 30.415C23.9184 31.575 22.5084 32.725 21.1084 33.885C20.7184 34.215 20.2784 34.445 19.8084 34.635C19.6484 34.695 19.5084 34.775 19.3384 34.815C19.1784 34.855 18.9884 34.835 18.8384 34.945H17.7184C17.6984 34.885 17.6384 34.885 17.5784 34.875C16.7384 34.725 16.0384 34.325 15.3884 33.785C14.0484 32.675 12.6884 31.585 11.3584 30.465C10.9584 30.125 10.5284 29.975 10.0084 29.975C9.99844 29.975 9.97844 29.975 9.96844 29.975C9.23844 29.985 8.49844 29.995 7.76844 29.995C7.03844 29.995 6.36844 29.995 5.66844 29.985C5.05844 29.985 4.48844 29.855 3.96844 29.635C3.70844 29.525 3.46844 29.395 3.23844 29.235C2.77844 28.925 2.38844 28.535 2.08844 28.075C1.62844 27.385 1.36844 26.545 1.36844 25.635C1.36844 18.885 1.36844 12.145 1.36844 5.395C1.36844 4.185 1.83844 3.115 2.60844 2.335C3.37844 1.555 4.45844 1.085 5.65844 1.085C9.78844 1.085 13.9184 1.085 18.0484 1.085M18.0884 0.0650024C13.9584 0.0650024 9.82844 0.0650024 5.69844 0.0650024C4.26844 0.0650024 2.92844 0.615002 1.93844 1.615C0.948437 2.605 0.398438 3.945 0.398438 5.375C0.398438 12.125 0.398438 18.875 0.398438 25.615C0.398438 26.695 0.708438 27.735 1.27844 28.605C1.65844 29.175 2.13844 29.665 2.69844 30.045C2.97844 30.235 3.28844 30.405 3.59844 30.535C4.24844 30.805 4.94844 30.955 5.67844 30.965C6.37844 30.965 7.08844 30.975 7.78844 30.975C8.52844 30.975 9.26844 30.975 10.0084 30.955C10.3184 30.955 10.5084 31.025 10.7384 31.215C11.4684 31.825 12.1984 32.425 12.9284 33.025C13.5384 33.525 14.1584 34.035 14.7684 34.535C15.5784 35.205 16.3884 35.625 17.2584 35.815C17.3984 35.895 17.5584 35.935 17.7284 35.935H18.8484C19.0084 35.935 19.1684 35.895 19.3084 35.825C19.4084 35.815 19.5084 35.795 19.5984 35.775C19.7884 35.725 19.9384 35.655 20.0584 35.605L20.1784 35.555C20.7884 35.315 21.2984 35.015 21.7484 34.655C22.2684 34.225 22.7984 33.795 23.3284 33.355C24.2084 32.635 25.0884 31.905 25.9684 31.185C26.1584 31.025 26.3184 30.965 26.5384 30.965C27.1684 30.965 27.7884 30.965 28.3984 30.965H29.6184H30.7284C33.1684 30.965 34.9884 29.785 35.8584 27.645C35.9584 27.385 36.0584 27.115 36.1284 26.835C36.2184 26.685 36.2584 26.515 36.2584 26.335V4.705C36.2584 4.535 36.2184 4.375 36.1384 4.235C36.1384 4.205 36.1284 4.175 36.1184 4.145C35.6884 2.375 34.4284 0.965002 32.7384 0.375002C32.1884 0.165002 31.5984 0.0650024 30.9884 0.0650024C26.6884 0.0650024 22.3884 0.0650024 18.0884 0.0650024Z" fill="#231815"/>
</g>
<defs>
<clipPath id="clip0_4729_77182">
<rect width="35.87" height="35.87" fill="white" transform="translate(0.398438 0.0650024)"/>
</clipPath>
</defs>
</svg>
