<svg width="36" height="36" viewBox="0 0 36 36" fill="none" xmlns="http://www.w3.org/2000/svg">
<g clip-path="url(#clip0_4729_77191)">
<path d="M28.1581 24.65C27.7081 24.57 26.3381 24.87 26.4881 24.03C26.5981 23.4 27.6981 23.67 28.1681 23.61C29.7481 23.39 29.9081 21.03 28.3181 20.65C25.7081 20.46 22.7781 20.89 20.2081 20.65C19.8081 20.61 19.4681 20.5 19.5181 20.03C19.5881 19.31 20.7881 19.81 21.2281 19.56C21.4081 17.92 21.9881 16.13 21.3181 14.54C20.9981 13.79 19.8981 12.68 19.0381 13.24C18.6581 13.49 18.4981 15.01 18.3581 15.53C17.8481 17.47 16.1981 20.16 14.7081 21.51C14.1081 22.05 13.3681 22.23 12.5781 22.24V33.32H14.0581C15.2381 33.32 15.7481 34.7 16.8181 34.91L26.6981 34.88C27.6181 34.61 27.8181 33.35 26.9681 32.87C26.5981 32.66 26.0081 32.77 25.9181 32.32C25.7281 31.37 27.2281 31.74 27.7381 31.63C29.0181 31.37 29.1081 29.24 27.7981 28.86C27.4981 28.77 26.9381 28.86 26.8581 28.43C26.6981 27.58 27.7681 27.88 28.3181 27.73C29.9081 27.3 29.8181 24.93 28.1781 24.65H28.1581Z" fill="white"/>
<path d="M10.7114 20.66C10.1214 20.55 7.15141 20.56 6.54141 20.66C6.11141 20.73 5.74141 21.11 5.69141 21.55L5.72141 34.12C5.84141 34.57 6.22141 34.84 6.67141 34.91C7.48141 35.02 9.52141 34.99 10.3614 34.91C11.0214 34.85 11.4614 34.54 11.5514 33.86L11.5214 21.51C11.4214 21.1 11.1414 20.74 10.7014 20.66H10.7114Z" fill="#2E7DF2"/>
<path d="M29.2797 19.98C29.1397 19.9 28.5897 19.63 28.4697 19.63H22.2797C22.5197 17.52 23.1897 15.05 21.6997 13.22C20.5997 11.87 18.3097 11.47 17.7497 13.47C17.3297 14.96 17.3197 16.01 16.5197 17.46C16.1297 18.16 14.3097 20.67 13.6797 20.99C13.3297 21.17 12.9097 21.24 12.5097 21.21C12.2897 20.4 11.6297 19.76 10.7797 19.65C9.82969 19.52 7.56969 19.54 6.59969 19.63C5.68969 19.71 5.00969 20.31 4.72969 21.17L4.67969 34.02C4.75969 35.05 5.59969 35.82 6.60969 35.93C7.46969 36.02 10.4297 36.04 11.1697 35.8C11.8597 35.58 12.2897 35.02 12.5197 34.36C13.2797 34.36 13.9697 34.22 14.6497 34.64C15.5997 35.23 15.5297 35.85 16.9597 35.95C20.0797 36.17 23.4497 35.78 26.5897 35.95C28.2697 35.74 29.0297 33.98 28.1497 32.55C29.7997 32.05 30.3097 29.81 29.0897 28.6V28.49C30.7697 27.7 30.9597 25.25 29.4497 24.18C30.8597 23.12 30.8097 20.91 29.2797 20V19.98ZM10.3697 34.92C9.52969 34.99 7.48969 35.02 6.67969 34.92C6.22969 34.86 5.84969 34.58 5.72969 34.13L5.69969 21.56C5.74969 21.12 6.11969 20.75 6.54969 20.67C7.14969 20.57 10.1197 20.56 10.7197 20.67C11.1597 20.75 11.4397 21.1 11.5397 21.52L11.5697 33.87C11.4797 34.55 11.0397 34.87 10.3797 34.92H10.3697ZM28.2997 27.72C27.7397 27.87 26.6797 27.57 26.8397 28.42C26.9197 28.86 27.4897 28.77 27.7797 28.85C29.0997 29.23 28.9997 31.36 27.7197 31.62C27.2097 31.73 25.7097 31.36 25.8997 32.31C25.9897 32.76 26.5897 32.65 26.9497 32.86C27.7997 33.34 27.5997 34.6 26.6797 34.87L16.7997 34.9C15.7297 34.69 15.2197 33.31 14.0397 33.31H12.5597V22.23C13.3497 22.23 14.0997 22.04 14.6897 21.5C16.1797 20.16 17.8397 17.46 18.3397 15.52C18.4797 14.99 18.6297 13.48 19.0197 13.23C19.8797 12.67 20.9797 13.78 21.2997 14.53C21.9697 16.12 21.3897 17.91 21.2097 19.55C20.7697 19.8 19.5697 19.29 19.4997 20.02C19.4597 20.49 19.7897 20.6 20.1897 20.64C22.7597 20.88 25.6897 20.45 28.2997 20.64C29.8897 21.02 29.7297 23.38 28.1497 23.6C27.6797 23.66 26.5797 23.39 26.4697 24.02C26.3197 24.86 27.6997 24.56 28.1397 24.64C29.7797 24.92 29.8697 27.29 28.2797 27.72H28.2997Z" fill="black"/>
<g clip-path="url(#clip1_4729_77191)">
<path d="M7.58 10.14L9.72 11.15C9.79 11.05 9.31 9.17002 9.46 8.68002C9.56 8.37002 10.64 7.52002 10.91 7.16002C10.97 7.09002 11.05 7.07002 11.02 6.94002C10.52 6.82002 8.97 6.76002 8.63 6.47002C8.38 6.25002 7.86 4.95002 7.63 4.57002C7.6 4.53002 7.52 4.37002 7.47 4.40002L6.35 6.50002L4 6.93002L5.65 8.79002L5.37 11.13L7.57 10.12L7.58 10.14Z" fill="#2E7DF2"/>
<path d="M14.4987 3.47002C14.4687 3.60002 14.5487 3.61002 14.6087 3.69002C14.8687 4.03002 16.0187 5.08002 16.0787 5.33002C16.1687 5.72002 15.7187 7.55002 15.8087 7.67002L18.0087 6.66002L20.1487 7.67002C20.2387 7.55002 19.7887 5.72002 19.8787 5.33002C19.9387 5.07002 21.0887 4.02002 21.3487 3.68002C21.4087 3.61002 21.4887 3.59002 21.4587 3.46002L19.1187 3.03002L18.0487 1.00002C17.8787 0.960022 17.9287 1.02002 17.8887 1.09002C17.4987 1.69002 17.2587 2.44002 16.8387 3.03002L14.4987 3.46002V3.47002Z" fill="#2E7DF2"/>
<path d="M28.4706 4.41998C28.4706 4.41998 28.3406 4.54998 28.3106 4.58998C28.0706 4.96998 27.5506 6.26998 27.3106 6.48998C26.9706 6.78998 25.4206 6.84998 24.9206 6.95998C24.8906 7.08998 24.9706 7.09998 25.0306 7.17998C25.3006 7.52998 26.3906 8.38998 26.4806 8.69998C26.6306 9.16998 26.1506 11.07 26.2206 11.17L28.3606 10.16L30.5606 11.17L30.2806 8.82998L31.9306 6.96998C31.4106 6.84998 29.9506 6.79998 29.5806 6.53998C29.2606 6.30998 28.6806 4.84998 28.4606 4.43998L28.4706 4.41998Z" fill="#2E7DF2"/>
<path d="M7.48852 4.40997C7.48852 4.40997 7.60852 4.53997 7.62852 4.57997C7.86852 4.95997 8.38852 6.25997 8.62852 6.47997C8.96852 6.77997 10.5185 6.83997 11.0185 6.94997C11.0485 7.07997 10.9685 7.08997 10.9085 7.16997C10.6385 7.51997 9.54852 8.37997 9.45852 8.68997C9.30852 9.16997 9.78852 11.06 9.71852 11.16L7.57852 10.15L5.37852 11.16L5.65852 8.81997L4.00852 6.95997L6.35852 6.52997L7.47852 4.42997C7.47852 4.42997 7.48852 4.42997 7.49852 4.42997M7.48852 3.40997C7.26852 3.40997 7.04852 3.48997 6.86852 3.61997C6.74852 3.70997 6.65852 3.81997 6.58852 3.94997L5.69852 5.62997L3.81852 5.97997C3.46852 6.04997 3.16852 6.29997 3.05852 6.63997C2.94852 6.97997 3.01852 7.35997 3.25852 7.62997L4.61852 9.15997L4.39852 11.05C4.35852 11.41 4.50852 11.76 4.79852 11.98C4.96852 12.11 5.17852 12.17 5.38852 12.17C5.52852 12.17 5.66852 12.14 5.80852 12.08L7.58852 11.26L9.30852 12.07C9.44852 12.13 9.58852 12.17 9.73852 12.17C10.0485 12.17 10.3485 12.03 10.5385 11.77C10.8285 11.38 10.7685 11.06 10.6285 10.27C10.5785 9.97997 10.4685 9.36997 10.4485 9.05997C10.5885 8.90997 10.8385 8.67997 10.9985 8.52997C11.2785 8.26997 11.5185 8.04997 11.6885 7.84997C12.1285 7.41997 12.0585 6.91997 12.0085 6.71997C11.9185 6.35997 11.6285 6.07997 11.2685 5.99997C11.0485 5.94997 10.7585 5.90997 10.4185 5.86997C10.1385 5.83997 9.58852 5.76997 9.31852 5.69997C9.20852 5.49997 9.03852 5.12997 8.92852 4.90997C8.76852 4.55997 8.61852 4.25997 8.49852 4.05997C8.24852 3.62997 7.91852 3.41997 7.50852 3.41997L7.48852 3.40997Z" fill="#231815"/>
<path d="M17.9693 0.99999C17.9693 0.99999 18.0093 0.99999 18.0493 1.00999L19.1193 3.03999L21.4593 3.46999C21.4893 3.59999 21.4093 3.60999 21.3493 3.68999C21.0893 4.02999 19.9393 5.06999 19.8793 5.33999C19.7893 5.72999 20.2393 7.55999 20.1493 7.67999L18.0093 6.66999L15.8093 7.67999C15.7193 7.55999 16.1693 5.72999 16.0793 5.33999C16.0193 5.08999 14.8693 4.02999 14.6093 3.69999C14.5493 3.62999 14.4693 3.60999 14.4993 3.47999L16.8393 3.04999C17.2593 2.46999 17.4993 1.70999 17.8893 1.10999C17.9293 1.04999 17.8993 1.00999 17.9693 1.00999M17.9693 -9.76585e-06C17.5293 -9.76585e-06 17.1593 0.25999 16.9893 0.64999C16.8093 0.94999 16.6593 1.24999 16.5193 1.54999C16.4193 1.75999 16.3293 1.94999 16.2293 2.12999L14.3193 2.47999C13.9393 2.54999 13.6293 2.83999 13.5293 3.20999C13.4793 3.40999 13.4093 3.90999 13.8493 4.33999C13.9793 4.49999 14.1693 4.69999 14.4593 4.98999C14.6293 5.15999 14.9093 5.43999 15.0693 5.62999C15.0393 5.88999 14.9693 6.31999 14.9193 6.56999C14.7593 7.49999 14.6993 7.84999 14.9893 8.24999C15.1793 8.50999 15.4893 8.65999 15.7993 8.65999C15.9393 8.65999 16.0793 8.62999 16.2193 8.56999L17.9993 7.74999L19.7193 8.55999C19.8593 8.62999 19.9993 8.65999 20.1493 8.65999C20.4593 8.65999 20.7593 8.51999 20.9593 8.24999C21.2493 7.84999 21.1893 7.49999 21.0293 6.56999C20.9893 6.30999 20.9093 5.87999 20.8793 5.61999C21.0393 5.43999 21.3193 5.14999 21.4893 4.97999C21.7793 4.68999 21.9693 4.48999 22.0993 4.32999C22.5393 3.89999 22.4693 3.39999 22.4193 3.19999C22.3193 2.81999 22.0193 2.53999 21.6293 2.46999L19.7693 2.12999L18.9293 0.52999C18.7893 0.26999 18.5493 0.0799902 18.2593 0.0199902C18.1493 -9.76585e-06 18.0593 -0.0100098 17.9693 -0.0100098V-9.76585e-06Z" fill="#231815"/>
<path d="M28.459 4.41002C28.459 4.41002 28.469 4.41002 28.479 4.41002C28.699 4.82002 29.279 6.28002 29.599 6.51002C29.969 6.78002 31.429 6.82002 31.949 6.94002L30.299 8.80002L30.579 11.14L28.379 10.13L26.239 11.14C26.169 11.04 26.639 9.14002 26.499 8.67002C26.399 8.36002 25.319 7.51002 25.049 7.15002C24.989 7.08002 24.909 7.06002 24.939 6.93002C25.439 6.81002 26.989 6.75002 27.329 6.46002C27.579 6.24002 28.099 4.94002 28.329 4.56002C28.349 4.52002 28.419 4.39002 28.469 4.39002M28.459 3.41002C28.049 3.41002 27.719 3.63002 27.469 4.05002C27.349 4.25002 27.209 4.55002 27.039 4.89002C26.939 5.11002 26.769 5.47002 26.649 5.68002C26.379 5.75002 25.829 5.81002 25.549 5.85002C25.209 5.89002 24.919 5.92002 24.699 5.98002C24.339 6.06002 24.059 6.34002 23.959 6.70002C23.909 6.90002 23.839 7.40002 24.279 7.83002C24.439 8.03002 24.689 8.25002 24.959 8.51002C25.119 8.66002 25.369 8.89002 25.509 9.03002C25.489 9.34002 25.389 9.93002 25.339 10.24C25.199 11.04 25.139 11.37 25.429 11.75C25.619 12.01 25.919 12.15 26.229 12.15C26.369 12.15 26.519 12.12 26.659 12.05L28.379 11.24L30.159 12.06C30.289 12.12 30.439 12.15 30.579 12.15C30.789 12.15 30.989 12.09 31.169 11.96C31.459 11.75 31.619 11.39 31.569 11.03L31.349 9.14002L32.709 7.61002C32.939 7.35002 33.019 6.98002 32.909 6.64002C32.799 6.30002 32.529 6.05002 32.179 5.97002C31.939 5.92002 31.629 5.88002 31.279 5.84002C30.979 5.81002 30.469 5.75002 30.209 5.69002C30.049 5.42002 29.769 4.82002 29.639 4.54002C29.519 4.29002 29.419 4.07002 29.359 3.94002C29.289 3.81002 29.199 3.70002 29.079 3.61002C28.909 3.48002 28.679 3.40002 28.459 3.40002V3.41002Z" fill="#231815"/>
</g>
</g>
<defs>
<clipPath id="clip0_4729_77191">
<rect width="36" height="36" fill="white"/>
</clipPath>
<clipPath id="clip1_4729_77191">
<rect width="29.95" height="12.15" fill="white" transform="translate(3)"/>
</clipPath>
</defs>
</svg>
