<svg width="34" height="46" viewBox="0 0 34 46" fill="none" xmlns="http://www.w3.org/2000/svg">
<g clip-path="url(#clip0_4348_46869)">
<path d="M16.9376 33.6074C18.2558 33.6074 19.3245 32.5388 19.3245 31.2206C19.3245 29.9024 18.2558 28.8337 16.9376 28.8337C15.6194 28.8337 14.5508 29.9024 14.5508 31.2206C14.5508 32.5388 15.6194 33.6074 16.9376 33.6074Z" stroke="#6373C2" stroke-width="1.16571" stroke-linejoin="round"/>
<path d="M22.3556 22C22.3556 24.8768 20.0253 27.2071 17.1485 27.2071C14.2717 27.2071 11.9414 24.8768 11.9414 22" stroke="#6373C2" stroke-width="1.16571" stroke-linecap="round" stroke-linejoin="round"/>
<path d="M15.207 14.2048H18.7559" stroke="#6373C2" stroke-width="1.16571" stroke-linecap="round" stroke-linejoin="round"/>
<path d="M16.9805 15.9762V12.4336" stroke="#6373C2" stroke-width="1.16571" stroke-linecap="round" stroke-linejoin="round"/>
<path d="M29.0139 11.1582C29.0139 16.7987 23.631 21.3651 16.9855 21.3651C10.34 21.3651 4.95703 16.7987 4.95703 11.1582" stroke="#6373C2" stroke-width="1.16571" stroke-linecap="round" stroke-linejoin="round"/>
<path d="M30.3465 3.95375C30.3465 3.95375 23.8957 5.13461 16.9173 5.13461C9.93894 5.13461 3.43792 3.95375 3.43792 3.95375C2.69674 3.95375 2.09375 3.41985 2.09375 2.7666V2.47767C2.09375 1.81815 2.69674 1.29053 3.43792 1.29053C3.43792 1.29053 9.14751 2.47139 16.8734 2.47139C24.1532 2.47139 30.3465 1.29053 30.3465 1.29053C31.0877 1.29053 31.6906 1.82443 31.6906 2.47767V2.7666C31.6906 3.42613 31.0877 3.95375 30.3465 3.95375Z" stroke="#6373C2" stroke-width="1.16571" stroke-linecap="round" stroke-linejoin="round"/>
<path d="M33.2557 7.77904C33.0861 7.32052 32.6464 6.9939 32.1314 6.9939H1.83099C1.16518 6.9939 0.625 7.53408 0.625 8.19988C0.625 8.21873 0.625 8.23757 0.625 8.26269C0.625 8.28154 0.625 8.30038 0.625 8.32551V27.169C0.625 27.8976 1.21543 28.4944 1.95033 28.4944C2.68523 28.4944 3.27566 27.9039 3.27566 27.169V9.39959H30.7307V27.1627C30.7307 27.8914 31.3211 28.4881 32.056 28.4881C32.7909 28.4881 33.3813 27.8976 33.3813 27.1627V8.31922C33.3813 8.12451 33.3374 7.94235 33.262 7.77904H33.2557Z" stroke="#6373C2" stroke-width="1.16571" stroke-linecap="round" stroke-linejoin="round"/>
<path d="M18.7524 34.8696C18.7524 34.8696 19.6129 42.9347 21.3528 44.6745H16.9811H12.6094C14.3493 42.9347 15.2098 34.8696 15.2098 34.8696" stroke="#6373C2" stroke-width="1.16571" stroke-linecap="round" stroke-linejoin="round"/>
</g>
<defs>
<clipPath id="clip0_4348_46869">
<rect width="34" height="44.6403" fill="white" transform="translate(0 0.656494)"/>
</clipPath>
</defs>
</svg>
