<svg width="41" height="35" viewBox="0 0 41 35" fill="none" xmlns="http://www.w3.org/2000/svg">
<g clip-path="url(#clip0_4348_46902)">
<path d="M36.8393 9.17861C33.1902 7.65127 30.4905 11.8866 27.4853 15.8907C24.4802 19.8948 21.8465 24.287 13.2108 25.1291C4.57512 25.9712 4.21186 19.0692 4.21186 19.0692C4.21186 19.0692 0.942511 23.2385 3.75778 25.1951C3.75778 25.1951 0.57925 26.6151 1.4874 30.1569C1.4874 30.1569 4.91361 28.192 10.0323 30.7018C15.151 33.2116 27.6835 36.2581 33.0333 31.255C38.3832 26.2519 42.7506 11.6471 36.8393 9.17861Z" stroke="#C263C2" stroke-width="1.37143" stroke-linecap="round" stroke-linejoin="round"/>
<path d="M14.8208 20.365C19.2847 20.365 22.9034 18.5945 22.9034 16.4104C22.9034 14.2263 19.2847 12.4558 14.8208 12.4558C10.357 12.4558 6.73828 14.2263 6.73828 16.4104C6.73828 18.5945 10.357 20.365 14.8208 20.365Z" stroke="#C263C2" stroke-width="1.37143" stroke-linecap="round" stroke-linejoin="round"/>
<path d="M20.1646 9.61622C24.6285 9.61622 28.2472 7.84568 28.2472 5.66162C28.2472 3.47756 24.6285 1.70703 20.1646 1.70703C15.7007 1.70703 12.082 3.47756 12.082 5.66162C12.082 7.84568 15.7007 9.61622 20.1646 9.61622Z" stroke="#C263C2" stroke-width="1.37143" stroke-linecap="round" stroke-linejoin="round"/>
<path d="M32.5128 16.4113C32.5128 16.712 32.2691 16.9557 31.9684 16.9557C31.6677 16.9557 31.424 16.712 31.424 16.4113C31.424 16.1106 31.6677 15.8669 31.9684 15.8669C32.2691 15.8669 32.5128 16.1106 32.5128 16.4113Z" fill="white" stroke="#C263C2" stroke-width="1.37143"/>
<path d="M28.5547 18.6648C28.5547 18.6648 28.8932 22.9579 34.8952 24.188" stroke="#C263C2" stroke-width="1.37143" stroke-linecap="round" stroke-linejoin="round"/>
<path d="M29.0019 23.3047L24.6758 25.1292L26.2362 30.7681L30.7439 24.5266" stroke="#C263C2" stroke-width="1.37143" stroke-linecap="round" stroke-linejoin="round"/>
<path d="M14.8235 12.4558C14.8235 12.4558 13.4365 14.9904 14.8235 17.0956" stroke="#C263C2" stroke-width="1.37143" stroke-linecap="round" stroke-linejoin="round"/>
<path d="M17.928 12.7534C17.928 12.7534 17.0529 15.2467 17.928 16.4108" stroke="#C263C2" stroke-width="1.37143" stroke-linecap="round" stroke-linejoin="round"/>
<path d="M11.4127 12.8276C11.4127 12.8276 10.0753 14.4541 11.0329 16.4272" stroke="#C263C2" stroke-width="1.37143" stroke-linecap="round" stroke-linejoin="round"/>
<path d="M20.5767 1.71509C20.5767 1.71509 18.7356 3.86989 19.8254 6.7347" stroke="#C263C2" stroke-width="1.37143" stroke-linecap="round" stroke-linejoin="round"/>
<path d="M24.2308 2.24414C24.2308 2.24414 22.3072 3.63939 22.9099 5.6621" stroke="#C263C2" stroke-width="1.37143" stroke-linecap="round" stroke-linejoin="round"/>
<path d="M17.5405 1.92163C17.5405 1.92163 15.3279 3.80398 16.2196 5.7111" stroke="#C263C2" stroke-width="1.37143" stroke-linecap="round" stroke-linejoin="round"/>
</g>
<defs>
<clipPath id="clip0_4348_46902">
<rect width="40" height="33.8989" fill="white" transform="translate(0.5 0.881348)"/>
</clipPath>
</defs>
</svg>
