<svg width="43" height="30" viewBox="0 0 43 30" fill="none" xmlns="http://www.w3.org/2000/svg">
<g clip-path="url(#clip0_4348_46885)">
<path d="M39.1956 1.35522C39.1956 1.35522 36.7154 2.06647 36.5999 4.09079C36.4844 6.1151 37.4023 6.80811 37.4023 6.80811C37.4023 6.80811 40.3142 3.76252 39.1956 1.35522Z" stroke="#8F63C2" stroke-width="1.44043" stroke-linejoin="round"/>
<path d="M33.011 2.56494C33.011 2.56494 32.1478 3.74427 32.4578 5.43424C32.7679 7.12421 34.5308 7.84154 34.5308 7.84154C34.5308 7.84154 36.2451 4.50415 33.011 2.56494Z" stroke="#8F63C2" stroke-width="1.44043" stroke-linejoin="round"/>
<path d="M37.25 10.4794C37.25 10.4794 38.7454 6.85629 41.8883 9.45811C41.8883 9.45811 40.7211 12.2119 37.25 10.4794Z" stroke="#8F63C2" stroke-width="1.44043" stroke-linejoin="round"/>
<path d="M36.5864 8.4248C36.5864 8.4248 34.7201 9.88985 34.5195 12.0479" stroke="#8F63C2" stroke-width="1.44043" stroke-linecap="round" stroke-linejoin="round"/>
<path d="M33.9478 17.0024C33.9478 17.0024 33.194 20.7654 33.6256 23.507" stroke="#8F63C2" stroke-width="1.44043" stroke-linecap="round" stroke-linejoin="round"/>
<path d="M28.0294 11.3311C26.0781 11.6351 25.4823 12.6138 24.078 13.0758C22.6738 13.5378 20.8015 13.0393 18.3455 14.8326C14.9352 17.3251 14.1024 19.629 9.28778 20.3646C4.47319 21.1001 1.6586 19.3433 1.6586 19.3433C1.6586 19.3433 -0.481221 25.7871 3.59781 28.7962C3.59781 28.7962 5.62212 25.2156 9.62212 24.7779C13.6221 24.3402 19.4701 27.4345 23.616 25.3676C27.7619 23.3007 28.4975 18.0241 29.5674 16.9968C30.6373 15.9694 33.1115 16.5409 34.5218 14.4679C34.5218 14.4679 33.0021 13.9451 31.9382 13.0637C30.7346 12.0728 29.5492 11.0819 28.0355 11.319L28.0294 11.3311Z" stroke="#8F63C2" stroke-width="1.44043" stroke-linecap="round" stroke-linejoin="round"/>
<path d="M22.7836 11.2943C22.7836 11.2943 21.4827 10.1818 21.3611 9.01468C21.2396 7.8475 22.0602 3.63474 20.3703 2.56483C16.425 0.0602679 9.99943 4.26088 5.3125 1.20312C5.3125 1.20312 5.48271 3.72592 7.51919 4.80799" stroke="#8F63C2" stroke-width="1.44043" stroke-linecap="round" stroke-linejoin="round"/>
<path d="M20.5679 11.8352C19.2913 10.9719 19.1515 8.96587 18.8172 7.33669C18.4828 5.70751 15.3521 3.71359 11.2609 6.05401C5.49193 9.35492 2.09375 6.05401 2.09375 6.05401C2.09375 6.05401 5.24269 15.0753 14.8111 15.4096" stroke="#8F63C2" stroke-width="1.44043" stroke-linecap="round" stroke-linejoin="round"/>
<path d="M27.854 14.5769C28.1897 14.5769 28.4619 14.3047 28.4619 13.969C28.4619 13.6333 28.1897 13.3611 27.854 13.3611C27.5183 13.3611 27.2461 13.6333 27.2461 13.969C27.2461 14.3047 27.5183 14.5769 27.854 14.5769Z" fill="white" stroke="#8F63C2" stroke-width="1.21581" stroke-linecap="round" stroke-linejoin="round"/>
</g>
<defs>
<clipPath id="clip0_4348_46885">
<rect width="42" height="28.8085" fill="white" transform="translate(0.496094 0.595703)"/>
</clipPath>
</defs>
</svg>
