<svg width="40" height="40" viewBox="0 0 40 40" fill="none" xmlns="http://www.w3.org/2000/svg">
<g clip-path="url(#clip0_4348_46921)">
<path d="M19.9156 33.9395C19.9156 33.9395 18.0597 31.8204 12.7079 31.8204C7.35615 31.8204 4.53516 33.9395 4.53516 33.9395V3.06387C4.53516 3.06387 6.91073 0.674805 12.222 0.674805C17.5333 0.674805 19.9089 3.06387 19.9089 3.06387V33.9395H19.9156Z" stroke="#C26365" stroke-width="1.2" stroke-linecap="round" stroke-linejoin="round"/>
<path d="M35.2945 33.9395C35.2945 33.9395 33.4386 31.8204 28.0868 31.8204C22.7351 31.8204 19.9141 33.9395 19.9141 33.9395V3.06387C19.9141 3.06387 22.2896 0.674805 27.6009 0.674805C32.9122 0.674805 35.2878 3.06387 35.2878 3.06387V33.9395H35.2945Z" stroke="#C26365" stroke-width="1.2" stroke-linecap="round" stroke-linejoin="round"/>
<path d="M4.53608 3.48242H0.675781V37.3613H17.514C17.514 38.4478 19.0662 39.3252 20.1528 39.3252C21.2393 39.3252 22.7915 38.4478 22.7915 37.3613H39.1573V3.48242H35.297" stroke="#C26365" stroke-width="1.2" stroke-linecap="round" stroke-linejoin="round"/>
<path d="M8.54297 13.8147H15.6157" stroke="#C26365" stroke-width="1.2" stroke-linecap="round" stroke-linejoin="round"/>
<path d="M12.082 22.8715V10.1636" stroke="#C26365" stroke-width="1.2" stroke-linecap="round" stroke-linejoin="round"/>
<path d="M24.7422 13.8147H31.8149" stroke="#C26365" stroke-width="1.2" stroke-linecap="round" stroke-linejoin="round"/>
<path d="M28.2773 22.8715V10.1636" stroke="#C26365" stroke-width="1.2" stroke-linecap="round" stroke-linejoin="round"/>
</g>
<defs>
<clipPath id="clip0_4348_46921">
<rect width="39.838" height="40" fill="white"/>
</clipPath>
</defs>
</svg>
