<svg width="20" height="20" viewBox="0 0 20 20" fill="none" xmlns="http://www.w3.org/2000/svg">
<mask id="mask0_4462_135790" style="mask-type:alpha" maskUnits="userSpaceOnUse" x="0" y="0" width="20" height="20">
<rect width="20" height="20" fill="#D9D9D9"/>
</mask>
<g mask="url(#mask0_4462_135790)">
<path d="M10.0085 17.5807C8.9629 17.5807 7.97963 17.3834 7.05866 16.9886C6.13769 16.5939 5.3313 16.0508 4.63949 15.3593C3.94769 14.6677 3.40428 13.8616 3.00928 12.9407C2.61442 12.02 2.41699 11.0362 2.41699 9.98927C2.41699 8.94233 2.61435 7.96142 3.00908 7.04656C3.4038 6.1317 3.94692 5.32837 4.63845 4.63656C5.32998 3.94476 6.13616 3.40135 7.05699 3.00635C7.97769 2.61149 8.96151 2.41406 10.0085 2.41406C11.0554 2.41406 12.0363 2.61149 12.9512 3.00635C13.866 3.40108 14.6694 3.94427 15.3612 4.63594C16.053 5.3276 16.5964 6.13073 16.9914 7.04531C17.3862 7.9599 17.5837 8.94392 17.5837 9.9974V11.0551C17.5837 11.758 17.3364 12.3547 16.8418 12.8451C16.3472 13.3355 15.7473 13.5807 15.042 13.5807C14.5644 13.5807 14.133 13.4466 13.7478 13.1784C13.3627 12.9102 13.0542 12.5657 12.8224 12.1447C12.4784 12.5743 12.061 12.921 11.5701 13.1849C11.0791 13.4488 10.5559 13.5807 10.0003 13.5807C9.00588 13.5807 8.16005 13.2316 7.46283 12.5334C6.7656 11.8354 6.41699 10.9884 6.41699 9.9926C6.41699 8.99691 6.76609 8.15156 7.46428 7.45656C8.16234 6.76156 9.00928 6.41406 10.0051 6.41406C11.0008 6.41406 11.8462 6.76267 12.5412 7.4599C13.2362 8.15712 13.5837 9.00295 13.5837 9.9974V11.0551C13.5837 11.4526 13.7279 11.7924 14.0164 12.0745C14.3048 12.3564 14.6467 12.4974 15.042 12.4974C15.4373 12.4974 15.7791 12.3564 16.0676 12.0745C16.3561 11.7924 16.5003 11.4526 16.5003 11.0551V9.9974C16.5003 8.19184 15.8684 6.65712 14.6045 5.39323C13.3406 4.12934 11.8059 3.4974 10.0003 3.4974C8.19477 3.4974 6.66005 4.12934 5.39616 5.39323C4.13227 6.65712 3.50033 8.19184 3.50033 9.9974C3.50033 11.803 4.13227 13.3377 5.39616 14.6016C6.66005 15.8655 8.19477 16.4974 10.0003 16.4974H14.0003V17.5807H10.0085ZM10.0003 12.4974C10.6948 12.4974 11.285 12.2543 11.7712 11.7682C12.2573 11.2821 12.5003 10.6918 12.5003 9.9974C12.5003 9.30295 12.2573 8.71267 11.7712 8.22656C11.285 7.74045 10.6948 7.4974 10.0003 7.4974C9.30588 7.4974 8.7156 7.74045 8.22949 8.22656C7.74338 8.71267 7.50033 9.30295 7.50033 9.9974C7.50033 10.6918 7.74338 11.2821 8.22949 11.7682C8.7156 12.2543 9.30588 12.4974 10.0003 12.4974Z" fill="#37383C" fill-opacity="0.6"/>
</g>
</svg>
