<svg width="20" height="20" viewBox="0 0 20 20" fill="none" xmlns="http://www.w3.org/2000/svg">
<mask id="mask0_4462_135796" style="mask-type:alpha" maskUnits="userSpaceOnUse" x="0" y="0" width="20" height="20">
<rect width="20" height="20" fill="#D9D9D9"/>
</mask>
<g mask="url(#mask0_4462_135796)">
<path d="M12.9362 13.3949L13.7103 12.6207L10.542 9.4524V4.9974H9.45866V9.91719L12.9362 13.3949ZM10.0018 17.5807C8.9572 17.5807 7.97526 17.3834 7.05595 16.9886C6.13678 16.5939 5.3313 16.0508 4.63949 15.3593C3.94769 14.6677 3.40428 13.8616 3.00928 12.9407C2.61442 12.02 2.41699 11.0362 2.41699 9.98927C2.41699 8.94233 2.61435 7.95795 3.00908 7.03615C3.4038 6.11434 3.94692 5.31101 4.63845 4.62615C5.32998 3.94128 6.13616 3.40135 7.05699 3.00635C7.97769 2.61149 8.96151 2.41406 10.0085 2.41406C11.0554 2.41406 12.0398 2.61309 12.9616 3.01115C13.8835 3.4092 14.6855 3.94941 15.3674 4.63177C16.0494 5.31413 16.5892 6.11656 16.987 7.03906C17.3848 7.96156 17.5837 8.94719 17.5837 9.99594C17.5837 11.0405 17.3863 12.0225 16.9916 12.9418C16.5969 13.8609 16.0572 14.6664 15.3726 15.3582C14.688 16.05 13.8841 16.5934 12.961 16.9884C12.0378 17.3833 11.0514 17.5807 10.0018 17.5807ZM10.0103 16.4974C11.8085 16.4974 13.3398 15.862 14.6041 14.5911C15.8682 13.3203 16.5003 11.7857 16.5003 9.9874C16.5003 8.1892 15.8682 6.65795 14.6041 5.39365C13.3398 4.12948 11.8085 3.4974 10.0103 3.4974C8.21199 3.4974 6.67741 4.12948 5.40658 5.39365C4.13574 6.65795 3.50033 8.1892 3.50033 9.9874C3.50033 11.7857 4.13574 13.3203 5.40658 14.5911C6.67741 15.862 8.21199 16.4974 10.0103 16.4974Z" fill="#37383C" fill-opacity="0.6"/>
</g>
</svg>
