<svg width="20" height="20" viewBox="0 0 20 20" fill="none" xmlns="http://www.w3.org/2000/svg">
<mask id="mask0_6179_405" style="mask-type:alpha" maskUnits="userSpaceOnUse" x="0" y="0" width="20" height="20">
<rect width="20" height="20" fill="#D9D9D9"/>
</mask>
<g mask="url(#mask0_6179_405)">
<path d="M6.75581 16.5834C6.38609 16.5834 6.07032 16.4525 5.80852 16.1909C5.54685 15.9291 5.41602 15.6133 5.41602 15.2436V5.50002H4.41602V4.41669H7.99935V3.51294H11.9993V4.41669H15.5827V5.50002H14.5827V15.2346C14.5827 15.6199 14.4532 15.941 14.1941 16.1979C13.9351 16.4549 13.618 16.5834 13.2429 16.5834H6.75581ZM13.4993 5.50002H6.49935V15.2436C6.49935 15.3184 6.52338 15.3799 6.57143 15.4279C6.61949 15.476 6.68095 15.5 6.75581 15.5H13.2429C13.3071 15.5 13.3658 15.4733 13.4191 15.4198C13.4726 15.3665 13.4993 15.3077 13.4993 15.2436V5.50002ZM8.33602 14H9.41914V7.00002H8.33602V14ZM10.5796 14H11.6627V7.00002H10.5796V14Z" fill="#171719"/>
</g>
</svg>
