<svg width="20" height="20" viewBox="0 0 20 20" fill="none" xmlns="http://www.w3.org/2000/svg">
<mask id="mask0_4462_135778" style="mask-type:alpha" maskUnits="userSpaceOnUse" x="0" y="0" width="20" height="20">
<rect width="20" height="20" fill="#D9D9D9"/>
</mask>
<g mask="url(#mask0_4462_135778)">
<path d="M10.0061 9.8851C10.3761 9.8851 10.6909 9.75337 10.9505 9.4899C11.2102 9.22642 11.3401 8.90969 11.3401 8.53969C11.3401 8.16969 11.2083 7.85483 10.9447 7.5951C10.6812 7.33552 10.3645 7.20573 9.99445 7.20573C9.62445 7.20573 9.30966 7.33746 9.05008 7.60094C8.79036 7.86455 8.66049 8.18135 8.66049 8.55135C8.66049 8.92135 8.7923 9.23615 9.05591 9.49573C9.31938 9.75531 9.63612 9.8851 10.0061 9.8851ZM10.0003 16.1545C11.5889 14.7645 12.8261 13.4098 13.7117 12.0903C14.5974 10.7709 15.0403 9.6074 15.0403 8.5999C15.0403 7.13628 14.5646 5.91865 13.6132 4.94698C12.6618 3.97531 11.4575 3.48948 10.0003 3.48948C8.54306 3.48948 7.33876 3.97531 6.38737 4.94698C5.43598 5.91865 4.96029 7.13628 4.96029 8.5999C4.96029 9.6074 5.40313 10.7709 6.28883 12.0903C7.17452 13.4098 8.41167 14.7645 10.0003 16.1545ZM10.0003 17.5886C7.95904 15.8532 6.42813 14.238 5.40758 12.743C4.38716 11.248 3.87695 9.86698 3.87695 8.5999C3.87695 6.89906 4.44688 5.44288 5.58674 4.23135C6.72674 3.01983 8.19445 2.41406 9.98987 2.41406C11.7853 2.41406 13.2565 3.01983 14.4034 4.23135C15.5502 5.44288 16.1236 6.89906 16.1236 8.5999C16.1236 9.86698 15.617 11.245 14.6036 12.7339C13.5903 14.2226 12.0558 15.8409 10.0003 17.5886Z" fill="#37383C" fill-opacity="0.6"/>
</g>
</svg>
