<svg width="14" height="14" viewBox="0 0 14 14" fill="none" xmlns="http://www.w3.org/2000/svg">
<path d="M1.50033 12.4974H2.42658L10.6237 4.30031L9.69741 3.37406L1.50033 11.5711V12.4974ZM0.416992 13.5807V11.1145L10.7841 0.731354C10.8962 0.616909 11.0168 0.535451 11.146 0.486979C11.2751 0.438368 11.4105 0.414062 11.552 0.414062C11.6937 0.414062 11.8289 0.436771 11.9576 0.482188C12.0865 0.527605 12.2113 0.60802 12.332 0.723437L13.2664 1.64969C13.3818 1.77038 13.4635 1.89538 13.5116 2.02469C13.5596 2.15399 13.5837 2.28712 13.5837 2.42406C13.5837 2.57003 13.5584 2.70934 13.5078 2.84198C13.4571 2.97462 13.3766 3.09587 13.2664 3.20573L2.88324 13.5807H0.416992ZM10.1524 3.84531L9.69741 3.37406L10.6237 4.30031L10.1524 3.84531Z" fill="#171719"/>
</svg>
