<svg width="20" height="20" viewBox="0 0 20 20" fill="none" xmlns="http://www.w3.org/2000/svg">
<mask id="mask0_4462_135784" style="mask-type:alpha" maskUnits="userSpaceOnUse" x="0" y="0" width="20" height="20">
<rect width="20" height="20" fill="#D9D9D9"/>
</mask>
<g mask="url(#mask0_4462_135784)">
<path d="M15.4706 16.5599C13.9558 16.4349 12.4996 16.035 11.1021 15.3603C9.70472 14.6856 8.43951 13.7805 7.30646 12.6449C6.17354 11.5092 5.27667 10.2474 4.61583 8.85948C3.955 7.4717 3.55514 6.02038 3.41625 4.50552C3.38847 4.21149 3.47382 3.95608 3.67229 3.73927C3.87062 3.52246 4.11861 3.41406 4.41625 3.41406H6.5925C6.84458 3.41406 7.06146 3.48969 7.24312 3.64094C7.42479 3.79205 7.55139 3.98941 7.62292 4.23302L8.05896 5.97656C8.09201 6.1624 8.0816 6.34399 8.02771 6.52135C7.97368 6.69872 7.88576 6.84295 7.76396 6.95406L5.83937 8.8276C6.1491 9.40871 6.49257 9.95573 6.86979 10.4686C7.24687 10.9814 7.66014 11.461 8.10958 11.9074C8.55333 12.351 9.03271 12.7619 9.54771 13.1401C10.0627 13.5183 10.6188 13.8623 11.216 14.1722L13.1902 12.2443C13.3067 12.1225 13.4403 12.0412 13.591 12.0005C13.7416 11.96 13.9099 11.9536 14.0958 11.9814L15.764 12.3484C16.016 12.4179 16.2156 12.5461 16.3625 12.733C16.5094 12.92 16.5829 13.1422 16.5829 13.3997V15.5599C16.5829 15.8575 16.471 16.1055 16.2473 16.3039C16.0235 16.5023 15.7647 16.5877 15.4706 16.5599ZM5.35208 7.7699L6.92271 6.26344C6.94937 6.24205 6.96673 6.21267 6.97479 6.17531C6.98285 6.13795 6.98153 6.10323 6.97083 6.07115L6.60521 4.62552C6.59451 4.58288 6.57583 4.55087 6.54917 4.52948C6.5225 4.50809 6.48778 4.4974 6.445 4.4974H4.64542C4.61333 4.4974 4.5866 4.50809 4.56521 4.52948C4.54396 4.55087 4.53333 4.5776 4.53333 4.60969C4.57597 5.13747 4.66917 5.66385 4.81292 6.18885C4.95653 6.71399 5.13625 7.24101 5.35208 7.7699ZM12.3104 14.6801C12.8086 14.8993 13.3295 15.0657 13.8731 15.1795C14.4169 15.2931 14.9216 15.3766 15.3873 15.4301C15.4194 15.4301 15.4461 15.4194 15.4675 15.398C15.4889 15.3766 15.4996 15.3499 15.4996 15.3178V13.523C15.4996 13.4802 15.4889 13.4455 15.4675 13.4189C15.4461 13.3922 15.4141 13.3735 15.3715 13.3628L14.0173 13.0695C13.9852 13.0588 13.9572 13.0575 13.9331 13.0655C13.9091 13.0736 13.8837 13.0909 13.8569 13.1176L12.3104 14.6801Z" fill="#37383C" fill-opacity="0.6"/>
</g>
</svg>
